<svg xmlns="http://www.w3.org/2000/svg" width="24" height="24" viewBox="0 0 24 24">
    <path id="bounds" opacity="0" d="M0 0h24v24H0z"/>
    <path d="M3.194 12.223l-.03-.03.02-.01c.01.01.01.02.01.04zM8.014 5.013c-.12.05-.22.13-.3.23l-.06-.06c.12-.07.24-.12.36-.17z"/>
    <path d="M22.194 12.763c0 .01-.01.03-.03.06-.16.36-1.06 2.26-2.88 3.99l-.46-.46-.59-.63c1.67-1.56 2.47-3.29 2.57-3.52 0-.01.01-.02.01-.02.01-.02.02-.05.03-.07.04-.08.04-.17 0-.25-.14-.31-2.66-6.12-8.85-6.12-1.13 0-2.2.19-3.2.58l-.03-.03-1.05-1.05c.08-.1.18-.18.3-.23 1.25-.51 2.58-.77 3.98-.77 7.2 0 10.08 6.69 10.2 6.98.24.44.25 1.03 0 1.54zM3.214 12.243l-.02-.02-.03-.03.02-.01c0 .01.01.03.03.06z"/>
    <path d="M19.284 16.813c-.01 0-.01 0-.02.01l-.44-.47.46.46zM22.114 21.053l-3.59-3.59-2.95-2.95-6.09-6.09-1.66-1.66-4.88-4.88c-.3-.3-.77-.29-1.06 0-.22.21-.28.53-.17.8.01.03.02.06.04.08.03.05.07.1.1.14.01.01.02.03.03.04l3.58 3.58c-2.51 1.99-3.6 4.54-3.63 4.63-.27.51-.28 1.1-.04 1.61 0 .01.01.03.03.06.32.73 3.25 6.92 10.17 6.92 1.91 0 3.68-.47 5.27-1.41h.01l3.78 3.78c.29.3.77.3 1.06 0 .15-.14.22-.33.22-.53 0-.19-.07-.38-.22-.53zm-18.9-8.81l-.02-.02-.03-.03.02-.01c0 .01.01.03.03.06l5.33 5.33c-3.5-1.47-5.11-4.83-5.33-5.33zm8.78 6c-.3 0-.6-.01-.88-.05-1.33-1.44-4.01-4.19-4.12-4.3l-3.21-3.2c.21-.35.49-.76.84-1.19l8.64 8.64c-.41.07-.84.1-1.27.1zm2.98-.51l-9.35-9.35c.28-.27.59-.54.92-.78l9.61 9.62c-.38.21-.78.38-1.18.51z"/>
	<path d="M16.374 12.003c0 .56-.11 1.1-.31 1.59-.12.33-.29.64-.49.92l-6.09-6.09c.28-.2.59-.37.92-.49.5-.2 1.03-.31 1.59-.31.39 0 .77.05 1.13.16-.47.4-.77.99-.77 1.66 0 .18.02.35.07.51.18.8.81 1.43 1.62 1.62.16.04.33.06.5.06.67 0 1.27-.3 1.67-.78.11.37.16.75.16 1.15z"/>
	<path d="M3.214 12.243l-.02-.02-.03-.03.02-.01c0 .01.01.03.03.06z"/>
</svg>
