<svg xmlns="http://www.w3.org/2000/svg" width="24" height="24" viewBox="0 0 24 24">
    <path id="bounds" opacity="0" d="M0 0h24v24H0z"/>
    <circle cx="12" cy="6.674" r="1.889"/>
    <path d="M9.828 14.817l-1.62 3.342c-.138.41.083.857.495.995s.858-.083.996-.495l1.602-3.176c.28-.557 1.076-.556 1.356 0l1.608 3.195c.138.41.584.632.996.494.412-.138.633-.584.495-.996l-1.62-3.342.032.07-.123-.262c-.483-1.027-.535-2.19-.16-3.24.106-.302.392-.505.712-.505h2.032c.434 0 .786-.353.786-.787 0-.434-.352-.786-.786-.786H7.37c-.435 0-.787.352-.787.786 0 .434.352.786.786.786h1.985c.32 0 .606.2.713.503.374 1.05.323 2.214-.158 3.24l-.125.263"/>
    <path d="M12 22.75C6.072 22.75 1.25 17.928 1.25 12S6.072 1.25 12 1.25 22.75 6.072 22.75 12 17.928 22.75 12 22.75zm0-20C6.9 2.75 2.75 6.9 2.75 12S6.9 21.25 12 21.25s9.25-4.15 9.25-9.25S17.1 2.75 12 2.75z"/>
</svg>
