<svg xmlns="http://www.w3.org/2000/svg" width="24" height="24" viewBox="0 0 24 24">
    <path id="bounds" opacity="0" d="M0 0h24v24H0z"/>
    <path d="M15.65 9.69c-.29-2.19-1.64-3.5-3.61-3.5S8.72 7.5 8.43 9.69c-.21 1.54 0 2.65.64 3.38.76.88 1.93 1 2.97 1 1.04 0 2.21-.12 2.97-1 .48-.55.72-1.31.72-2.31 0-.33-.03-.69-.08-1.07zm-1.77 2.4c-.29.33-.84.48-1.84.48s-1.55-.15-1.85-.48c-.33-.38-.42-1.12-.28-2.2.14-1 .61-2.2 2.13-2.2 1.51 0 1.99 1.2 2.13 2.19.14 1.09.05 1.83-.29 2.21z"/>
    <path d="M22.95 10.87l-4.5-7.75C18.05 2.43 17.3 2 16.5 2h-9c-.8 0-1.55.43-1.95 1.12l-4.5 7.75c-.4.7-.4 1.56 0 2.26l4.5 7.75C5.95 21.57 6.7 22 7.5 22h9c.8 0 1.55-.43 1.95-1.12l4.5-7.75c.4-.7.4-1.56 0-2.26zM16.5 20.5h-9c-.46 0-.37-.18-.37-.18.7-2.05 2.66-3.42 4.9-3.42 2.23 0 4.2 1.37 4.89 3.42 0 0 .12.19-.42.18zm5.15-8.12l-3.75 6.46c-1.14-2.1-3.38-3.44-5.87-3.44-2.52 0-4.77 1.36-5.91 3.48l-3.77-6.5c-.13-.24-.13-.52 0-.76l4.5-7.75c.13-.23.38-.37.65-.37h9c.27 0 .52.14.65.37l4.5 7.75c.13.24.13.52 0 .76z"/>
</svg>
