<svg xmlns="http://www.w3.org/2000/svg" width="24" height="24">
    <path d="M12 1.25C6.07 1.25 1.25 6.07 1.25 12c0 3.41 1.57 6.54 4.3 8.6 1.88 1.41 4.11 2.15 6.45 2.15s4.57-.74 6.45-2.15c2.73-2.06 4.3-5.19 4.3-8.6 0-5.93-4.82-10.75-10.75-10.75zM7.01 19.79c.11-.16.22-.31.35-.46.04-.06.09-.11.14-.15.07-.08.15-.17.23-.25.08-.08.16-.16.25-.24.18-.16.37-.31.57-.45s.41-.27.62-.38c.43-.23.89-.4 1.36-.52.11-.03.22-.05.33-.07.37-.07.75-.11 1.14-.11s.77.04 1.14.11c.11.02.22.04.33.07.47.12.93.29 1.36.52.21.11.42.24.62.38s.39.29.57.45c.17.15.34.32.49.49.04.05.09.1.13.15.13.15.24.3.35.46-2.98 1.92-7 1.92-9.98 0zm11.18-.91c-.23-.32-.47-.62-.74-.89-.09-.11-.19-.2-.3-.3-.78-.73-1.71-1.29-2.73-1.63-.13-.05-.26-.09-.39-.12-.16-.05-.32-.09-.49-.12-.12-.03-.25-.05-.37-.07l-.25-.03c-.14-.02-.27-.03-.4-.04-.17-.01-.34-.02-.52-.02s-.35.01-.52.02c-.13.01-.26.02-.4.04l-.25.03c-.12.02-.25.04-.37.07-.17.03-.33.07-.49.12-.13.03-.26.07-.39.12-1.01.34-1.94.89-2.72 1.63-.11.09-.21.19-.31.3-.27.27-.51.57-.74.89-1.95-1.76-3.06-4.22-3.06-6.88 0-5.1 4.15-9.25 9.25-9.25S21.25 6.9 21.25 12c0 2.66-1.11 5.12-3.06 6.88z"/>
    <path d="M15.79 9.62c-.31-2.29-1.73-3.66-3.79-3.66S8.52 7.33 8.21 9.62c-.22 1.63 0 2.8.67 3.56.8.91 2.03 1.03 3.12 1.03s2.32-.12 3.12-1.03c.5-.57.75-1.38.75-2.44 0-.34-.03-.72-.08-1.12zm-1.8 2.57c-.32.37-.92.52-1.99.52s-1.67-.15-1.99-.52c-.36-.41-.47-1.21-.31-2.37.14-1.07.66-2.36 2.3-2.36.82 0 1.36.32 1.71.78.35.46.52 1.04.59 1.58.16 1.16.05 1.96-.31 2.37z"/>
    <path fill="none" d="M0 0h24v24H0V0z"/>
</svg>
