<svg xmlns="http://www.w3.org/2000/svg" width="24" height="24" viewBox="0 0 24 24">
    <path id="bounds" opacity="0" d="M0 0h24v24H0z"/>
    <path d="M21.563 4.36v11.3c0 1.27-1.03 2.29-2.29 2.29h-1.71c-.04 0-.08 0-.11-.01v-1.48c.03-.01.07-.01.11-.01h1.71c.43 0 .79-.35.79-.79V4.36c0-.44-.36-.8-.79-.8H6.933c-.43 0-.79.36-.79.8v1.7c0 .04 0 .08-.02.12h-1.46c-.02-.04-.02-.08-.02-.12v-1.7c0-1.27 1.03-2.3 2.29-2.3h12.34c1.26 0 2.29 1.03 2.29 2.3z"/>
    <path d="M15.153 6.18h-11.3c-1.26 0-2.29 1.02-2.29 2.29v11.3c0 1.27 1.03 2.29 2.29 2.29h11.3c1.27 0 2.3-1.02 2.3-2.29V8.47c0-1.27-1.03-2.29-2.3-2.29zm.8 13.59c0 .44-.36.79-.8.79h-11.3c-.44 0-.79-.35-.79-.79V8.47c0-.44.35-.79.79-.79h11.3c.44 0 .8.35.8.79v11.3z"/>
    <path d="M12.383 12.57c-.23-1.7-1.33-2.76-2.88-2.76-1.54 0-2.64 1.06-2.87 2.76-.16 1.21.01 2.08.52 2.67.62.71 1.58.8 2.35.8s1.73-.09 2.35-.8c.39-.45.59-1.06.59-1.85 0-.26-.02-.53-.06-.82zm-1.65 1.68c-.18.2-.56.29-1.23.29-.67 0-1.05-.09-1.22-.29-.2-.23-.26-.76-.17-1.48.13-.97.6-1.46 1.39-1.46.79 0 1.26.49 1.39 1.46.1.72.04 1.25-.16 1.48zM12.903 20.56c0-.01.01-.03 0-.06-.35-1.41-1.75-2.39-3.4-2.39s-3.04.98-3.39 2.39c.01.02.02.04.02.06h-1.53c0-.14.02-.28.05-.42.52-2.08 2.51-3.53 4.85-3.53s4.34 1.45 4.85 3.53c.04.14.06.28.05.42h-1.5z"/>
</svg>
