<svg xmlns="http://www.w3.org/2000/svg" width="24" height="24" viewBox="0 0 24 24">
    <path id="bounds" opacity="0" d="M0 0h24v24H0z"/>
    <path d="M14.875 22c-.023 0-.046 0-.07-.003-.32-.03-.586-.26-.66-.574l-3.854-16.3-3.1 7.175c-.12.274-.39.452-.69.452H2.75c-.414 0-.75-.336-.75-.75s.336-.75.75-.75h3.257L9.81 2.452c.13-.297.437-.473.755-.45.322.03.59.26.664.575l3.86 16.33 2.473-5.595c.12-.27.39-.446.686-.446h3c.413 0 .75.336.75.75s-.337.75-.75.75h-2.513l-3.177 7.188c-.12.272-.39.446-.685.446z"/>
</svg>
