<svg xmlns="http://www.w3.org/2000/svg" width="24" height="24" viewBox="0 0 24 24">
    <path id="bounds" opacity="0" d="M0 0h24v24H0z"/>
    <path d="M2 3.75c0-.414.336-.75.75-.75h18.5c.414 0 .75.336.75.75s-.336.75-.75.75H2.75c-.414 0-.75-.336-.75-.75zm4 5.5c0-.413.336-.75.75-.75h10.5c.414 0 .75.337.75.75s-.336.75-.75.75H6.75C6.336 10 6 9.665 6 9.25zm-4 5.5c0-.414.336-.75.75-.75h18.5c.414 0 .75.336.75.75s-.336.75-.75.75H2.75c-.414 0-.75-.336-.75-.75zm4 5.5c0-.413.336-.75.75-.75h10.5c.414 0 .75.337.75.75s-.336.75-.75.75H6.75c-.414 0-.75-.335-.75-.75z"/>
</svg>
