<svg xmlns="http://www.w3.org/2000/svg" width="24" height="24" viewBox="0 0 24 24">
    <path id="bounds" opacity="0" d="M0 0h24v24H0z"/>
    <path d="M14.4 10.572h1.877v4.578h1.734v-4.578h1.88V8.894H14.4M12.733 8.895H11v6.255h4.048v-1.787h-2.315M6.283 8.85L4 15.15h1.672l.383-1.117h2.07l.39 1.117h1.823l-2.283-6.3H6.283zm.21 3.834l.604-1.778.598 1.778H6.492z"/>
    <path d="M20.5 2.02h-17c-1.24 0-2.25 1.007-2.25 2.247v15.507c0 1.238 1.01 2.246 2.25 2.246h17c1.24 0 2.25-1.008 2.25-2.246V4.267c0-1.24-1.01-2.247-2.25-2.247zm.75 17.754c0 .41-.336.746-.75.746h-17c-.414 0-.75-.336-.75-.746V4.267c0-.412.336-.747.75-.747h17c.414 0 .75.335.75.747v15.507z"/>
</svg>
