<svg width="22" height="22" viewBox="0 0 22 22" fill="none" xmlns="http://www.w3.org/2000/svg">
<path fill-rule="evenodd" clip-rule="evenodd" d="M21.5 10.75C21.5 4.822 16.678 -4.21553e-07 10.75 -9.39795e-07C4.822 -1.45804e-06 -4.49312e-07 4.822 -9.67554e-07 10.75C-1.4858e-06 16.678 4.822 21.5 10.75 21.5C16.678 21.5 21.5 16.678 21.5 10.75ZM10.75 20C15.85 20 20 15.85 20 10.75C20 5.65 15.85 1.5 10.75 1.5C5.65 1.5 1.5 5.65 1.5 10.75C1.5 15.85 5.65 20 10.75 20ZM6.9031 9.14301C6.6091 9.43601 6.6091 9.91001 6.9031 10.203L6.9011 10.203C7.0481 10.349 7.2411 10.423 7.4311 10.423C7.6211 10.423 7.8161 10.35 7.9611 10.203L10.0011 8.16501L10.0011 14.937C10.0011 15.351 10.3371 15.687 10.7511 15.687C11.1651 15.687 11.5011 15.351 11.5011 14.937L11.5011 8.16501L13.5391 10.203C13.8321 10.496 14.3071 10.496 14.5991 10.203C14.8911 9.91001 14.8931 9.43501 14.5991 9.14301L11.2811 5.82301C10.9911 5.53101 10.5151 5.53101 10.2211 5.82301L6.9031 9.14301Z" />
</svg>
