<svg xmlns="http://www.w3.org/2000/svg" width="24" height="24" viewBox="0 0 24 24">
    <path id="bounds" opacity="0" d="M0 0h24v24H0z"/>
    <path d="M12 1.25c-2.87 0-5.57 1.118-7.602 3.148-4.19 4.19-4.19 11.012 0 15.203 2.03 2.03 4.73 3.15 7.602 3.15s5.57-1.12 7.602-3.15c4.19-4.19 4.19-11.01 0-15.202-2.03-2.03-4.73-3.148-7.602-3.148zm6.54 17.29c-1.568 1.57-3.602 2.5-5.79 2.673v-10.81l2.45 2.45c.145.146.337.22.53.22s.383-.073.53-.22c.292-.293.292-.768 0-1.06l-3.73-3.73c-.293-.293-.768-.293-1.06 0l-3.73 3.73c-.293.293-.293.768 0 1.06s.768.294 1.06 0l2.45-2.448v10.81c-2.188-.176-4.222-1.105-5.79-2.673-3.607-3.606-3.607-9.476 0-13.082C7.205 3.712 9.53 2.75 12 2.75s4.794.962 6.54 2.71c3.607 3.605 3.607 9.475 0 13.08z"/>
</svg>
