<svg width="24" height="24" viewBox="0 0 24 24" fill="none" xmlns="http://www.w3.org/2000/svg">
<path d="M22.75 12C22.75 6.072 17.928 1.25 12 1.25C6.072 1.25 1.25 6.072 1.25 12C1.25 17.928 6.072 22.75 12 22.75C17.928 22.75 22.75 17.928 22.75 12ZM15.847 12.547C16.141 12.84 16.141 13.314 15.847 13.607L12.529 16.927C12.235 17.219 11.759 17.219 11.469 16.927L8.151 13.607C7.857 13.315 7.859 12.84 8.151 12.547C8.443 12.254 8.918 12.254 9.211 12.547L11.249 14.585V7.813C11.249 7.399 11.585 7.063 11.999 7.063C12.413 7.063 12.749 7.399 12.749 7.813V14.585L14.789 12.547C14.934 12.4 15.129 12.327 15.319 12.327C15.509 12.327 15.702 12.401 15.849 12.547H15.846H15.847Z" />
</svg>
