<svg width="22" height="22" viewBox="0 0 22 22" fill="none" xmlns="http://www.w3.org/2000/svg">
<path fill-rule="evenodd" clip-rule="evenodd" d="M0 10.75C0 16.678 4.822 21.5 10.75 21.5C16.678 21.5 21.5 16.678 21.5 10.75C21.5 4.822 16.678 0 10.75 0C4.822 0 0 4.822 0 10.75ZM10.75 1.5C5.65 1.5 1.5 5.65 1.5 10.75C1.5 15.85 5.65 20 10.75 20C15.85 20 20 15.85 20 10.75C20 5.65 15.85 1.5 10.75 1.5ZM14.5969 12.357C14.8909 12.064 14.8909 11.59 14.5969 11.297H14.5989C14.4519 11.151 14.2589 11.077 14.0689 11.077C13.8789 11.077 13.6839 11.15 13.5389 11.297L11.4989 13.335L11.4989 6.56299C11.4989 6.14899 11.1629 5.81299 10.7489 5.81299C10.3349 5.81299 9.9989 6.14899 9.9989 6.56299L9.9989 13.335L7.9609 11.297C7.6679 11.004 7.1929 11.004 6.9009 11.297C6.6089 11.59 6.6069 12.065 6.9009 12.357L10.2189 15.677C10.5089 15.969 10.9849 15.969 11.2789 15.677L14.5969 12.357Z" />
</svg>
