<svg width="24" height="24" viewBox="0 0 24 24" fill="none" xmlns="http://www.w3.org/2000/svg">
<path fill-rule="evenodd" clip-rule="evenodd" d="M1.25 12C1.25 6.072 6.072 1.25 12 1.25C17.928 1.25 22.75 6.072 22.75 12C22.75 17.928 17.928 22.75 12 22.75C6.072 22.75 1.25 17.928 1.25 12ZM15.32 11.673C15.51 11.673 15.703 11.599 15.85 11.453H15.847C16.141 11.16 16.141 10.686 15.847 10.393L12.529 7.073C12.236 6.781 11.761 6.781 11.469 7.073L8.152 10.393C7.858 10.685 7.86 11.16 8.152 11.453C8.444 11.746 8.919 11.746 9.212 11.453L11.25 9.415V16.187C11.25 16.601 11.586 16.937 12 16.937C12.414 16.937 12.75 16.601 12.75 16.187V9.415L14.79 11.453C14.935 11.6 15.13 11.673 15.32 11.673Z" />
</svg>
