<svg xmlns="http://www.w3.org/2000/svg" width="24" height="24" viewBox="0 0 24 24">
    <path id="bounds" opacity="0" d="M0 0h24v24H0z"/>
    <path d="M22.75 12c0-5.928-4.822-10.75-10.75-10.75S1.25 6.072 1.25 12 6.072 22.75 12 22.75 22.75 17.928 22.75 12zm-10.203 3.85c-.146-.147-.22-.34-.22-.53s.073-.385.22-.53l2.038-2.04H7.813c-.414 0-.75-.336-.75-.75s.336-.75.75-.75h6.772l-2.038-2.038c-.293-.293-.293-.768 0-1.06s.768-.294 1.06 0l3.32 3.317c.292.29.292.765 0 1.06l-3.32 3.316c-.293.294-.767.294-1.06 0v.003z"/>
</svg>
