<svg xmlns="http://www.w3.org/2000/svg" width="24" height="24" viewBox="0 0 24 24">
    <path id="bounds" opacity="0" d="M0 0h24v24H0z"/>
    <path d="M16.04 7.266c-.45 0-.815.297-.947.7l-.03.113s-1.064-1.397-3.277-1.397c-2.855 0-4.928 2.4-4.928 5.706 0 2.495 1.755 4.525 3.912 4.525 2.307 0 3.632-1.492 3.632-1.492s.597 1.75 3.503 1.75c.49 0 4.837-.297 4.837-5.172 0-5.923-4.82-10.743-10.744-10.743-5.922 0-10.74 4.82-10.74 10.743 0 5.924 4.818 10.743 10.742 10.743 2.244 0 4.04-.544 5.82-1.765.163-.112.273-.283.31-.48s-.005-.394-.118-.557c-.224-.327-.71-.418-1.037-.193-1.516 1.04-3.05 1.504-4.976 1.504-5.102 0-9.25-4.15-9.25-9.25S6.9 2.75 12 2.75 21.25 6.9 21.25 12c0 2.916-1.822 3.9-3.234 3.9-.53 0-2.234-.213-1.906-2.103 0 0 .938-5.4.938-5.523-.002-.557-.452-1.008-1.01-1.008zm-2.235 6.55c-.58.83-1.378 1.305-2.247 1.335l-.105.003c-1.483 0-2.52-1.112-2.578-2.768-.075-2.12 1.366-3.964 3.146-4.027l.102-.002c1.423 0 2.417 1.07 2.474 2.66.035 1.024-.245 2.018-.79 2.8z"/>
</svg>
