<svg xmlns="http://www.w3.org/2000/svg" width="24" height="24" viewBox="0 0 24 24">
    <path id="bounds" opacity="0" d="M0 0h24v24H0z"/>
    <path d="M17.23 8.6c0-.85-.69-1.55-1.55-1.55-.37 0-.73.14-1.02.39-.6-.45-1.54-.92-2.85-.92-2.97 0-5.12 2.45-5.12 5.84 0 2.62 1.88 4.75 4.19 4.75 1.42 0 2.48-.53 3.17-1.03.54.62 1.53 1.26 3.32 1.26.05 0 5.05-.06 5.05-5.34 0-5.75-4.67-10.42-10.42-10.42S1.58 6.25 1.58 12 6.25 22.42 12 22.42c2.18 0 3.92-.53 5.65-1.72.28-.19.48-.49.56-.86.06-.35-.01-.68-.21-.97-.19-.29-.5-.49-.85-.54-.36-.06-.72.01-.98.19-1.28.88-2.57 1.27-4.17 1.27-4.29 0-7.79-3.5-7.79-7.79S7.71 4.21 12 4.21s7.79 3.5 7.79 7.79c0 2.15-1.19 2.91-2.31 2.91 0 0-.68 0-.98-.35-.15-.17-.19-.45-.13-.82.86-4.96.86-5.06.86-5.14zm-3.5 2.53v.14c0 .73-.22 1.44-.63 2.02-.4.59-.95.91-1.6.94-1 0-1.67-.75-1.71-1.9-.03-.86.26-1.69.81-2.28.42-.45.96-.71 1.51-.73.95 0 1.57.7 1.62 1.81z"/>
</svg>
