<svg xmlns="http://www.w3.org/2000/svg" width="24" height="24" viewBox="0 0 24 24">
    <path id="bounds" opacity="0" d="M0 0h24v24H0z"/>
    <path d="M18.13 20.495c-.04.2-.15.37-.31.48-1.78 1.22-3.58 1.77-5.82 1.77-2.11 0-4.08-.61-5.73-1.67l1.08-1.08c1.36.8 2.95 1.26 4.65 1.26 1.92 0 3.46-.47 4.97-1.51.33-.22.82-.13 1.04.2.11.16.16.36.12.55zM13.61 7.035l-1.33 1.33c-.05-.01-.11-.01-.16-.01h-.1c-1.6.06-2.92 1.55-3.12 3.39l-1.88 1.88c-.11-.39-.16-.81-.16-1.24 0-3.3 2.07-5.7 4.93-5.7.74 0 1.34.15 1.82.35z"/>
    <path d="M17.73 2.925l-1.09 1.08c-1.36-.79-2.95-1.25-4.64-1.25-5.1 0-9.25 4.15-9.25 9.25 0 1.69.46 3.27 1.26 4.63l-1.09 1.09c-1.05-1.66-1.66-3.62-1.66-5.73 0-5.92 4.82-10.74 10.74-10.74 2.11 0 4.07.61 5.73 1.67zM22.74 11.995c0 4.88-4.35 5.18-4.84 5.18-2.9 0-3.5-1.75-3.5-1.75s-1.32 1.49-3.63 1.49c-.11 0-.21-.01-.32-.02l1.91-1.91c.55-.2 1.04-.6 1.44-1.17h.01c.14-.2.25-.41.36-.63l2.47-2.48c-.25 1.48-.53 3.09-.53 3.09-.33 1.89 1.37 2.11 1.9 2.11 1.42 0 3.24-.99 3.24-3.9 0-1.69-.46-3.28-1.26-4.64l1.09-1.09c1.06 1.66 1.66 3.62 1.66 5.72z"/>
    <path d="M21.75 3.485L3.48 21.745c-.17.17-.39.26-.61.26-.23 0-.45-.09-.62-.26-.34-.34-.34-.89 0-1.23l18.26-18.26c.17-.17.4-.26.62-.26s.45.09.62.26c.34.34.34.89 0 1.23z"/>
</svg>
