<svg xmlns="http://www.w3.org/2000/svg" width="24" height="24" viewBox="0 0 24 24">
    <path id="bounds" opacity="0" d="M0 0h24v24H0z"/>
    <path d="M20.75 10.333c0-5.01-3.925-9.083-8.75-9.083s-8.75 4.074-8.75 9.083c0 4.605 3.32 8.412 7.605 8.997l-1.7 1.83c-.137.145-.173.357-.093.54.08.182.26.3.46.3h4.957c.198 0 .378-.118.457-.3.08-.183.044-.395-.092-.54l-1.7-1.83c4.285-.585 7.605-4.392 7.605-8.997zM12 6.75c-1.792 0-3.25 1.607-3.25 3.583 0 .553-.447 1-1 1s-1-.447-1-1C6.75 7.255 9.105 4.75 12 4.75c.553 0 1 .447 1 1s-.447 1-1 1z"/>
</svg>
