<svg xmlns="http://www.w3.org/2000/svg" width="24" height="24" viewBox="0 0 24 24">
    <path id="bounds" opacity="0" d="M0 0h24v24H0z"/>
    <path d="M3.25 22c-.414 0-.75-.336-.75-.75V2.75c0-.414.336-.75.75-.75s.75.336.75.75v1.247C5.144 3.453 7.007 2.75 9 2.75c1.592 0 2.655.266 3.682.522.982.246 1.91.478 3.318.478 1.687 0 2.945-.332 3.704-.61.41-.15.87-.086 1.235.168.35.244.56.64.56 1.054V16.21c0 .474-.272.905-.694 1.1-.62.284-2.325.94-4.806.94-1.593 0-2.654-.266-3.682-.522-.983-.246-1.91-.478-3.318-.478-2.147 0-4.203.996-5 1.433v2.567c0 .414-.336.75-.75.75zM4 5.683v11.314c1.144-.544 3.007-1.247 5-1.247 1.592 0 2.655.266 3.682.522.982.245 1.91.478 3.318.478 1.975 0 3.36-.458 4-.725v-11.4c-.887.302-2.246.625-4 .625-1.593 0-2.654-.266-3.682-.522-.983-.246-1.91-.478-3.318-.478-2.147 0-4.203.996-5 1.433z"/>
    <path d="M17.925 10.77c-1.23-2.543-4.46-2.65-5.925-.496-1.465-2.153-4.695-2.047-5.925.495-.18.372-.025.82.348 1 .373.182.82.026 1.002-.347.78-1.61 2.878-1.556 3.575.123l.308.74c.116.28.39.464.693.464s.578-.182.694-.463l.306-.74c.697-1.68 2.795-1.734 3.575-.124.18.373.63.53 1.002.348.373-.18.53-.628.348-1z"/>
</svg>
