<svg xmlns="http://www.w3.org/2000/svg" width="24" height="24" viewBox="0 0 24 24">
    <path id="bounds" opacity="0" d="M0 0h24v24H0z"/>
    <path d="M20.937 3.223c-.403-.263-.948-.375-1.48-.195-.726.247-1.906.534-3.457.534-1.38 0-2.286-.225-3.273-.472l-.01-.003c-1.01-.252-2.1-.525-3.717-.525-1.67 0-3.235.484-4.357.946-.16.066-.312.132-.455.197V2.75c0-.518-.42-.938-.938-.938s-.937.42-.937.938v18.5c0 .518.42.938.938.938s.94-.42.94-.938v-2.457c.28-.15.682-.35 1.168-.55 1.002-.414 2.312-.806 3.642-.806 1.38 0 2.286.225 3.273.472l.01.002c1.01.253 2.102.525 3.717.525 2.4 0 4.075-.6 4.804-.922.58-.257.883-.823.883-1.378V4.577c0-.612-.343-1.088-.75-1.354zm-3.28 8.717c-.465.226-1.026.03-1.25-.435-.71-1.462-2.598-1.42-3.234.113l-.307.74c-.145.35-.487.58-.866.58-.38 0-.72-.23-.866-.58l-.308-.74c-.636-1.532-2.525-1.576-3.233-.113-.226.466-.786.66-1.252.435-.465-.226-.66-.786-.434-1.252C7.16 8.1 10.392 7.905 12 9.94c1.608-2.035 4.84-1.84 6.094.748.225.466.03 1.026-.436 1.252z"/>
</svg>
