<svg xmlns="http://www.w3.org/2000/svg" width="24" height="24">
    <path d="M18.87 9.538c-.42 0-.75.34-.75.75v7.339l-1.89-1.37V8.618c0-1.16-.94-2.09-2.09-2.09H6.89v-1.06c0-.32.27-.59.59-.59h5.2c.41 0 .75-.34.75-.75 0-.42-.34-.75-.75-.75h-5.2c-1.16 0-2.09.93-2.09 2.09v1.06h-1.3C2.94 6.529 2 7.459 2 8.618v13.627c0 .28.16.54.41.67s.55.11.78-.06l5.93-4.299 5.92 4.299c.13.09.29.14.44.14.12 0 .23-.02.34-.08.25-.13.41-.39.41-.67v-4.139l2.2 1.6c.13.1.28.14.44.14.11 0 .23-.02.34-.08.25-.13.41-.38.41-.67v-8.808c0-.41-.34-.75-.75-.75zm-4.14 11.238l-4.82-3.489-.35-.26c-.14-.1-.29-.14-.44-.14-.16 0-.31.04-.44.14l-3.23 2.34-1.95 1.41V8.618c0-.32.27-.59.59-.59h10.05c.33 0 .59.26.59.59v12.158z"/>
    <path d="M22 4.129c0 .41-.34.75-.75.75h-1.63v1.62c0 .42-.34.75-.75.75-.42 0-.75-.33-.75-.75v-1.62h-1.64c-.41 0-.75-.34-.75-.75 0-.42.34-.75.75-.75h1.64V1.75c0-.41.33-.75.75-.75.41 0 .75.34.75.75v1.63h1.63c.41 0 .75.329.75.749z"/>
    <path fill="none" d="M0 0h24v24H0z"/>
</svg>
