<svg xmlns="http://www.w3.org/2000/svg" width="24" height="24" viewBox="0 0 24 24">
    <path id="bounds" opacity="0" d="M0 0h24v24H0z"/>
    <path d="M20.75 3.25h-6.49c-.9 0-1.71.39-2.26 1.01-.55-.62-1.36-1.01-2.25-1.01H3.26C2.01 3.25 1 4.25 1 5.48v11.97c0 1.21 1.01 2.21 2.26 2.21h6.62c.57 0 1.16.16 1.47.73.03.04.2.36.65.36s.6-.33.62-.36c.23-.46.66-.75 1.51-.73h6.62c1.24 0 2.25-1 2.25-2.21V5.48c0-1.23-1.01-2.23-2.25-2.23zM8.9 15.28H4.86c-.42 0-.75-.33-.75-.74s.33-.75.75-.75H8.9c.41 0 .75.34.75.75s-.34.74-.75.74zm0-3.08H4.86c-.42 0-.75-.34-.75-.74 0-.42.33-.75.75-.75H8.9c.41 0 .75.33.75.75 0 .4-.34.74-.75.74zm0-3.08H4.86c-.42 0-.75-.33-.75-.74s.33-.75.75-.75H8.9c.41 0 .75.34.75.75s-.34.74-.75.74zm10.24 6.16h-4.03c-.42 0-.75-.33-.75-.74s.33-.75.75-.75h4.03c.42 0 .75.34.75.75s-.33.74-.75.74zm0-3.08h-4.03c-.42 0-.75-.34-.75-.74 0-.42.33-.75.75-.75h4.03c.42 0 .75.33.75.75 0 .4-.33.74-.75.74zm0-3.08h-4.03c-.42 0-.75-.34-.75-.74 0-.41.33-.75.75-.75h4.03c.42 0 .75.34.75.75 0 .4-.33.74-.75.74z"/>
</svg>
