<svg xmlns="http://www.w3.org/2000/svg" width="24" height="24" viewBox="0 0 24 24">
    <path id="bounds" opacity="0" d="M0 0h24v24H0z"/>
    <path d="M23.074 3.35H20.65V.927c0-.414-.337-.75-.75-.75s-.75.336-.75.75V3.35h-2.426c-.414 0-.75.337-.75.75s.336.75.75.75h2.425v2.426c0 .414.335.75.75.75s.75-.336.75-.75V4.85h2.424c.414 0 .75-.335.75-.75s-.336-.75-.75-.75zM19.9 10.744c-.415 0-.75.336-.75.75v9.782l-6.71-4.883c-.13-.095-.285-.143-.44-.143s-.31.048-.44.144l-6.71 4.883V5.6c0-.412.337-.75.75-.75h6.902c.414 0 .75-.335.75-.75s-.336-.75-.75-.75h-6.9c-1.242 0-2.25 1.01-2.25 2.25v17.15c0 .282.157.54.41.668.25.13.553.104.78-.062L12 17.928l7.458 5.43c.13.094.286.143.44.143.117 0 .234-.026.34-.08.252-.13.41-.387.41-.67V11.495c0-.414-.335-.75-.75-.75z"/>
</svg>
