<svg xmlns="http://www.w3.org/2000/svg" width="24" height="24">
    <path d="M19.745 1H8.503C7.261 1 6.248 2.014 6.248 3.258v1.385H4.255C3.012 4.643 2 5.657 2 6.901v15.345c0 .281.16.542.411.672s.551.1.782-.06l6.683-4.877 6.683 4.877c.13.09.281.141.441.141.12 0 .23-.03.341-.08.251-.13.411-.391.411-.672v-5.259l3.046 2.218c.14.1.291.151.451.151.11 0 .231-.03.341-.09.25-.122.41-.383.41-.664V3.258C22 2.014 20.988 1 19.745 1zm-3.497 19.771l-5.471-3.994-.461-.331c-.261-.191-.621-.191-.882 0l-3.166 2.308-2.765 2.017V6.901c0-.412.341-.753.752-.753h11.242c.411 0 .752.341.752.753v13.87zm4.249-3.653l-2.745-1.997v-8.22c0-1.244-1.012-2.258-2.255-2.258H7.752V3.258c0-.412.331-.753.752-.753h11.242c.411 0 .752.341.752.753v13.86z"/>
    <path fill="none" d="M0 0h24v24H0z"/>
</svg>
