<svg xmlns="http://www.w3.org/2000/svg" width="24" height="24">
    <path id="bounds" opacity="0" d="M0 0h24v24H0z"/>
    <path d="M12.22 1.75h-.44c-4.51 0-8.16 3.65-8.16 8.16v6.84c0 3.04 2.46 5.5 5.5 5.5h5.76c3.04 0 5.5-2.46 5.5-5.5V9.91c0-4.51-3.65-8.16-8.16-8.16zM8.61 13.52c-1.05 0-1.89-.85-1.89-1.9s.84-1.9 1.89-1.9c1.04 0 1.89.85 1.89 1.9s-.85 1.9-1.89 1.9zm6.78 0c-1.04 0-1.89-.85-1.89-1.9s.85-1.9 1.89-1.9c1.05 0 1.89.85 1.89 1.9s-.84 1.9-1.89 1.9z"/>
    <path d="M23 9.17v5.66c0 .5-.41.91-.91.91h-.05c-.5 0-.91-.41-.91-.91V9.17c0-.51.41-.91.91-.91h.05c.5 0 .91.4.91.91z"/>
    <path d="M2.87 9.17v5.66c0 .5-.41.91-.91.91h-.05c-.5 0-.91-.41-.91-.91V9.17c0-.51.41-.91.91-.91h.05c.5 0 .91.4.91.91z"/>
</svg>
