<?xml version="1.0" encoding="utf-8"?>
<svg xmlns="http://www.w3.org/2000/svg" width="24" height="24" viewBox="0 0 24 24">
    <path d="M21.75 16.75c0 .414-.336.75-.75.75H9c-.414 0-.75-.336-.75-.75S8.586 16 9 16h12c.414 0 .75.336.75.75z"/>
    <path d="M9 7.5h12c.414 0 .75-.336.75-.75S21.414 6 21 6H9c-.414 0-.75.336-.75.75s.336.75.75.75z"/>
    <path d="M4.5 4.25c-1.243 0-2.25 1.007-2.25 2.25S3.257 8.75 4.5 8.75 6.75 7.743 6.75 6.5C6.748 5.258 5.742 4.252 4.5 4.25z"/>
    <path d="M4.5 14.25c-1.243 0-2.25 1.007-2.25 2.25s1.007 2.25 2.25 2.25 2.25-1.007 2.25-2.25c-.002-1.242-1.008-2.248-2.25-2.25z"/>
</svg>
