<svg xmlns="http://www.w3.org/2000/svg" width="24" height="24" viewBox="0 0 24 24">
    <path id="bounds" opacity="0" d="M0 0h24v24H0z"/>
    <path d="M12 22.25c-.062 0-.124-.008-.186-.023-.332-.085-.564-.384-.564-.727v-6.64H5.667c-.265 0-.51-.14-.645-.366s-.14-.51-.013-.742l6.332-11.61c.164-.302.51-.453.844-.368.332.084.564.383.564.726v6.64h5.583c.265 0 .51.14.645.366s.14.51.013.742l-6.332 11.61c-.133.246-.388.392-.658.392zm-5.07-8.89H12c.414 0 .75.337.75.75v4.448l4.32-7.92H12c-.414 0-.75-.336-.75-.75V5.44l-4.32 7.92z"/>
</svg>
