<svg xmlns="http://www.w3.org/2000/svg" width="24" height="24" viewBox="0 0 24 24">
    <path id="bounds" opacity="0" d="M0 0h24v24H0z"/>
    <path d="M22.906 6.356c-.26-.123-.568-.09-.794.093l-2.737 2.207V5.283c0-1.24-1.01-2.25-2.25-2.25H3.167c-1.24 0-2.25 1.01-2.25 2.25v14.5c0 1.24 1.01 2.25 2.25 2.25h13.958c1.24 0 2.25-1.01 2.25-2.25V16.41l2.737 2.207c.136.11.303.166.47.166.11 0 .222-.024.324-.073.26-.125.427-.388.427-.677v-11c0-.29-.166-.552-.427-.677zm-12.76 10.677c-2.485 0-4.5-2.015-4.5-4.5s2.015-4.5 4.5-4.5 4.5 2.015 4.5 4.5-2.015 4.5-4.5 4.5z"/>
</svg>
