<svg xmlns="http://www.w3.org/2000/svg" width="24" height="24" viewBox="0 0 24 24">
    <path id="bounds" opacity="0" d="M0 0h24v24H0z"/>
    <path d="M22.906 6.356c-.26-.124-.568-.088-.794.093l-2.737 2.207V5.283c0-1.24-1.01-2.25-2.25-2.25H3.167c-1.24 0-2.25 1.01-2.25 2.25v14.5c0 1.24 1.01 2.25 2.25 2.25h13.958c1.24 0 2.25-1.01 2.25-2.25V16.41l2.737 2.207c.136.11.303.166.47.166.11 0 .222-.024.324-.073.26-.125.427-.388.427-.677v-11c0-.29-.166-.552-.427-.677zm-5.03 13.427c0 .413-.338.75-.75.75H3.165c-.412 0-.75-.337-.75-.75v-14.5c0-.413.338-.75.75-.75h13.96c.412 0 .75.337.75.75v14.5zm3.957-3.318l-2.458-1.983v-3.897l2.458-1.983v7.863z"/>
    <path d="M10.146 17.395c-2.68 0-4.86-2.18-4.86-4.86s2.18-4.862 4.86-4.862 4.86 2.18 4.86 4.86-2.18 4.862-4.86 4.862zm0-8.223c-1.853 0-3.36 1.508-3.36 3.36s1.508 3.362 3.36 3.362c1.854 0 3.36-1.508 3.36-3.36S12 9.17 10.147 9.17z"/>
</svg>
