<svg xmlns="http://www.w3.org/2000/svg" width="24" height="24" viewBox="0 0 24 24">
    <path id="bounds" opacity="0" d="M0 0h24v24H0z"/>
    <path d="M8.51 22.25c-.062 0-.124-.008-.186-.023-.33-.085-.564-.384-.564-.727v-6.64H2.177c-.265 0-.51-.14-.645-.366s-.14-.51-.013-.742L7.85 2.142c.164-.302.512-.454.843-.37.333.086.565.385.565.728v6.64h5.583c.265 0 .51.14.645.366s.14.51.013.742L9.17 21.858c-.133.246-.388.392-.658.392zm-5.07-8.89h5.07c.414 0 .75.337.75.75v4.448l4.32-7.92H8.51c-.414 0-.75-.336-.75-.75V5.44l-4.32 7.92zM21.06 10l2.47-2.47c.294-.293.294-.768 0-1.06s-.767-.294-1.06 0L20 8.94l-2.47-2.47c-.293-.294-.768-.294-1.06 0s-.294.767 0 1.06L18.94 10l-2.47 2.47c-.294.293-.294.768 0 1.06.145.147.337.22.53.22s.383-.072.53-.22L20 11.06l2.47 2.47c.145.147.337.22.53.22s.383-.072.53-.22c.292-.292.292-.767 0-1.06L21.06 10z"/>
</svg>
