<svg xmlns="http://www.w3.org/2000/svg" width="40" height="21" viewBox="0 0 40 21">
    <path opacity=".5" d="M3 3h34v15H3z"/>
    <path d="M40 3.64v13.74c-.006.02-.016.037-.016.056-.008.23-.062.454-.124.675-.416 1.462-1.657 2.58-3.147 2.833-.117.02-.235.038-.353.057H3.66c-.048-.008-.097-.018-.145-.025-.83-.11-1.56-.44-2.18-1.003-.71-.646-1.137-1.448-1.28-2.4C.04 17.462.02 17.35 0 17.24V3.76c.012-.052.027-.103.036-.155.022-.135.035-.27.062-.404C.434 1.526 1.83.237 3.525.036c.085-.01.17-.023.255-.035h32.48c.03.006.057.014.086.018.122.016.245.025.366.048 1.077.203 1.94.75 2.575 1.642.395.555.637 1.172.696 1.856.002.026.01.05.017.076zM12.56 9.008v-.36c.005-.197-.007-.393-.046-.587-.35-1.75-2.35-2.618-3.855-1.66-.724.463-1.12 1.135-1.183 1.994-.013.166-.007.333-.01.5 0 .035-.003.07-.005.114h-.528c-.31.004-.562.127-.747.377-.125.17-.173.362-.173.573.002 1.36 0 2.72 0 4.08 0 .022 0 .046.002.07.012.386.264.717.633.835.105.034.214.04.324.04h6.16c.19 0 .36-.06.51-.174.245-.185.372-.434.373-.74.002-1.383 0-2.766 0-4.15v-.03c-.014-.455-.365-.834-.818-.873-.173-.015-.347-.007-.52-.01h-.12zm7.56 5.583l.587-1.746h2.788l.6 1.746h1.73L22.93 6.465h-1.6l-2.896 8.126h1.686zm6.983-8.078v8.077h1.67v-3.194l3.1-.003-.01-1.535h-3.08l.01-1.817h3.506V6.51h-5.197v.002z"/>
    <path d="M11.458 9.002H8.575c-.004-.007-.01-.012-.01-.018 0-.253-.024-.506.033-.756.148-.653.75-1.15 1.47-1.13.664.02 1.25.518 1.376 1.182.028.15.038.592.014.722zM22.983 11.356H21.22l.876-2.6h.02"/>
</svg>
