<svg xmlns="http://www.w3.org/2000/svg" width="40" height="21" viewBox="0 0 40 21">
    <path opacity=".5" d="M3 3h34v15H3z"/>
    <path d="M0 17.235V3.76c.012-.052.026-.104.036-.156.037-.206.06-.416.11-.62.405-1.568 1.74-2.74 3.35-2.95.093-.01.19-.022.284-.034h32.48c.022.005.044.015.066.016.247.013.49.06.727.122 1.516.404 2.666 1.68 2.91 3.227L40 3.62v13.755c-.006.028-.015.057-.018.086-.01.077-.012.154-.026.23-.237 1.225-.893 2.157-1.97 2.786-.632.368-1.32.524-2.048.524H3.97c-.62-.017-1.217-.147-1.767-.44-1.21-.645-1.93-1.646-2.147-3L0 17.234zM7.467 9h-.54c-.194.003-.375.056-.533.173-.253.187-.38.44-.38.755v2.09c0 .682.003 1.366 0 2.048-.004.502.413.914.916.913 2.056-.004 4.113-.002 6.17-.003.05 0 .1-.002.148-.01.46-.082.768-.45.768-.922v-4.11c0-.537-.397-.93-.936-.935h-.44c-.025 0-.05-.007-.08-.01 0-.153.006-.3-.002-.446-.008-.163-.015-.327-.046-.487-.246-1.282-1.432-2.166-2.736-2.043-.697.066-1.27.375-1.72.91-.394.47-.583 1.018-.588 1.63-.002.144 0 .286 0 .446zm21.346-.984l3.535-.002-.008-1.508h-5.19v8.067l5.246-.002v-1.497h-3.583v-1.798h3.097l-.004-1.52h-3.093v-1.74zm-2.94 6.564L22.98 6.46H21.38l-2.896 8.122h1.686l.587-1.744h2.787l.597 1.743h1.734z"/>
    <path d="M8.585 9.02c.008-.293-.023-.575.058-.853.176-.603.764-1.094 1.502-1.044.66.045 1.207.543 1.323 1.18.043.237.02.475.027.717h-2.91zM22.187 8.777l.864 2.593H21.29l.876-2.593"/>
</svg>
