<svg xmlns="http://www.w3.org/2000/svg" width="24" height="24" viewBox="0 0 24 24">
    <path id="bounds" opacity="0" d="M0 0h24v24H0z"/>
    <path d="M12 17.89c-2.68 0-4.86-2.182-4.86-4.862s2.18-4.86 4.86-4.86 4.86 2.18 4.86 4.86-2.18 4.86-4.86 4.86zm0-8.223c-1.854 0-3.36 1.508-3.36 3.36 0 1.854 1.507 3.36 3.36 3.36s3.36-1.507 3.36-3.36c0-1.852-1.506-3.36-3.36-3.36z"/>
    <path d="M19.75 22H4.25C3.01 22 2 20.99 2 19.75V7.333c0-1.24 1.01-2.25 2.25-2.25h2.188C7.633 3.17 9.722 2 12 2c2.278 0 4.367 1.17 5.562 3.083h2.188c1.24 0 2.25 1.01 2.25 2.25V19.75c0 1.24-1.01 2.25-2.25 2.25zM4.25 6.583c-.414 0-.75.337-.75.75V19.75c0 .413.336.75.75.75h15.5c.414 0 .75-.337.75-.75V7.333c0-.413-.336-.75-.75-.75h-2.493c-.312.053-.63-.095-.782-.382-.878-1.665-2.593-2.7-4.475-2.7S8.403 4.535 7.524 6.202c-.16.303-.5.46-.833.38H4.25z"/>
</svg>
