<svg xmlns="http://www.w3.org/2000/svg" width="24" height="24" viewBox="0 0 24 24">
    <path id="bounds" opacity="0" d="M0 0h24v24H0z"/>
    <path d="M21 3.25H6c-1.24 0-2.25 1.01-2.25 2.25v.75H3C1.76 6.25.75 7.26.75 8.5v10c0 1.24 1.01 2.25 2.25 2.25h15c1.24 0 2.25-1.01 2.25-2.25v-.75H21c1.24 0 2.25-1.01 2.25-2.25v-10c0-1.24-1.01-2.25-2.25-2.25zM18.75 18.5c0 .414-.336.75-.75.75H3c-.414 0-.75-.336-.75-.75v-10c0-.414.336-.75.75-.75h15c.414 0 .75.336.75.75v10zm3-3c0 .414-.336.75-.75.75h-.75V8.5c0-1.24-1.01-2.25-2.25-2.25H5.25V5.5c0-.414.336-.75.75-.75h15c.414 0 .75.336.75.75v10z"/>
    <path d="M9.125 12.583H4.75c-.414 0-.75-.336-.75-.75s.336-.75.75-.75h4.375c.414 0 .75.336.75.75s-.336.75-.75.75zM9.125 15.94H4.75c-.414 0-.75-.335-.75-.75s.336-.75.75-.75h4.375c.414 0 .75.337.75.75s-.336.75-.75.75zM15.875 16.19h-3.858c-.413 0-.75-.337-.75-.75v-3.857c0-.412.337-.75.75-.75h3.858c.413 0 .75.338.75.75v3.858c0 .414-.337.75-.75.75z"/>
</svg>
