<svg xmlns="http://www.w3.org/2000/svg" width="24" height="24" viewBox="0 0 24 24">
    <path id="bounds" opacity="0" d="M0 0h24v24H0z"/>
    <path d="M17.912 16.05c-1.038 0-1.954.53-2.493 1.334H11.49C10.954 16.58 10.038 16.05 9 16.05c-.447 0-.868.105-1.25.28l-.22-1.38h12.507c.368 0 .683-.268.74-.632l1.2-7.513c.035-.217-.027-.438-.17-.604s-.35-.263-.57-.263H6.09L5.567 2.68c-.058-.365-.372-.633-.74-.633h-2.8c-.414 0-.75.336-.75.75s.336.75.75.75h2.16l2.24 13.982c-.265.447-.428.963-.428 1.52 0 1.654 1.346 3 3 3s3-1.346 3-3c0-.057-.014-.11-.017-.166h2.946c-.004.056-.018.11-.018.166 0 1.654 1.346 3 3 3s3-1.346 3-3-1.346-3-3-3zM6.33 7.438h14.028l-.96 6.013H7.29L6.33 7.44zM9 20.55c-.827 0-1.5-.673-1.5-1.5s.673-1.5 1.5-1.5 1.5.673 1.5 1.5-.673 1.5-1.5 1.5zm8.912 0c-.827 0-1.5-.673-1.5-1.5s.673-1.5 1.5-1.5 1.5.673 1.5 1.5-.673 1.5-1.5 1.5z"/>
</svg>
