<svg xmlns="http://www.w3.org/2000/svg" width="24" height="24" viewBox="0 0 24 24">
    <path id="bounds" opacity="0" d="M0 0h24v24H0z"/>
    <path d="M23.098 17.97l-8.62-14.93c-.54-.94-1.51-1.5-2.6-1.5h-.02c-1.09 0-2.06.58-2.6 1.53L.888 18c-.53.94-.52 2.06.03 2.99.54.92 1.49 1.47 2.55 1.47h17.07c1.06 0 2.02-.55 2.56-1.48.54-.94.54-2.07 0-3.01zm-11.1.92c-.76 0-1.38-.62-1.38-1.38s.62-1.37 1.38-1.37 1.37.61 1.37 1.37-.61 1.38-1.37 1.38zm1.72-9.03l-.93 4.39c-.07.38-.4.64-.79.64s-.71-.26-.8-.64l-.93-4.39c-.1-.52.03-1.06.36-1.47.67-.83 2.07-.83 2.74 0 .33.41.46.95.35 1.47z"/>
</svg>
