<svg xmlns="http://www.w3.org/2000/svg" width="24" height="24" viewBox="0 0 24 24">
    <path id="bounds" opacity="0" d="M0 0h24v24H0z"/>
    <circle fill="#FFFFFF" cx="12" cy="12" r="10"/>
    <path d="M12 1.25C6.072 1.25 1.25 6.072 1.25 12S6.072 22.75 12 22.75 22.75 17.928 22.75 12 17.928 1.25 12 1.25zm4.086 7.698L11.744 15.6s-.354.545-.416.607c-.146.146-.338.22-.53.22s-.384-.073-.53-.22l-2.7-2.704c-.293-.293-.293-.77 0-1.06.293-.294.768-.294 1.06 0l2.048 2.05 4.155-6.365c.227-.346.693-.443 1.04-.218.345.227.443.692.216 1.038z"/>
</svg>
