<?xml version="1.0" encoding="UTF-8"?>
<svg xmlns="http://www.w3.org/2000/svg" width="24" height="24" viewBox="0 0 24 24">
    <path d="M19.75 2H4.25C3.01 2 2 3.01 2 4.25v15.5C2 20.99 3.01 22 4.25 22h15.5c1.24 0 2.25-1.01 2.25-2.25V4.25C22 3.01 20.99 2 19.75 2Zm-3.663 6.948L11.745 15.6s-.354.545-.416.607c-.146.146-.338.22-.53.22s-.384-.073-.53-.22l-2.7-2.704c-.293-.293-.293-.77 0-1.06.293-.294.768-.294 1.06 0l2.048 2.05 4.155-6.365c.227-.346.693-.443 1.04-.218.345.227.443.692.216 1.038Z"/>
</svg>
