<svg xmlns="http://www.w3.org/2000/svg" width="24" height="24" viewBox="0 0 24 24">
    <path id="bounds" opacity="0" d="M0 0h24v24H0z"/>
    <path d="M15.87 7.91c-.347-.226-.813-.128-1.04.218l-4.154 6.364-2.047-2.05c-.294-.293-.77-.293-1.062 0-.293.292-.293.768 0 1.06l2.7 2.705c.145.146.338.22.53.22s.383-.073.53-.22c.062-.062.416-.607.416-.607l4.343-6.652c.226-.346.128-.81-.218-1.038z"/>
    <path d="M12 22.75C6.072 22.75 1.25 17.928 1.25 12S6.072 1.25 12 1.25 22.75 6.072 22.75 12 17.928 22.75 12 22.75zm0-20C6.9 2.75 2.75 6.9 2.75 12S6.9 21.25 12 21.25s9.25-4.15 9.25-9.25S17.1 2.75 12 2.75z"/>
</svg>
