<svg xmlns="http://www.w3.org/2000/svg" width="24" height="24" viewBox="0 0 24 24">
    <path id="bounds" opacity="0" d="M0 0h24v24H0z"/>
    <path d="M23.284 16.22c-.062-.063-.134-.114-.213-.15l-9.183-4.32 9.182-4.32c.374-.176.535-.622.36-.997-.037-.08-.088-.15-.15-.213l-.9-.9c-1.107-1.1-2.777-1.403-4.2-.764l-6.565 2.98c-.943.43-1.564 1.353-1.607 2.39l-2.133-1c1.475-1.45 1.494-3.822.044-5.297-1.45-1.476-3.822-1.495-5.297-.045-1.475 1.45-1.494 3.82-.044 5.296.703.717 1.666 1.12 2.67 1.12.354-.005.704-.06 1.042-.166L10 11.58v.34l-3.708 1.746c-.338-.105-.688-.16-1.042-.166-2.078-.007-3.767 1.672-3.774 3.75-.007 2.078 1.672 3.767 3.75 3.774 2.078.007 3.767-1.672 3.774-3.75.003-1.013-.402-1.985-1.125-2.695l2.133-1c.043 1.035.664 1.96 1.607 2.39l6.568 2.976c.484.22 1.01.333 1.54.332.997 0 1.953-.396 2.66-1.1l.9-.9c.292-.292.293-.766 0-1.06zM5.25 8.5C4.007 8.5 3 7.493 3 6.25 3.002 5.008 4.008 4.002 5.25 4 6.493 4 7.5 5.007 7.5 6.25S6.493 8.5 5.25 8.5zm0 11C4.007 19.5 3 18.493 3 17.25S4.007 15 5.25 15c1.242.002 2.248 1.008 2.25 2.25 0 1.243-1.007 2.25-2.25 2.25zm6.25-9.46c0-.49.287-.937.734-1.14L18.8 5.924c.29-.132.605-.2.924-.2.6-.002 1.175.234 1.6.657l.144.145-9.968 4.69V10.04zm9.82 7.077c-.663.658-1.664.84-2.518.458L12.234 14.6c-.447-.203-.734-.65-.734-1.14v-.587l.625-.294 9.34 4.394-.144.143z"/>
</svg>
