<svg xmlns="http://www.w3.org/2000/svg" width="24" height="24" viewBox="0 0 24 24">
    <path id="bounds" opacity="0" d="M0 0h24v24H0z"/>
    <path d="M16.925 9.5H14.5V7.075c0-.414-.336-.75-.75-.75s-.75.336-.75.75V9.5h-2.425c-.414 0-.75.336-.75.75s.336.75.75.75H13v2.425c0 .414.336.75.75.75s.75-.336.75-.75V11h2.425c.414 0 .75-.336.75-.75s-.336-.75-.75-.75zM16.625 20.5H4.25c-.413 0-.75-.337-.75-.75V8.402c0-.414-.336-.75-.75-.75s-.75.336-.75.75V19.75C2 20.99 3.01 22 4.25 22h12.375c.414 0 .75-.336.75-.75s-.336-.75-.75-.75z"/>
    <path d="M19.75 2h-12C6.51 2 5.5 3.01 5.5 4.25v12c0 1.24 1.01 2.25 2.25 2.25h12c1.24 0 2.25-1.01 2.25-2.25v-12C22 3.01 20.99 2 19.75 2zm.75 14.25c0 .413-.337.75-.75.75h-12c-.413 0-.75-.337-.75-.75v-12c0-.413.337-.75.75-.75h12c.413 0 .75.337.75.75v12z"/>
</svg>
