<svg xmlns="http://www.w3.org/2000/svg" width="24" height="24" viewBox="0 0 24 24">
    <path id="bounds" opacity="0" d="M0 0h24v24H0z"/>
    <path d="M13.06 12l2.796-2.795c.293-.293.293-.768 0-1.06s-.768-.294-1.06 0L12 10.938 9.205 8.144c-.293-.293-.768-.293-1.06 0s-.294.768 0 1.06L10.938 12l-2.796 2.795c-.293.293-.293.768 0 1.06.146.147.338.22.53.22s.384-.072.53-.22L12 13.062l2.795 2.796c.146.146.338.22.53.22s.384-.073.53-.22c.293-.293.293-.768 0-1.06L13.06 12z"/>
    <path d="M12 22.75C6.072 22.75 1.25 17.928 1.25 12S6.072 1.25 12 1.25 22.75 6.072 22.75 12 17.928 22.75 12 22.75zm0-20C6.9 2.75 2.75 6.9 2.75 12S6.9 21.25 12 21.25s9.25-4.15 9.25-9.25S17.1 2.75 12 2.75z"/>
</svg>
