<svg xmlns="http://www.w3.org/2000/svg" width="24" height="24" viewBox="0 0 24 24">
    <path id="bounds" opacity="0" d="M0 0h24v24H0z"/>
    <path d="M12 1.25C6.072 1.25 1.25 6.072 1.25 12S6.072 22.75 12 22.75 22.75 17.928 22.75 12 17.928 1.25 12 1.25z"/>
    <path fill="#FFFFFF" d="M15.857 14.795L13.062 12l2.793-2.798c.294-.292.292-.767 0-1.06-.292-.293-.767-.293-1.06 0L12 10.938 9.204 8.145c-.292-.294-.767-.292-1.06 0-.293.292-.293.767 0 1.06L10.94 12l-2.795 2.798c-.293.292-.293.767 0 1.06.146.147.338.22.53.22s.384-.074.53-.22L12 13.062l2.795 2.793c.146.148.338.22.53.22s.384-.073.53-.22c.293-.292.293-.767 0-1.06h.002z"/>
</svg>
