<svg xmlns="http://www.w3.org/2000/svg" width="24" height="24">
    <path d="M20.106 21.881H7.284c-.414 0-.75-.336-.75-.75s.336-.75.75-.75h12.822c.425 0 .771-.324.771-.724V6.924c0-.414.336-.75.75-.75s.75.336.75.75v12.733c0 1.227-1.019 2.224-2.271 2.224z"/>
    <path d="M2.264 17.971c-.414 0-.75-.336-.75-.75V4.73c0-1.226 1.019-2.223 2.27-2.223h12.538c.414 0 .75.336.75.75s-.336.75-.75.75H3.784c-.425 0-.77.324-.77.723v12.491c0 .414-.336.75-.75.75z"/>
    <path d="M9.107 15.033c-1.666 0-3.006-1.274-3.006-3.015v-.019c0-1.698 1.309-3.032 3.075-3.032 1.189 0 1.957.5 2.472 1.217l-1.139.882c-.289-.396-.753-.656-1.28-.656-.877 0-1.589.711-1.589 1.589 0 .877.712 1.589 1.59 1.589.545 0 1.025-.275 1.311-.693l1.151.821c-.55.757-1.291 1.315-2.582 1.315h-.002l-.001.002zm6.209 0c-1.664 0-3.005-1.274-3.005-3.015v-.019c0-1.698 1.307-3.032 3.073-3.032 1.191 0 1.957.5 2.473 1.217l-1.141.882c-.288-.396-.752-.655-1.279-.655-.877 0-1.59.711-1.59 1.589 0 .877.711 1.59 1.589 1.59.544 0 1.024-.275 1.311-.693l1.151.821c-.55.757-1.291 1.315-2.582 1.315z"/>
    <path d="M16.89 7.861c-.192 0-.384-.073-.53-.22-.293-.293-.293-.768 0-1.061l5.11-5.111c.293-.293.768-.293 1.061 0s.293.768 0 1.061l-5.11 5.111c-.148.147-.339.22-.531.22z"/>
    <path d="M2 22.75c-.192 0-.384-.073-.53-.22-.293-.293-.293-.768 0-1.061l5.111-5.11c.293-.293.768-.293 1.061 0 .293.293.293.768 0 1.061L2.53 22.53c-.146.147-.338.22-.53.22z"/>
    <path fill="none" d="M0 0h24v24H0z"/>
</svg>
