<svg xmlns="http://www.w3.org/2000/svg" width="24" height="24" viewBox="0 0 24 24">
    <path id="bounds" opacity="0" d="M0 0h24v24H0z"/>
    <path d="M9.008 15.205c-1.766 0-3.187-1.35-3.187-3.196v-.02c0-1.8 1.388-3.214 3.26-3.214 1.26 0 2.075.53 2.62 1.29L10.494 11c-.306-.42-.798-.695-1.357-.695-.93 0-1.684.754-1.684 1.684s.755 1.684 1.685 1.684c.578 0 1.087-.292 1.39-.735l1.22.87c-.583.802-1.368 1.394-2.737 1.394h-.002zM15.59 15.205c-1.764 0-3.185-1.35-3.185-3.196v-.02c0-1.8 1.386-3.214 3.258-3.214 1.262 0 2.075.53 2.622 1.29l-1.21.935c-.305-.42-.797-.694-1.356-.694-.93 0-1.685.754-1.685 1.684s.754 1.685 1.684 1.685c.577 0 1.086-.292 1.39-.735l1.22.87c-.584.803-1.37 1.395-2.738 1.395z"/>
    <path d="M20.5 2.02h-17c-1.24 0-2.25 1.007-2.25 2.247v15.507c0 1.238 1.01 2.246 2.25 2.246h17c1.24 0 2.25-1.008 2.25-2.246V4.267c0-1.24-1.01-2.247-2.25-2.247zm.75 17.754c0 .41-.336.746-.75.746h-17c-.414 0-.75-.336-.75-.746V4.267c0-.412.336-.747.75-.747h17c.414 0 .75.335.75.747v15.507z"/>
</svg>
