<svg xmlns="http://www.w3.org/2000/svg" width="24" height="24" viewBox="0 0 24 24">
    <path id="bounds" opacity="0" d="M0 0h24v24H0z"/>
    <path d="M20.5 2h-17C2.26 2 1.25 3.008 1.25 4.247v15.507C1.25 20.992 2.26 22 3.5 22h17c1.24 0 2.25-1.008 2.25-2.246V4.247C22.75 3.007 21.74 2 20.5 2zM9.008 15.205c-1.766 0-3.187-1.35-3.187-3.196v-.02c0-1.8 1.387-3.213 3.26-3.213 1.26 0 2.074.53 2.62 1.29L10.493 11c-.306-.42-.798-.695-1.357-.695-.93 0-1.684.754-1.684 1.684s.755 1.685 1.685 1.685c.578 0 1.087-.292 1.39-.735l1.22.87c-.583.803-1.368 1.395-2.737 1.395zm6.583 0c-1.765 0-3.186-1.35-3.186-3.196v-.02c0-1.8 1.386-3.213 3.258-3.213 1.262 0 2.075.53 2.622 1.29l-1.21.935c-.305-.42-.797-.695-1.356-.695-.93 0-1.684.754-1.684 1.684s.754 1.685 1.684 1.685c.578 0 1.087-.292 1.39-.735l1.22.87c-.583.803-1.368 1.395-2.737 1.395z"/>
</svg>
