<svg xmlns="http://www.w3.org/2000/svg" width="24" height="24" viewBox="0 0 24 24">
    <path id="bounds" opacity="0" d="M0 0h24v24H0z"/>
    <path d="M12 1.25C6.072 1.25 1.25 6.072 1.25 12S6.072 22.75 12 22.75 22.75 17.928 22.75 12 17.928 1.25 12 1.25zm3.855 13.545c.293.293.293.768 0 1.06-.146.147-.338.22-.53.22s-.384-.072-.53-.22L12 13.062l-2.795 2.796c-.146.146-.338.22-.53.22s-.384-.073-.53-.22c-.293-.293-.293-.768 0-1.06L10.94 12 8.144 9.205c-.293-.293-.293-.768 0-1.06s.768-.294 1.06 0L12 10.938l2.795-2.796c.293-.293.768-.293 1.06 0s.294.768 0 1.06L13.062 12l2.795 2.795z"/>
</svg>
