<svg xmlns="http://www.w3.org/2000/svg" width="24" height="24" viewBox="0 0 24 24">
    <path id="bounds" opacity="0" d="M0 0h24v24H0z"/>
    <path d="M20.142 11.057s-.553-.174-1.153-.174c-2.223 0-4.14 1.508-4.66 3.666-.097.405-.506.656-.912.557-.406-.097-.656-.506-.558-.91.684-2.842 3.204-4.826 6.13-4.826.418 0 .827.044 1.223.123-.045-.53-.14-.992-.16-1.084-.743-3.25-3.65-5.68-7.12-5.68-3.673 0-6.713 2.727-7.224 6.26-.006 0-.09.645-.09.976 0 .44.04.88.118 1.31.074.412-.2.805-.61.88-.045.008-.09.012-.135.012-.36 0-.677-.257-.743-.622-.094-.518-.14-1.05-.14-1.58 0-.232.016-.46.034-.688-2.27.75-3.91 2.885-3.91 5.403 0 3.145 2.557 5.702 5.7 5.702h13.058c2.614 0 4.74-2.126 4.74-4.74 0-2.218-1.533-4.068-3.59-4.585z"/>
</svg>
