<svg xmlns="http://www.w3.org/2000/svg" width="24" height="24" viewBox="0 0 24 24">
    <path id="bounds" opacity="0" d="M0 0h24v24H0z"/>
    <path d="M20.177 11.067c.03-.306.065-.772.065-1.03 0-4.03-3.278-7.31-7.31-7.31-3.673 0-6.714 2.727-7.225 6.262-3.04.118-5.475 2.62-5.475 5.69 0 3.143 2.557 5.7 5.7 5.7h13.06c2.613 0 4.74-2.127 4.74-4.74 0-2.203-1.516-4.043-3.555-4.573zM18.99 18.88H5.934c-2.316 0-4.2-1.884-4.2-4.2 0-2.218 1.732-4.02 3.913-4.172.018.282.046.564.096.84.066.36.382.614.737.614.044 0 .09-.004.135-.012.407-.074.678-.465.604-.873-.063-.34-.095-.69-.095-1.04 0-3.204 2.606-5.81 5.81-5.81s5.81 2.605 5.81 5.81c0 .212-.033.626-.06.887-2.066.133-3.812 1.568-4.302 3.603-.097.402.15.808.555.904.396.094.807-.15.904-.554.35-1.46 1.646-2.48 3.15-2.48 1.787 0 3.24 1.455 3.24 3.242s-1.454 3.242-3.24 3.242z"/>
</svg>
