<svg xmlns="http://www.w3.org/2000/svg" width="24" height="24" viewBox="0 0 24 24">
    <path id="bounds" opacity="0" d="M0 0h24v24H0z"/>
    <path d="M12.87 22H4.13C2.955 22 2 21.045 2 19.87v-8.74C2 9.955 2.955 9 4.13 9h8.74c1.175 0 2.13.955 2.13 2.13v8.74c0 1.175-.955 2.13-2.13 2.13zM4.13 10.5c-.348 0-.63.282-.63.63v8.74c0 .348.282.63.63.63h8.74c.348 0 .63-.282.63-.63v-8.74c0-.348-.282-.63-.63-.63H4.13z"/>
    <path d="M17.75 18.5c-.414 0-.75-.336-.75-.75v-10c0-.413-.337-.75-.75-.75h-10c-.414 0-.75-.336-.75-.75s.336-.75.75-.75h10c1.24 0 2.25 1.01 2.25 2.25v10c0 .414-.336.75-.75.75z"/>
    <path d="M21.25 15c-.414 0-.75-.336-.75-.75v-10c0-.413-.337-.75-.75-.75h-10c-.414 0-.75-.336-.75-.75S9.336 2 9.75 2h10C20.99 2 22 3.01 22 4.25v10c0 .414-.336.75-.75.75z"/>
</svg>
