<?xml version="1.0" encoding="utf-8"?>
<svg xmlns="http://www.w3.org/2000/svg" width="24" height="24" viewBox="0 0 24 24" class="mySvg" focusable="false">
    <path d="M9.5 2.5C4.391 2.5.25 6.641.25 11.75S4.391 21 9.5 21s9.25-4.141 9.25-9.25c-.005-5.106-4.144-9.245-9.25-9.25zM5.663 18.474c1.599-2.119 4.613-2.541 6.732-.943.356.269.674.586.943.943-2.375 1.369-5.3 1.369-7.675 0zm9.703-1.673c-.249.289-.52.56-.809.809-2.069-2.793-6.01-3.38-8.802-1.312-.5.37-.942.812-1.312 1.312-3.24-2.793-3.602-7.683-.809-10.923 2.793-3.24 7.683-3.602 10.923-.809s3.602 7.683.809 10.923z"/>
    <path d="M9.5 6.682c-1.794 0-2.981 1.168-3.259 3.208-.4 3.051.736 3.995 3.259 3.995 2.5 0 3.664-.927 3.258-4-.27-2.005-1.487-3.203-3.258-3.203zm1.593 5.368h-.002c-.2.225-.717.335-1.591.335s-1.4-.11-1.592-.335c-.115-.132-.362-.586-.181-1.961.26-1.907 1.4-1.907 1.773-1.907s1.514 0 1.771 1.9c.185 1.382-.062 1.836-.178 1.968z"/>
    <path d="M18.291 3.311c-.377-.17-.821-.001-.991.376-.17.378-.001.821.376.991 1.719.777 3.095 2.154 3.873 3.873 1.767 3.906.033 8.504-3.873 10.271-.352.174-.51.59-.362.954.156.384.593.569.977.413h.001c2.051-.928 3.694-2.571 4.622-4.622 2.108-4.661.038-10.148-4.623-12.256z"/>
</svg>
