<?xml version="1.0" encoding="utf-8"?>
<svg xmlns="http://www.w3.org/2000/svg" width="24" height="24" viewBox="0 0 24 24" class="mySvg" focusable="false">
    <path d="M9.5 2.5C4.391 2.5.25 6.641.25 11.75S4.391 21 9.5 21s9.25-4.141 9.25-9.25c-.005-5.106-4.144-9.245-9.25-9.25zM6.987 9.987C6.993 8.595 8.108 7.461 9.5 7.431c1.393.029 2.509 1.163 2.515 2.556.34 2.573-.416 3.147-2.515 3.147-2.075 0-2.856-.553-2.513-3.147zm-1.949 7.466c2.174-2.464 5.934-2.7 8.398-.526.186.164.362.34.526.526-2.617 2.063-6.307 2.063-8.924 0z"/>
    <path d="M18.245 3.292c-.505-.224-1.096.003-1.32.508-.224.505.003 1.096.508 1.32 1.64.729 2.952 2.041 3.682 3.682 1.628 3.662-.02 7.95-3.682 9.578-.362.161-.595.519-.594.915.001.552.449.999 1.001.999.14 0 .278-.029.405-.086 2.091-.931 3.763-2.603 4.693-4.693 2.08-4.672-.022-10.144-4.693-12.223z"/>
</svg>
