<svg xmlns="http://www.w3.org/2000/svg" width="24" height="24" viewBox="0 0 24 24">
    <path id="bounds" opacity="0" d="M0 0h24v24H0z"/>
    <path fill="#1DA1F2" d="M2.49 8.91c.652-2.008 1.923-3.76 3.632-5S9.888 2 12 2v10L2.49 8.91z"/>
    <path fill="#17BF63" d="M12 2c2.112 0 4.17.67 5.878 1.91 1.708 1.24 2.98 2.992 3.633 5L12 12V2z"/>
    <path fill="#F45D22" d="M21.51 8.91c.654 2.008.654 4.172 0 6.18-.652 2.008-1.923 3.76-3.632 5L12 12l9.51-3.09z"/>
    <path fill="#E0245E" d="M17.878 20.09C16.168 21.332 14.112 22 12 22s-4.17-.67-5.878-1.91L12 12l5.878 8.09z"/>
    <path fill="#794BC4" d="M6.122 20.09c-1.708-1.24-2.98-2.992-3.633-5-.654-2.008-.654-4.172 0-6.18L12 12l-5.878 8.09z"/>
    <path d="M12 22.75C6.072 22.75 1.25 17.928 1.25 12S6.072 1.25 12 1.25 22.75 6.072 22.75 12 17.928 22.75 12 22.75zm0-20C6.9 2.75 2.75 6.9 2.75 12S6.9 21.25 12 21.25s9.25-4.15 9.25-9.25S17.1 2.75 12 2.75z"/>
</svg>
