<svg xmlns="http://www.w3.org/2000/svg" width="24" height="24" viewBox="0 0 24 24">
    <path id="bounds" opacity="0" d="M0 0h24v24H0z"/>
    <circle opacity=".5" fill="#010101" cx="12" cy="12" r="7.7"/>
    <path fill="#1AB0AB" d="M12 12L8.15 5.332C9.376 4.624 10.584 4.3 12 4.3V12z"/>
    <path fill="#1DA1F2" d="M12 12L5.332 8.15C6.04 6.924 6.924 6.04 8.15 5.332L12 12z"/>
    <path fill="#4B76DB" d="M12 12H4.3c0-1.416.324-2.624 1.032-3.85L12 12z"/>
    <path fill="#794BC4" d="M12 12l-6.668 3.85C4.624 14.624 4.3 13.416 4.3 12H12z"/>
    <path fill="#AD3891" d="M12 12l-3.85 6.668c-1.226-.708-2.11-1.592-2.818-2.818L12 12z"/>
    <path fill="#E0245E" d="M12 12v7.7c-1.416 0-2.624-.324-3.85-1.032L12 12z"/>
    <path fill="#EA4140" d="M12 12l3.85 6.668c-1.226.708-2.434 1.032-3.85 1.032V12z"/>
    <path fill="#F45D22" d="M12 12l6.668 3.85c-.708 1.226-1.592 2.11-2.818 2.818L12 12z"/>
    <path fill="#FA8521" d="M12 12h7.7c0 1.416-.324 2.624-1.032 3.85L12 12z"/>
    <path fill="#FFAD1F" d="M12 12l6.668-3.85C19.376 9.376 19.7 10.584 19.7 12H12z"/>
    <path fill="#8BB641" d="M12 12l3.85-6.668c1.226.708 2.11 1.592 2.818 2.818L12 12z"/>
    <path fill="#17BF63" d="M12 12V4.3c1.416 0 2.624.324 3.85 1.032L12 12z"/>
    <path fill="#ffffff" d="M12 22.75C6.072 22.75 1.25 17.928 1.25 12S6.072 1.25 12 1.25 22.75 6.072 22.75 12 17.928 22.75 12 22.75zm0-20C6.9 2.75 2.75 6.9 2.75 12S6.9 21.25 12 21.25s9.25-4.15 9.25-9.25S17.1 2.75 12 2.75z"/>
</svg>
