<?xml version="1.0" encoding="UTF-8"?>
<svg xmlns="http://www.w3.org/2000/svg" width="24" height="24" viewBox="0 0 24 24">
    <path d="M12.816 18.5h-5.93c-.171 0-.334-.074-.446-.204-.058-.067-.15-.207-.122-.398.359-2.449 1.688-4.575 3.495-5.672.792.463 1.702.748 2.684.748s1.896-.286 2.69-.751c.643.39 1.23.904 1.743 1.549.148.187.367.283.588.283.163 0 .328-.053.466-.163.324-.258.378-.73.12-1.054-.503-.632-1.069-1.161-1.684-1.599.885-.957 1.438-2.225 1.438-3.627 0-2.956-2.405-5.361-5.361-5.361-1.099 0-2.121.335-2.972.904-.683-.439-1.477-.685-2.298-.685-2.351 0-4.263 1.913-4.263 4.263 0 .869.264 1.677.713 2.352-1.381 1.148-2.39 2.935-2.756 4.943-.111.614.053 1.239.451 1.717.394.471.972.742 1.585.742h2.126c-.104.39-.19.788-.25 1.194-.083.572.089 1.153.472 1.597.397.459.974.723 1.581.723h5.931c.414 0 .75-.336.75-.75s-.336-.75-.75-.75Zm3.541-10.889c0 2.129-1.732 3.862-3.861 3.862S8.635 9.741 8.635 7.611s1.732-3.861 3.861-3.861 3.861 1.732 3.861 3.861ZM7.226 3.97c.4 0 .787.096 1.145.26-.76.926-1.236 2.093-1.236 3.382 0 .657.135 1.279.352 1.86-.087.008-.173.025-.261.025-1.523 0-2.763-1.24-2.763-2.764S5.702 3.97 7.226 3.97Zm-4.27 11.016c-.229 0-.37-.127-.433-.203-.113-.135-.159-.312-.127-.487.311-1.711 1.167-3.213 2.327-4.129.705.515 1.565.829 2.503.829.352 0 .695-.058 1.031-.141.1.13.202.259.313.379-1.256.897-2.272 2.215-2.948 3.752H2.956ZM24 19c0 .414-.336.75-.75.75h-5.689l1.72 1.72c.293.293.293.768 0 1.061-.146.146-.338.22-.53.22s-.384-.073-.53-.22l-3-3c-.136-.136-.22-.323-.22-.53s.084-.395.22-.53l3-3c.293-.293.768-.293 1.061 0s.293.768 0 1.061l-1.72 1.72h5.689c.414 0 .75.336.75.75Z"/>
</svg>
