<svg xmlns="http://www.w3.org/2000/svg" width="24" height="24" viewBox="0 0 24 24">
    <path id="bounds" opacity="0" d="M0 0h24v24H0z"/>
    <path d="M18.2 12.7c-.5-.6-1.1-1.1-1.7-1.6 2-2.2 1.9-5.5-.3-7.6-1.9-1.5-4.6-1.7-6.7-.3-2-1.3-4.6-.7-5.9 1.3-.9 1.4-.9 3.2 0 4.6-1.5 1.3-2.4 3-2.8 4.9-.1.6.1 1.2.5 1.7s1 .7 1.6.7H5c-.1.4-.2.8-.2 1.2-.1.6.1 1.2.5 1.6.4.5 1 .7 1.6.7h5.9c.4 0 .8-.3.8-.8s-.4-.6-.8-.6H6.9c-.2 0-.3-.1-.4-.2-.1-.1-.1-.3-.1-.4.3-2.3 1.6-4.4 3.5-5.7 1.7 1 3.7 1 5.4 0 .7.4 1.3.9 1.7 1.5.3.3.7.4 1.1.1.3-.3.4-.7.1-1.1zM7.2 4c.4 0 .8.1 1.2.2-1.3 1.5-1.6 3.5-.9 5.3h-.3c-1.5 0-2.7-1.3-2.7-2.8S5.7 4 7.2 4zM5.7 15.1L3 15c-.2 0-.3-.1-.4-.2-.1-.1-.2-.3-.1-.5.3-1.6 1.1-3.1 2.3-4.1 1 .8 2.3 1 3.5.7.1.1.2.3.3.4-1.3 1-2.3 2.3-2.9 3.8zm6.8-3.6c-2.2 0-3.9-1.8-3.9-3.9 0-2.1 1.7-3.9 3.9-3.9 2.1.1 3.9 1.8 3.9 3.9 0 2.1-1.7 3.9-3.9 3.9z"/>
    <path d="M23.4 19.2c0 .4-.3.7-.8.8H20v2.7c0 .4-.3.8-.8.8s-.8-.3-.8-.8V20h-2.7c-.4 0-.8-.3-.8-.8s.3-.8.8-.8h2.7v-2.7c0-.4.3-.8.8-.8s.8.3.8.8v2.7h2.7c.4.1.7.4.7.8z"/>
</svg>
