<svg xmlns="http://www.w3.org/2000/svg" width="24" height="24">
    <path id="bounds" opacity="0" d="M0 0h24v24H0z"/>
    <path d="M9.273 12.148l-.502.387c-1.804 1.27-3.107 3.099-3.769 5.155H3.286c-1.419 0-2.549-1.325-2.232-2.735.405-1.805 1.467-3.43 3.031-4.55.961.764 2.178 1.227 3.502 1.227.203 0 .406-.011.598-.032.203-.021.395-.054.587-.097.149.225.319.44.501.645z"/>
    <path d="M7.511 7.477c0 .882.16 1.733.459 2.518-.128.011-.256.022-.384.022-.779 0-1.516-.226-2.135-.624-.246-.151-.48-.323-.683-.527-.192-.194-.363-.398-.523-.624-.427-.646-.673-1.41-.673-2.238C3.572 3.797 5.376 2 7.586 2c.705 0 1.377.183 1.964.517-1.27 1.269-2.039 3.023-2.039 4.96z"/>
    <path d="M20.723 22H8.521c-1.371 0-2.481-1.233-2.259-2.62.363-2.22 1.603-4.244 3.489-5.58l.776-.606c1.15.843 2.551 1.336 4.084 1.336h.01c1.533 0 2.934-.493 4.084-1.336l.787.606c1.876 1.336 3.116 3.36 3.479 5.58.222 1.387-.877 2.62-2.248 2.62z"/>
    <path d="M20.077 7.477c0 1.528-.63 2.916-1.655 3.906-.278.28-.598.527-.939.732h-.011c-.577.366-1.206.624-1.9.753-.32.054-.651.086-.982.086-.459 0-.907-.054-1.334-.172-.673-.161-1.292-.452-1.836-.839-.278-.204-.534-.43-.769-.678-.48-.495-.875-1.087-1.132-1.743-.267-.624-.406-1.323-.406-2.045 0-1.539.63-2.927 1.655-3.917C11.75 2.592 13.106 2 14.59 2c3.021 0 5.487 2.454 5.487 5.477z"/>
</svg>
