<svg xmlns="http://www.w3.org/2000/svg" width="24" height="24">
    <path id="bounds" opacity="0" d="M0 0h24v24H0z"/>
    <path d="M19.374 12.515l-.49-.38c.95-1.07 1.51-2.48 1.51-4 0-3.36-2.75-6.11-6.14-6.11-1.18 0-2.29.34-3.22.91-.81-.57-1.78-.91-2.84-.91-2.69 0-4.88 2.18-4.88 4.85 0 1.02.31 1.97.86 2.75-2 1.5-3.2 3.86-3.2 6.36 0 1.28 1.06 2.33 2.34 2.33h2.3c-.06.4-.09.81-.09 1.23 0 1.37 1.12 2.49 2.49 2.49h12.47c.69 0 1.31-.28 1.76-.73.46-.45.73-1.08.73-1.77 0-2.79-1.35-5.42-3.6-7.02zm-7.27-8.53c.65-.33 1.38-.52 2.15-.52 2.59 0 4.71 2.1 4.71 4.67 0 1.3-.54 2.48-1.41 3.33-.26.25-.55.48-.85.65h-.01c-.19.12-.38.22-.58.3-.41.19-.85.32-1.3.36-.04.01-.09.01-.13.01-.14.02-.28.03-.43.03-.31 0-.6-.03-.89-.08-.67-.13-1.28-.4-1.82-.77-.25-.17-.48-.37-.7-.59-.08-.09-.17-.18-.24-.28-.31-.37-.56-.79-.74-1.24-.21-.54-.33-1.11-.33-1.72 0-1.29.54-2.46 1.4-3.32.35-.33.74-.62 1.17-.83zm-3.91-.52c.6 0 1.16.15 1.65.42-1.08 1.1-1.74 2.6-1.74 4.25 0 .75.13 1.47.39 2.14-.1.02-.2.02-.3.02-.65 0-1.25-.18-1.76-.49-.24-.14-.46-.31-.65-.5-.18-.16-.33-.35-.46-.55-.37-.54-.58-1.19-.58-1.88 0-1.87 1.55-3.41 3.45-3.41zm-2.25 13.42h-2.63c-.5 0-.9-.41-.9-.91 0-2.1 1.02-4.07 2.75-5.3.84.66 1.88 1.05 3.03 1.05.35 0 .69-.04 1.02-.11.11.18.26.35.4.52l-.41.32c-1.56 1.1-2.69 2.66-3.26 4.43zm14.54 3.72H8.014c-.58 0-1.06-.48-1.06-1.07 0-.42.04-.82.11-1.22.08-.5.22-.97.41-1.43.51-1.29 1.39-2.44 2.57-3.27l.65-.5c1.01.72 2.24 1.14 3.56 1.14.34 0 .68-.03 1-.09.49-.08.95-.21 1.39-.39.41-.18.81-.4 1.17-.66l.7.54c1.9 1.36 3.03 3.55 3.03 5.88 0 .59-.47 1.07-1.06 1.07z"/>
</svg>
