<svg xmlns="http://www.w3.org/2000/svg" width="24" height="24" viewBox="0 0 24 24">
    <path id="bounds" opacity="0" d="M0 0h24v24H0z"/>
    <path d="M23.25 3.25h-2.425V.825c0-.414-.336-.75-.75-.75s-.75.336-.75.75V3.25H16.9c-.414 0-.75.336-.75.75s.336.75.75.75h2.425v2.425c0 .414.336.75.75.75s.75-.336.75-.75V4.75h2.425c.414 0 .75-.336.75-.75s-.336-.75-.75-.75zM18.575 22H4.25C3.01 22 2 20.99 2 19.75V5.5c0-1.24 1.01-2.25 2.25-2.25h8.947c.414 0 .75.336.75.75s-.336.75-.75.75H4.25c-.413 0-.75.336-.75.75v14.25c0 .414.337.75.75.75h14.325c.413 0 .75-.336.75-.75v-8.872c0-.414.336-.75.75-.75s.75.336.75.75v8.872c0 1.24-1.01 2.25-2.25 2.25z"/>
    <path d="M16.078 9.583H6.673c-.414 0-.75-.336-.75-.75s.336-.75.75-.75h9.405c.414 0 .75.336.75.75s-.336.75-.75.75zM16.078 13.45H6.673c-.414 0-.75-.337-.75-.75s.336-.75.75-.75h9.405c.414 0 .75.335.75.75s-.336.75-.75.75zM11.375 17.316H6.673c-.414 0-.75-.336-.75-.75s.336-.75.75-.75h4.702c.414 0 .75.336.75.75s-.336.75-.75.75z"/>
</svg>
