<svg xmlns="http://www.w3.org/2000/svg" width="24" height="24" viewBox="0 0 24 24">
    <path id="bounds" opacity="0" d="M0 0h24v24H0z"/>
    <path d="M21 16.25H4.81l3.22-3.22c.294-.293.294-.768 0-1.06s-.767-.294-1.06 0l-4.5 4.5c-.293.292-.293.767 0 1.06l4.5 4.5c.146.146.338.22.53.22s.384-.073.53-.22c.293-.293.293-.768 0-1.06l-3.22-3.22H21c.414 0 .75-.337.75-.75s-.336-.75-.75-.75zM3 7.75h16.19l-3.22 3.22c-.294.293-.294.768 0 1.06.145.147.337.22.53.22s.383-.072.53-.22l4.5-4.5c.292-.292.292-.767 0-1.06l-4.5-4.5c-.294-.293-.77-.293-1.062 0s-.293.768 0 1.06l3.22 3.22H3c-.414 0-.75.336-.75.75s.336.75.75.75z"/>
</svg>
