<svg width="28" height="48" viewBox="0 0 28 48" fill="none" xmlns="http://www.w3.org/2000/svg">
<path d="M14 7C14 10.866 10.866 14 7 14C3.13401 14 0 10.866 0 7C0 3.13401 3.13401 0 7 0C10.866 0 14 3.13401 14 7Z" fill="#1DA1F2"/>
<path d="M28 30C28 32.2091 26.2091 34 24 34C21.7909 34 20 32.2091 20 30C20 27.7909 21.7909 26 24 26C26.2091 26 28 27.7909 28 30Z" fill="#FFAD1F"/>
<path d="M28 44C28 46.2091 26.2091 48 24 48C21.7909 48 20 46.2091 20 44C20 41.7909 21.7909 40 24 40C26.2091 40 28 41.7909 28 44Z" fill="#F45D22"/>
<path fill-rule="evenodd" clip-rule="evenodd" d="M8 16C8 15.4477 7.55228 15 7 15C6.44772 15 6 15.4477 6 16V24C6 24.5031 6.05307 24.9937 6.15391 25.4667C6.05642 25.6211 6 25.8039 6 26V38C6 41.866 9.13401 45 13 45H18C18.5523 45 19 44.5523 19 44C19 43.4477 18.5523 43 18 43H13C10.2386 43 8 40.7614 8 38V28.899C9.27052 30.1955 11.0413 31 13 31H18C18.5523 31 19 30.5523 19 30C19 29.4477 18.5523 29 18 29H13C10.2386 29 8 26.7614 8 24V16Z" fill="#CCD6DD"/>
</svg>

