<svg width="24" height="24" viewBox="0 0 24 24" fill="none" xmlns="http://www.w3.org/2000/svg">
<path fill-rule="evenodd" clip-rule="evenodd" d="M4.25 5.55005H19.75C20.99 5.55005 22 6.56006 22 7.80005V18.3C22 19.54 20.99 20.55 19.75 20.55H4.25C3.01001 20.55 2 19.54 2 18.3V7.80005C2 6.56006 3.01001 5.55005 4.25 5.55005ZM13.3159 13.55H16.8159C17.23 13.55 17.5659 13.886 17.5659 14.3C17.5659 14.7141 17.23 15.05 16.8159 15.05H13.3159C12.9019 15.05 12.5659 14.7141 12.5659 14.3C12.5659 13.886 12.9019 13.55 13.3159 13.55ZM4.25 7.05005H19.75C20.1631 7.05005 20.5 7.38696 20.5 7.80005V9.19995H3.5V7.80005C3.5 7.38696 3.83691 7.05005 4.25 7.05005ZM4.25 19.05H19.75C20.1631 19.05 20.5 18.7129 20.5 18.3V12.2H3.5V18.3C3.5 18.7129 3.83691 19.05 4.25 19.05Z" fill="#0F1419"/>
</svg>
