<svg xmlns="http://www.w3.org/2000/svg" width="24" height="24">
    <path id="bounds" opacity="0" d="M0 0h24v24H0z"/>
    <path d="M20.333 4.6H3.667c-.937.045-1.663.838-1.623 1.776v11.247c-.04.938.685 1.732 1.623 1.777h16.666c.936-.045 1.66-.836 1.623-1.772V6.378c.04-.94-.685-1.733-1.623-1.778zM3.443 17.624V6.368c0-.09.025-.18.072-.257l.013-.017c.03-.05.08-.084.14-.093H8.18v12H3.668c-.093 0-.224-.144-.224-.376zm6.2.38V6h4.71v12l-4.71.004zM20.557 6.376v11.256c0 .09-.025.18-.072.257l-.013.017c-.03.052-.08.09-.137.1H15.82V6h4.513c.093 0 .224.144.224.376z"/>
</svg>
