<svg xmlns="http://www.w3.org/2000/svg" width="24" height="24" viewBox="0 0 24 24">
    <path id="bounds" opacity="0" d="M0 0h24v24H0z"/>
    <path d="M17.46 16.272c-.142 0-.284-.04-.41-.123-.347-.23-.443-.694-.216-1.04.512-.777.974-1.695.895-3.136-.08-1.44-.64-2.303-1.23-3.02-.265-.32-.22-.793.1-1.057.317-.263.79-.22 1.056.1.678.82 1.47 2.006 1.572 3.895.104 1.89-.555 3.153-1.14 4.042-.144.22-.384.338-.628.338z"/>
    <path d="M20.077 18.102c-.142 0-.284-.04-.41-.123-.347-.23-.443-.694-.216-1.04.775-1.178 1.55-2.692 1.424-5s-1.06-3.73-1.958-4.817c-.264-.32-.22-.792.1-1.056.318-.264.792-.22 1.057.1 1.054 1.276 2.15 2.95 2.3 5.69.15 2.744-.76 4.525-1.667 5.907-.145.22-.385.338-.63.338z"/>
	<path d="M12.862 2h-9c-1.24 0-2.25 1.01-2.25 2.25v15.5c0 1.24 1.01 2.25 2.25 2.25h9c1.24 0 2.25-1.01 2.25-2.25V4.25c0-1.24-1.01-2.25-2.25-2.25zm.75 17.75c0 .41-.34.75-.75.75h-9c-.41 0-.75-.34-.75-.75v-2.14h10.5v2.14zm0-3.64h-10.5V4.25c0-.41.34-.75.75-.75h9c.41 0 .75.34.75.75v11.86z"/>
	<path d="M8.946 19.822H7.78c-.415 0-.75-.336-.75-.75s.335-.75.75-.75h1.166c.414 0 .75.336.75.75s-.335.75-.75.75z"/>
</svg>
