<svg xmlns="http://www.w3.org/2000/svg" width="24" height="24" viewBox="0 0 24 24">
    <path id="bounds" opacity="0" d="M0 0h24v24H0z"/>
    <path d="M16.5 2h-9C6.26 2 5.25 3.01 5.25 4.25v15.5C5.25 20.99 6.26 22 7.5 22h9c1.24 0 2.25-1.01 2.25-2.25V4.25C18.75 3.01 17.74 2 16.5 2zm-9 1.5h9c.413 0 .75.337.75.75v11.865H6.75V4.25c0-.413.337-.75.75-.75zm9 17h-9c-.413 0-.75-.337-.75-.75v-2.135h10.5v2.135c0 .413-.337.75-.75.75z"/>
    <path d="M12.583 18.322h-1.166c-.414 0-.75.336-.75.75s.336.75.75.75h1.166c.414 0 .75-.336.75-.75s-.336-.75-.75-.75z"/>
</svg>
