<svg xmlns="http://www.w3.org/2000/svg" width="24" height="24" viewBox="0 0 24 24">
    <path id="bounds" opacity="0" d="M0 0h24v24H0z"/>
    <path d="M7.3 11.8H1.5c-.4 0-.8-.3-.8-.8s.3-.8.8-.8h5.9c.4 0 .8.3.8.8s-.4.8-.9.8zM5.5 15.7h-4c-.4 0-.8-.3-.8-.8s.3-.8.8-.8h4c.4 0 .8.3.8.8s-.3.8-.8.8zM10 7.8H1.5c-.4 0-.8-.4-.8-.8s.3-.8.8-.8H10c.4 0 .8.3.8.8s-.4.8-.8.8zM23.8 2.3v-.1h-.1c-.1 0-9.2 1.2-14.4 11.7-3.8 7.6-3.6 9.9-3.3 9.9.3.1 3.4-6.5 6.7-9.2 5.2-1.1 6.6-3.6 6.6-3.6s-1.5.2-2.1.2c-.8 0-1.4-.2-1.7-.3 1.3-1.2 2.4-1.5 3.5-1.7.9-.2 1.8-.4 3-1.2 2.2-1.6 1.9-5.5 1.8-5.7z"/>
</svg>
