<svg xmlns="http://www.w3.org/2000/svg" width="24" height="24" viewBox="0 0 24 24">
    <path id="bounds" opacity="0" d="M0 0h24v24H0z"/>
    <path d="M12 1.25C6.07 1.25 1.25 6.07 1.25 12S6.07 22.75 12 22.75 22.75 17.93 22.75 12 17.93 1.25 12 1.25zm0 20c-5.1 0-9.25-4.15-9.25-9.25S6.9 2.75 12 2.75 21.25 6.9 21.25 12 17.1 21.25 12 21.25z"/>
    <path d="M13.37 16.19c0 .76-.61 1.37-1.37 1.37s-1.38-.61-1.38-1.37.62-1.38 1.38-1.38 1.37.62 1.37 1.38z"/>
    <path d="M13.72 8.53l-.93 4.39c-.07.38-.4.64-.79.64s-.71-.26-.8-.64l-.93-4.39c-.1-.52.03-1.06.36-1.47.67-.83 2.07-.83 2.74 0 .33.41.46.95.35 1.47z"/>
</svg>
