<svg xmlns="http://www.w3.org/2000/svg" width="24" height="24" viewBox="0 0 24 24">
    <path id="bounds" opacity="0" d="M0 0h24v24H0z"/>
    <circle fill="#FFFFFF" cx="12" cy="12" r="10"/>
    <path d="M12 1.25C6.07 1.25 1.25 6.07 1.25 12S6.07 22.75 12 22.75 22.75 17.93 22.75 12 17.93 1.25 12 1.25zm0 16.31c-.76 0-1.38-.61-1.38-1.37s.62-1.38 1.38-1.38 1.37.62 1.37 1.38-.61 1.37-1.37 1.37zm1.72-9.03l-.93 4.39c-.07.38-.4.64-.78.64-.39 0-.72-.26-.8-.64l-.93-4.39c-.11-.52.02-1.06.35-1.47.67-.83 2.07-.83 2.74 0 .33.41.46.95.35 1.47z"/>
</svg>
