<svg xmlns="http://www.w3.org/2000/svg" width="24" height="24" viewBox="0 0 24 24">
    <path id="bounds" opacity="0" d="M0 0h24v24H0z"/>
    <path d="M15.692 11.6l-5.14-5.14c-.292-.29-.767-.29-1.06 0s-.293.77 0 1.063l3.858 3.858H2.83c-.415 0-.75.337-.75.75s.335.75.75.75h10.52l-3.857 3.86c-.292.292-.292.767 0 1.06.147.146.34.22.53.22s.385-.073.53-.22l5.14-5.14c.293-.292.293-.766 0-1.06z"/>
    <path d="M19.788 2.13H7.372c-1.264 0-2.292 1.03-2.292 2.293V7.38c0 .415.336.75.75.75s.75-.335.75-.75V4.424c0-.437.355-.792.792-.792h12.416c.437 0 .792.356.792.793V19.84c0 .436-.355.79-.792.79H7.372c-.437 0-.792-.354-.792-.79v-2.96c0-.413-.336-.75-.75-.75s-.75.337-.75.75v2.96c0 1.263 1.028 2.29 2.292 2.29h12.416c1.264 0 2.292-1.027 2.292-2.29V4.422c0-1.264-1.028-2.292-2.292-2.292z"/>
</svg>
