<svg xmlns="http://www.w3.org/2000/svg" width="24" height="24" viewBox="0 0 24 24">
    <path id="bounds" opacity="0" d="M0 0h24v24H0z"/>
    <path d="M14.548 11.634c-1.207 0-2.188-.98-2.188-2.188 0-.664.302-1.25.77-1.653-.363-.097-.736-.165-1.13-.165-2.416 0-4.375 1.96-4.375 4.376S9.585 16.38 12 16.38c2.418 0 4.377-1.96 4.377-4.376 0-.4-.07-.78-.17-1.146-.402.47-.992.776-1.66.776z"/>
    <path d="M12 19.79c-7.228 0-10.12-6.724-10.24-7.01-.254-.466-.254-1.105.035-1.642C1.88 10.923 4.772 4.2 12 4.2s10.12 6.723 10.24 7.01c.254.465.254 1.104-.035 1.64-.085.216-2.977 6.94-10.205 6.94zm0-14c-6.154 0-8.668 5.787-8.772 6.033-.068.135-.068.208-.033.273.137.316 2.65 6.104 8.805 6.104 6.18 0 8.747-5.973 8.772-6.033.07-.136.07-.21.034-.274-.138-.316-2.652-6.103-8.806-6.103z"/>
</svg>
