<svg xmlns="http://www.w3.org/2000/svg" width="24" height="24" viewBox="0 0 24 24">
    <path id="bounds" opacity="0" d="M0 0h24v24H0z"/>
    <path d="M7.625 12.004c0 .15.03.292.044.438l4.777-4.778c-.147-.018-.294-.036-.447-.036-2.416 0-4.375 1.96-4.375 4.376zM16.377 12.004c0-.156-.018-.306-.037-.456l-4.786 4.787c.15.015.293.045.446.045 2.418 0 4.377-1.96 4.377-4.376z"/>
    <path d="M20.806 11.893c.036.064.036.138-.034.274-.025.06-2.592 6.033-8.772 6.033-.745 0-1.433-.088-2.073-.237l-1.284 1.284c.998.333 2.108.543 3.357.543 7.228 0 10.12-6.724 10.205-6.94.29-.536.29-1.175.035-1.64-.057-.136-.747-1.72-2.216-3.346L18.897 8.99c1.246 1.397 1.844 2.755 1.91 2.903zM3.19 12.096c-.035-.065-.035-.138.033-.273.104-.246 2.618-6.033 8.772-6.033.748 0 1.44.088 2.082.24l1.283-1.284c-1-.335-2.113-.546-3.365-.546-7.228 0-10.12 6.723-10.205 6.938-.29.537-.29 1.176-.035 1.642.057.136.748 1.722 2.22 3.35l1.128-1.126c-1.25-1.398-1.848-2.76-1.913-2.908zM2.412 22.338c-.192 0-.384-.073-.53-.22-.293-.293-.293-.768 0-1.06L21.058 1.882c.293-.294.768-.294 1.06 0s.294.767 0 1.06L2.942 22.12c-.146.145-.338.22-.53.218z"/>
</svg>
