<svg xmlns="http://www.w3.org/2000/svg" width="24" height="24" viewBox="0 0 24 24">
    <path id="bounds" opacity="0" d="M0 0h24v24H0z"/>
    <path d="M20.13 10.54v6.96c0 1.18-.96 2.14-2.14 2.14h-4.21l-2.39 3.19c-.14.19-.36.3-.6.3-.23 0-.46-.11-.6-.3L7.8 19.64H3.6c-1.18 0-2.14-.96-2.14-2.14V5.43c0-1.18.96-2.14 2.14-2.14h9.13c.42 0 .75.33.75.75 0 .41-.33.75-.75.75H3.6c-.36 0-.64.29-.64.64V17.5c0 .36.28.64.64.64h4.58c.15 0 .31.05.44.15.03.01.05.03.07.06.04.02.06.06.09.09l.02.03 1.99 2.66 2.01-2.69c.15-.18.37-.3.6-.3h4.59c.35 0 .64-.28.64-.64v-6.96c0-.42.34-.75.75-.75s.75.33.75.75z"/>
    <path d="M7.39 11.7c0 .7-.57 1.27-1.27 1.27-.71 0-1.28-.57-1.28-1.27 0-.71.57-1.28 1.28-1.28.7 0 1.27.57 1.27 1.28zM11.9 11.7c0 .7-.58 1.27-1.28 1.27-.71 0-1.28-.57-1.28-1.27 0-.71.57-1.28 1.28-1.28.7 0 1.28.57 1.28 1.28zM16.4 11.7c0 .7-.57 1.27-1.28 1.27-.7 0-1.27-.57-1.27-1.27 0-.71.57-1.28 1.27-1.28.71 0 1.28.57 1.28 1.28z"/>
	<path d="M22.33 5.92c.29.29.29.77 0 1.06-.15.15-.34.22-.54.22-.19 0-.38-.07-.53-.22L19.38 5.1 17.5 6.98c-.15.15-.34.22-.53.22-.2 0-.39-.07-.53-.22-.3-.29-.3-.77 0-1.06l1.88-1.88-1.88-1.89c-.3-.29-.3-.76 0-1.06.29-.29.76-.29 1.06 0l1.88 1.88 1.88-1.88c.3-.29.77-.29 1.07 0 .29.3.29.77 0 1.06l-1.88 1.89 1.88 1.88z"/>
</svg>
