<svg xmlns="http://www.w3.org/2000/svg" width="24" height="24" viewBox="0 0 24 24">
    <path id="bounds" opacity="0" d="M0 0h24v24H0z"/>
    <path d="M19.75 2H4.25C3.01 2 2 3.01 2 4.25v13.003c0 1.24 1.01 2.25 2.25 2.25h4.56l2.59 3.45c.142.19.364.3.6.3.235 0 .457-.11.598-.3l2.588-3.45h4.563c1.24 0 2.25-1.01 2.25-2.25V4.25C22 3.01 20.99 2 19.75 2zM6.963 12.375c-.76 0-1.375-.616-1.375-1.375s.616-1.375 1.375-1.375S8.338 10.24 8.338 11s-.616 1.375-1.375 1.375zm4.85 0c-.76 0-1.375-.616-1.375-1.375s.616-1.375 1.375-1.375 1.375.616 1.375 1.375-.616 1.375-1.375 1.375zm4.85 0c-.76 0-1.375-.616-1.375-1.375s.616-1.375 1.375-1.375c.76 0 1.375.616 1.375 1.375s-.616 1.375-1.375 1.375z"/>
</svg>
