<svg xmlns="http://www.w3.org/2000/svg" width="24" height="24" viewBox="0 0 24 24">
    <path id="bounds" opacity="0" d="M0 0h24v24H0z"/>
    <path d="M12 23.253c-.236 0-.458-.11-.6-.3l-2.59-3.45H4.25c-1.24 0-2.25-1.01-2.25-2.25V4.25C2 3.01 3.01 2 4.25 2h15.5C20.99 2 22 3.01 22 4.25v13.003c0 1.24-1.01 2.25-2.25 2.25h-4.563l-2.588 3.45c-.142.19-.364.3-.6.3zm-2.194-4.925L12 21.253l2.213-2.95c.142-.188.363-.3.6-.3h4.938c.414 0 .75-.337.75-.75V4.25c0-.413-.336-.75-.75-.75H4.25c-.413 0-.75.337-.75.75v13.003c0 .413.337.75.75.75h4.867c.235-.02.448.06.608.228.03.03.057.064.08.098z"/>
    <circle cx="6.963" cy="11" r="1.375"/>
    <circle cx="11.813" cy="11" r="1.375"/>
    <circle cx="16.663" cy="11" r="1.375"/>
</svg>
