<svg xmlns="http://www.w3.org/2000/svg" width="24" height="24" viewBox="0 0 24 24">
    <path id="bounds" opacity="0" d="M0 0h24v24H0z"/>
    <path d="M1 7c0-.552.448-1 1-1h9.38c.545-2.275 2.83-3.678 5.104-3.135 1.552.37 2.764 1.583 3.135 3.135H22c.552 0 1 .448 1 1s-.448 1-1 1h-2.38c-.545 2.275-2.83 3.678-5.104 3.135-1.552-.37-2.764-1.583-3.135-3.135H2c-.552 0-1-.448-1-1z"/>
    <path d="M22 16h-9.38c-.545-2.275-2.83-3.678-5.104-3.135-1.552.37-2.764 1.583-3.135 3.135H2c-.552 0-1 .448-1 1s.448 1 1 1h2.38c.545 2.275 2.83 3.678 5.104 3.135 1.552-.37 2.764-1.583 3.135-3.135H22c.552 0 1-.448 1-1s-.448-1-1-1z"/>
</svg>
