<svg xmlns="http://www.w3.org/2000/svg" width="24" height="24" viewBox="0 0 24 24">
    <path id="bounds" opacity="0" d="M0 0h24v24H0z"/>
    <path d="M2 7.75h9.326c.356 1.986 2.087 3.5 4.174 3.5s3.818-1.514 4.174-3.5H22c.414 0 .75-.336.75-.75s-.336-.75-.75-.75h-2.326c-.356-1.986-2.087-3.5-4.174-3.5s-3.818 1.514-4.174 3.5H2c-.414 0-.75.336-.75.75s.336.75.75.75zm13.5-3.5c1.517 0 2.75 1.233 2.75 2.75s-1.233 2.75-2.75 2.75S12.75 8.517 12.75 7s1.233-2.75 2.75-2.75zM22 16.25h-9.326c-.356-1.986-2.087-3.5-4.174-3.5s-3.818 1.514-4.174 3.5H2c-.414 0-.75.336-.75.75s.336.75.75.75h2.326c.356 1.986 2.087 3.5 4.174 3.5s3.818-1.514 4.174-3.5H22c.414 0 .75-.336.75-.75s-.336-.75-.75-.75zm-13.5 3.5c-1.517 0-2.75-1.233-2.75-2.75s1.233-2.75 2.75-2.75 2.75 1.233 2.75 2.75-1.233 2.75-2.75 2.75z"/>
</svg>
