<svg xmlns="http://www.w3.org/2000/svg" width="24" height="24" viewBox="0 0 24 24">
    <defs>
        <linearGradient x1="32.316%" y1="99.437%" x2="100.016%" y2="45.39%" id="a">
            <stop stop-color="#FF0633" offset=".852%"/>
            <stop stop-color="#FA1980" offset="100%"/>
        </linearGradient>
    </defs>
    <path id="bounds" opacity="0" d="M0 0h24v24H0z"/>
    <path fill="url(#a)" d="M20.552 12.386C19.532 6.192 13.68 2.25 12.1 1.286c-.173-.103-.387.023-.386.22.007 1.683-.247 3.25-.673 4.39-.976 2.62-2.644 3.69-2.644 3.69.278-1.393.064-2.372-.276-3.062-.485-.983-1.277-1.944-1.233-1.36.122 1.6-1.406 3.3-1.406 3.3-.083.086-.14.177-.22.264-.01.01-.018.023-.028.034-1.115 1.33-1.82 2.996-1.952 4.818-.015.202-.03.403-.03.608 0 5.18 4.702 9.286 10.158 8.453 3.066-.467 5.664-2.577 6.763-5.42.66-1.704.71-3.337.382-4.834zm-5.626 5.705c-.007.014-.876 1.754-2.96 1.853-1.39.066-2.397-.84-2.822-1.982-.342-.92.044-2.126.315-2.537 1.052-1.596 3.3-1.657 4.538-4.507.08-.187.336-.224.45-.055.69 1.03 2.304 4.01.478 7.23z"/>
</svg>
