<svg xmlns="http://www.w3.org/2000/svg" width="24" height="24">
    <path id="bounds" opacity="0" d="M0 0h24v24H0z"/>
    <path d="M14.057 12.559c.289 1.042.34 2.351-.395 3.712l-.059.106c-.094.169-.617 1.015-1.717 1.068l-.074.002c-.808 0-1.162-.709-1.272-.999-.12-.327.041-.989.165-1.202.246-.375.693-.661 1.258-1.023.624-.4 1.386-.888 2.094-1.664m.177-2.805c-.099 0-.198.057-.244.158-1.24 2.85-3.49 2.91-4.54 4.51-.27.41-.66 1.61-.32 2.54.414 1.099 1.368 1.984 2.68 1.984.049 0 .099-.001.15-.004 2.08-.1 2.95-1.84 2.96-1.85 1.82-3.23.21-6.2-.48-7.23-.051-.073-.129-.108-.206-.108z"/>
    <path d="M12.023 22.748c-2.11 0-4.151-.74-5.755-2.115-1.918-1.646-3.018-4.027-3.018-6.532 0-.203.018-.404.039-.617.127-1.794.799-3.47 1.943-4.847.036-.047.077-.093.113-.126.031-.057.1-.149.203-.242.266-.31 1.102-1.484 1.031-2.427-.038-.572.306-.866.61-.946.623-.166 1.278.447 1.938 1.82.187.383.315.794.385 1.232.319-.452.648-1.031.915-1.75.406-1.114.61-2.636.557-4.172-.009-.268.125-.52.353-.662.226-.142.511-.153.749-.027.072.039 7.347 4.069 8.478 10.984.346 1.632.217 3.272-.388 4.844-1.113 2.905-3.708 5.004-6.773 5.478-.462.07-.923.105-1.38.105zM6.422 9.551l-.026.034c-.949 1.137-1.506 2.521-1.611 4.007-.019.199-.035.354-.035.51 0 2.066.909 4.032 2.494 5.393 1.618 1.389 3.78 1.994 5.929 1.666 2.534-.392 4.681-2.129 5.602-4.533v-.001c.499-1.296.604-2.651.314-4.028-.77-4.701-4.684-7.919-6.621-9.25-.068 1.24-.288 2.421-.633 3.368-.974 2.623-2.649 3.729-2.721 3.775-.253.164-.578.161-.829-.01-.249-.169-.373-.472-.313-.767.18-.905.119-1.686-.182-2.321-.398 1.024-1.071 1.808-1.181 1.931l-.072.082c-.036.049-.074.098-.115.144z"/>
</svg>
