<svg xmlns="http://www.w3.org/2000/svg" width="24" height="24" viewBox="0 0 24 24">
    <path id="bounds" opacity="0" d="M0 0h24v24H0z"/>
    <path d="M12 1.25C6.072 1.25 1.25 6.072 1.25 12S6.072 22.75 12 22.75 22.75 17.928 22.75 12 17.928 1.25 12 1.25zm4.377 13.395c-.588 1.522-1.98 2.652-3.62 2.902-2.922.446-5.44-1.753-5.44-4.526 0-.11.008-.216.016-.325.07-.976.448-1.868 1.045-2.58l.015-.018c.043-.047.073-.095.118-.14 0 0 .82-.91.754-1.768-.024-.314.4.2.66.727.182.37.297.894.148 1.64 0 0 .893-.573 1.416-1.976.228-.61.364-1.448.36-2.35 0-.106.114-.173.207-.118.846.516 3.98 2.627 4.526 5.943h.003c.174.803.148 1.677-.206 2.59z"/>
    <path d="M13.07 11.27c-.663 1.526-1.867 1.56-2.43 2.413-.145.22-.352.866-.17 1.358.23.613.768 1.098 1.512 1.062 1.116-.053 1.58-.985 1.585-.992.978-1.723.113-3.32-.256-3.87-.06-.09-.197-.07-.24.03z"/>
</svg>
