<svg xmlns="http://www.w3.org/2000/svg" width="24" height="24" viewBox="0 0 24 24">
    <path id="bounds" opacity="0" d="M0 0h24v24H0z"/>
    <path d="M20.803 17.6l-4.88-8.256c-.113-.192-.173-.412-.173-.636V3.356c.368-.048.657-.35.657-.73 0-.415-.336-.75-.75-.75H8.342c-.414 0-.75.335-.75.75 0 .38.29.683.658.73v5.352c0 .224-.06.443-.174.636L3.196 17.6c-.554.938-.562 2.065-.022 3.013s1.515 1.513 2.605 1.513h12.44c1.09 0 2.065-.565 2.606-1.514.54-.948.53-2.074-.023-3.013zm-13.45.88h-2.59c-.106 0-.206-.024-.298-.064.01-.018.013-.037.023-.054l.817-1.383h2.047c.414 0 .75.335.75.75s-.336.75-.75.75zm1.64-3h-2.59c-.066 0-.126-.023-.188-.04l.864-1.46h1.913c.414 0 .75.335.75.75s-.336.75-.75.75zm1.752-3h-2.59c-.06 0-.113-.022-.17-.035l.866-1.466h1.894c.414 0 .75.335.75.75s-.335.75-.75.75z"/>
</svg>
