<svg xmlns="http://www.w3.org/2000/svg" width="24" height="24" viewBox="0 0 24 24">
    <path id="bounds" opacity="0" d="M0 0h24v24H0z"/>
    <path d="M20.803 17.6l-4.88-8.256c-.113-.192-.173-.412-.173-.636V3.356c.368-.048.657-.35.657-.73 0-.415-.336-.75-.75-.75H8.342c-.414 0-.75.335-.75.75 0 .38.29.683.658.73v5.352c0 .224-.06.443-.174.636L3.196 17.6c-.554.938-.562 2.065-.022 3.013s1.515 1.513 2.605 1.513h12.44c1.09 0 2.065-.565 2.606-1.514.54-.948.53-2.074-.023-3.013zm-1.28 2.268c-.27.474-.758.757-1.304.757H5.78c-.545 0-1.032-.283-1.303-.757-.26-.456-.26-.993-.012-1.452.092.04.192.063.298.063h2.59c.413 0 .75-.337.75-.75s-.337-.75-.75-.75H5.305l.91-1.54c.06.018.12.04.188.04h2.59c.413 0 .75-.337.75-.75s-.337-.75-.75-.75H7.078l.906-1.535c.056.014.11.034.17.034h2.59c.414 0 .75-.337.75-.75s-.336-.75-.75-.75H8.852l.515-.873c.25-.423.383-.907.383-1.4V3.376h4.5v5.333c0 .493.133.977.383 1.4l4.88 8.254c.276.47.28 1.033.01 1.506z"/>
</svg>
