<svg xmlns="http://www.w3.org/2000/svg" width="24" height="24" viewBox="0 0 24 24">
    <path id="bounds" opacity="0" d="M0 0h24v24H0z"/>
    <path d="M23.152 3.483h-2.675V.81c0-.415-.336-.75-.75-.75s-.75.335-.75.75v2.674H16.3c-.413 0-.75.336-.75.75s.337.75.75.75h2.677V7.66c0 .413.336.75.75.75s.75-.337.75-.75V4.982h2.675c.414 0 .75-.336.75-.75s-.336-.75-.75-.75zM8.417 11.816c1.355 0 2.872-.15 3.84-1.256.813-.93 1.077-2.367.806-4.392-.38-2.826-2.116-4.513-4.646-4.513S4.15 3.342 3.77 6.168c-.27 2.025-.007 3.462.807 4.393.968 1.108 2.485 1.257 3.84 1.257zm8.28 7.42c-.88-3.526-4.283-5.99-8.28-5.99-3.998 0-7.403 2.464-8.28 5.99-.172.692-.03 1.4.395 1.94.408.52 1.04.82 1.733.82H14.57c.69 0 1.323-.3 1.73-.82.425-.54.568-1.246.396-1.94z"/>
</svg>
