<svg xmlns="http://www.w3.org/2000/svg" width="24" height="24" viewBox="0 0 24 24">
    <path id="bounds" opacity="0" d="M0 0h24v24H0z"/>
    <path d="M8.417 11.816c1.355 0 2.872-.15 3.84-1.256.813-.93 1.077-2.367.806-4.392-.38-2.826-2.116-4.513-4.645-4.513-2.53 0-4.267 1.687-4.646 4.513-.273 2.025-.01 3.462.805 4.393.968 1.108 2.485 1.257 3.84 1.257zm8.28 7.42c-.88-3.526-4.283-5.99-8.28-5.99-3.998 0-7.403 2.464-8.28 5.99-.172.692-.03 1.4.395 1.94.408.52 1.04.82 1.733.82H14.57c.69 0 1.323-.3 1.73-.82.425-.54.568-1.246.396-1.94zM23.24 3.47h-5.624l1.64-1.642c.315-.316.315-.827 0-1.143-.316-.315-.826-.316-1.143 0l-2.96 2.96c-.16.16-.238.366-.238.572 0 .207.08.414.237.57l2.96 2.962c.16.156.365.234.572.234s.413-.08.57-.236c.316-.316.316-.828 0-1.144l-1.64-1.64h5.623c.414 0 .75-.336.75-.75s-.334-.747-.748-.747z"/>
</svg>
