<svg xmlns="http://www.w3.org/2000/svg" width="24" height="24" viewBox="0 0 24 24">
    <path id="bounds" opacity="0" d="M0 0h24v24H0z"/>
    <path d="M19.192 9.3c-.205 0-.403-.085-.546-.236l-2.66-2.824c-.283-.302-.27-.776.032-1.06.303-.286.776-.27 1.06.03L19 7.25 22.157.877c.184-.37.63-.52 1.005-.34.372.185.523.635.34 1.006L19.864 8.88c-.108.22-.318.374-.562.41-.036.006-.073.01-.11.01zM8.417 11.816c1.355 0 2.872-.15 3.84-1.256.813-.93 1.077-2.367.806-4.392-.38-2.826-2.116-4.513-4.645-4.513-2.53 0-4.267 1.687-4.646 4.513-.273 2.025-.01 3.462.805 4.393.968 1.108 2.485 1.257 3.84 1.257zm8.28 7.42c-.88-3.526-4.283-5.99-8.28-5.99-3.998 0-7.403 2.464-8.28 5.99-.172.692-.03 1.4.395 1.94.408.52 1.04.82 1.733.82H14.57c.69 0 1.323-.3 1.73-.82.425-.54.568-1.246.396-1.94z"/>
</svg>
