<svg xmlns="http://www.w3.org/2000/svg" width="24" height="24" viewBox="0 0 24 24">
    <path id="bounds" opacity="0" d="M0 0h24v24H0z"/>
    <path d="M12 1.25C6.072 1.25 1.25 6.072 1.25 12S6.072 22.75 12 22.75 22.75 17.928 22.75 12 17.928 1.25 12 1.25zm2.738 6.73c.816 0 1.478.66 1.478 1.477 0 .816-.662 1.478-1.478 1.478s-1.478-.66-1.478-1.478c0-.816.662-1.478 1.478-1.478zm-5.476 0c.816 0 1.478.66 1.478 1.477 0 .816-.662 1.478-1.478 1.478s-1.478-.66-1.478-1.478c0-.816.662-1.478 1.478-1.478zm-1.918 7.98c1.023-1.594 2.765-2.545 4.656-2.545s3.633.95 4.656 2.544c.224.348.123.81-.226 1.035-.348.226-.812.124-1.036-.226-.747-1.162-2.016-1.855-3.395-1.855s-2.648.693-3.396 1.854c-.224.35-.688.45-1.036.225-.347-.224-.448-.687-.224-1.036z"/>
</svg>
