<svg xmlns="http://www.w3.org/2000/svg" width="24" height="24" viewBox="0 0 24 24">
    <path id="bounds" opacity="0" d="M0 0h24v24H0z"/>
    <path d="M22.665 15.744l-1.64-7.76h-.01l-.21-.67c-.59-1.84-2.3-3.088-4.23-3.088H7.37c-1.09 0-2.11.4-2.89 1.07-.78.68-1.33 1.62-1.5 2.69l-1.65 7.76c-.18.87-.05 1.79.38 2.54s1.1 1.26 1.9 1.44c1.23.21 2.5-.52 3.03-1.81l.68-1.63c.27-.62.82-1.02 1.42-1.02h6.53c.61 0 1.16.4 1.42 1.02l.68 1.63c.46 1.12 1.47 1.86 2.56 1.86.15 0 .32-.03.48-.05l.02-.01c.77-.17 1.44-.68 1.87-1.43.427-.752.557-1.672.367-2.542zm-13.228-5.16h-.96v.96c0 .32-.26.58-.58.58s-.58-.26-.58-.58v-.96h-.96c-.32 0-.58-.26-.58-.58 0-.32.26-.59.58-.59h.96v-.96c0-.32.26-.58.58-.58s.58.26.58.58v.96h.96c.33 0 .59.27.59.59 0 .32-.26.58-.59.58zm5.48 1.54c-.53 0-.95-.43-.95-.96 0-.52.42-.95.95-.95s.96.43.96.95c0 .53-.43.96-.96.96zm2.34-2.34c-.53 0-.95-.43-.95-.96 0-.52.42-.95.95-.95s.96.43.96.95c0 .53-.43.96-.96.96z"/>
</svg>
