<svg xmlns="http://www.w3.org/2000/svg" width="24" height="24" viewBox="0 0 24 24">
    <path id="bounds" opacity="0" d="M0 0h24v24H0z"/>
    <path d="M23.2 9.75h-1.588c-.777-1.352-2.22-2.275-3.888-2.275-1.41 0-2.654.664-3.48 1.682-.652-.41-1.418-.657-2.244-.657s-1.592.247-2.245.656c-.826-1.017-2.07-1.682-3.48-1.682-1.668 0-3.11.923-3.888 2.275H.8c-.414 0-.75.335-.75.75s.336.75.75.75h1.05c-.04.236-.074.476-.074.724 0 2.48 2.02 4.5 4.5 4.5s4.5-2.02 4.5-4.5c0-.536-.11-1.043-.283-1.52.433-.285.95-.454 1.507-.454s1.074.17 1.507.454c-.173.477-.283.984-.283 1.52 0 2.48 2.02 4.5 4.5 4.5s4.5-2.02 4.5-4.5c0-.248-.034-.487-.073-.725h1.05c.414 0 .75-.337.75-.75s-.336-.75-.75-.75zM6.275 14.975c-1.654 0-3-1.346-3-3s1.346-3 3-3 3 1.346 3 3-1.345 3-3 3zm8.45-3c0-1.654 1.346-3 3-3s3 1.346 3 3-1.346 3-3 3-3-1.346-3-3z"/>
</svg>
