<svg xmlns="http://www.w3.org/2000/svg" width="24" height="24" viewBox="0 0 24 24">
    <path id="bounds" opacity="0" d="M0 0h24v24H0z"/>
    <path d="M12 2C6.486 2 2 6.486 2 12s4.486 10 10 10 10-4.486 10-10S17.514 2 12 2zm8.472 9.442c-.242.19-.472.368-.63.486-.68-1.265-1.002-1.78-1.256-2.007-.163-.145-.37-.223-.78-.375-.367-.136-1.482-.55-1.65-.85-.087-.153.136-.602.23-.793.088-.177.164-.33.196-.497.123-.646-.33-1.146-.728-1.59-.066-.072-.153-.17-.23-.26.335-.12.862-.26 1.42-.384 1.95 1.448 3.26 3.704 3.428 6.272zm-9.788-7.83c.076.25.145.5.182.678-.255.15-.663.363-.96.52-.262.136-.522.273-.738.392-.247.137-.442.234-.6.313-.347.174-.598.3-.833.553-.068.073-.26.278-1.02 1.886l-1.79-.656c1.293-1.94 3.362-3.31 5.76-3.685zM12 20.5c-4.687 0-8.5-3.813-8.5-8.5 0-1.197.25-2.335.7-3.37.47.182 1.713.66 2.75 1.035-.107.336-.245.854-.26 1.333-.03.855.502 1.7.562 1.792.053.08.12.15.2.207.303.21.687.5.827.616.063.343.166 1.26.23 1.833.144 1.266.175 1.48.24 1.65.005.012.514 1.188 1.315 1.188.576-.003.673-.206 1.855-2.688.244-.512.45-.95.513-1.058.1-.144.597-.61.87-.83.55-.442.76-1.82.413-2.682-.335-.83-1.92-2.08-2.5-2.195-.17-.033-.43-.04-.953-.053-.497-.01-1.25-.028-1.536-.09-.098-.024-.314-.094-.605-.196.32-.668.627-1.28.71-1.4.05-.052.168-.112.408-.234.17-.086.383-.192.653-.34.208-.116.458-.247.71-.38 1.168-.612 1.484-.8 1.658-1.082.11-.177.263-.44-.04-1.544 1.042.027 2.038.24 2.955.61-.89.32-1.024.595-1.106.77-.367.784.256 1.475.667 1.93.096.107.24.268.32.38l-.017.036c-.234.472-.67 1.35-.196 2.194.406.72 1.384 1.13 2.437 1.52.134.05.25.092.33.126.16.208.496.79 1 1.735l.154.285c.078.14.33.505.842.505.167 0 .363-.04.59-.137.032-.013.083-.035.18-.094C19.72 17.405 16.22 20.5 12 20.5zm-3.812-9.45c.01-.285.102-.646.184-.907l.027.006c.397.09 1.037.11 1.83.13.32.006.59.008.615 0 .326.143 1.355 1 1.483 1.31.113.28.05.812-.034 1.01-.233.197-.845.735-1.085 1.078-.093.13-.212.373-.64 1.274-.133.276-.313.654-.488 1.013-.026-.225-.054-.472-.08-.686-.225-2.003-.273-2.22-.42-2.445-.05-.078-.202-.31-1.135-.973-.117-.213-.268-.564-.26-.813z"/>
</svg>
