<svg xmlns="http://www.w3.org/2000/svg" width="24" height="24" viewBox="0 0 24 24">
    <path id="bounds" opacity="0" d="M0 0h24v24H0z"/>
    <path d="M20.066 8.116v5.488c0 .732-.438 1.414-1.122 1.674-.84.32-1.62.452-2.34.452-2.415 0-4.063-1.495-4.778-2.287-1.035-1.175-2.427-1.84-3.807-1.84h-.053c-.294 0-.562.025-.805.064V3.044c.243-.026.51-.05.78-.05 1.94.024 3.896.88 5.314 2.465l.128.14c.792.907 1.776 2.03 5.02 1.226.41-.102.83-.013 1.164.243.32.24.498.625.498 1.046zM4.67 22c-.55 0-.994-.445-.994-.993V2.993c0-.548.444-.993.993-.993s.992.445.992.993v18.013c0 .55-.444.994-.993.994z"/>
</svg>
