<svg xmlns="http://www.w3.org/2000/svg" width="24" height="24" viewBox="0 0 24 24">
    <path id="bounds" opacity="0" d="M0 0h24v24H0z"/>
    <path d="M23 17.482c0 .549-.45.998-1 .998h-2.34v2.397c0 .549-.45.998-1 .998s-1-.449-1-.998V18.48h-2.34c-.56 0-1-.449-1-.998 0-.559.44-.998 1-.998h2.34v-2.406c0-.549.45-.998 1-.998s1 .449 1 .998v2.406H22c.55-.001 1 .439 1 .998z"/>
    <path d="M21.01 7.507c0 1.498-.41 2.995-1.07 4.433-.37-.23-.81-.36-1.28-.36-1.38 0-2.5 1.118-2.5 2.496v.909h-.84c-1.38 0-2.5 1.108-2.5 2.496 0 .799.38 1.508.96 1.957-1.17.879-2.18 1.398-2.78 1.408-2.17-.04-10-6.82-10-13.34C1 4.74 3.24 2.124 6.01 2.124c3.08 0 4.75 3.105 4.99 3.455.24-.35 1.94-3.455 5-3.455 2.77.001 5.01 2.617 5.01 5.383z"/>
</svg>
