<svg width="32" height="32" viewBox="0 0 32 32" fill="none" xmlns="http://www.w3.org/2000/svg">
<path fill-rule="evenodd" clip-rule="evenodd" d="M16 0C7.16345 0 0 7.16345 0 16C0 24.8366 7.16345 32 16 32C24.8366 32 32 24.8366 32 16C32 7.16345 24.8366 0 16 0ZM15.9895 23.2285H16V23.227H16.0082C17.9455 23.1917 23.536 18.1412 23.536 13.3592C23.536 11.0605 21.643 9.04297 19.483 9.04297C17.7647 9.04297 16.6097 10.2295 15.9992 11.0905C15.3872 10.228 14.2322 9.04297 12.5147 9.04297C10.3562 9.04297 8.46249 11.0605 8.46249 13.3585C8.46249 18.142 14.0522 23.1925 15.9895 23.2285Z"/>
</svg>
