<svg xmlns="http://www.w3.org/2000/svg" width="24" height="24" viewBox="0 0 24 24">
    <path id="bounds" opacity="0" d="M0 0h24v24H0z"/>
    <path d="M12 3.412c.45 0 .814-.365.814-.815V1.314c0-.216-.086-.423-.238-.576C12.423.586 12.216.5 12 .5s-.423.086-.576.238c-.153.153-.238.36-.238.576v1.284c0 .45.364.814.814.814z"/>
    <path d="M12 20.587c-.107 0-.213.02-.312.062-.1.04-.19.1-.264.17-.076.07-.135.16-.176.26-.04.1-.062.2-.062.31v1.28c0 .21.086.42.238.57.153.153.36.24.576.24s.423-.087.576-.24c.153-.152.238-.36.238-.575V21.4c0-.106-.02-.212-.06-.31s-.102-.19-.177-.265c-.076-.076-.165-.136-.264-.177-.1-.043-.206-.064-.313-.063z"/>
    <path d="M22.685 11.185H21.4c-.215 0-.422.086-.575.238-.153.153-.238.36-.238.576 0 .21.086.42.238.57.153.15.36.24.576.24h1.29c.22 0 .43-.09.58-.24.16-.16.24-.36.24-.58 0-.22-.08-.43-.24-.58-.15-.16-.36-.24-.57-.24z"/>
    <path d="M2.598 11.186H1.315c-.216 0-.423.086-.576.238-.16.153-.24.36-.24.576s.08.423.24.576c.15.153.36.238.57.238H2.6c.106 0 .212-.02.31-.062.1-.04.188-.1.264-.177.076-.076.135-.165.176-.264.04-.09.062-.2.062-.31 0-.1-.02-.21-.062-.31-.04-.1-.1-.19-.177-.26-.076-.07-.165-.13-.264-.17-.1-.04-.21-.06-.32-.06z"/>
    <path d="M19.224 5.926l.908-.908c.076-.076.136-.165.177-.264.04-.1.06-.205.06-.312 0-.107-.02-.213-.06-.312-.05-.1-.11-.19-.18-.264-.08-.076-.17-.136-.27-.177-.1-.05-.21-.07-.31-.07-.11 0-.22.02-.31.06-.1.04-.19.1-.27.17l-.91.902c-.08.076-.14.165-.18.264-.04.1-.06.205-.06.312 0 .104.02.21.06.31.04.1.1.19.18.263.07.078.16.138.26.18.1.04.202.06.31.06.11 0 .212-.02.31-.06.098-.04.188-.1.264-.177z"/>
    <path d="M4.777 18.072l-.908.908c-.08.076-.14.165-.18.264-.04.1-.06.205-.06.312 0 .107.02.213.06.312.04.1.1.19.17.264.07.076.16.136.26.177.1.04.2.06.31.06.1 0 .21-.02.31-.06.1-.05.19-.11.26-.18l.91-.91c.15-.16.235-.36.235-.58 0-.22-.086-.43-.24-.58-.15-.16-.36-.24-.575-.24-.215 0-.422.08-.575.24z"/>
    <path d="M19.224 18.072c-.076-.076-.166-.136-.264-.177-.1-.04-.205-.062-.312-.062-.107 0-.213.02-.312.062-.1.04-.19.1-.264.177-.076.076-.136.165-.177.264-.04.1-.062.205-.062.312 0 .107.02.213.062.312.04.1.1.19.177.264l.908.908c.153.153.36.24.576.24.216 0 .423-.087.576-.24.153-.153.24-.36.24-.576 0-.216-.087-.423-.24-.576l-.908-.908z"/>
    <path d="M4.776 5.926c.076.076.165.136.264.177.1.04.205.062.312.062.107 0 .213-.02.312-.062.1-.04.19-.1.264-.177.076-.076.136-.165.177-.264.04-.1.062-.205.062-.312 0-.107-.02-.213-.062-.312-.04-.098-.1-.188-.177-.264l-.908-.907c-.153-.152-.36-.238-.576-.238-.216 0-.423.08-.576.23-.153.15-.24.36-.24.57 0 .21.087.42.24.57l.908.905z"/>
    <path d="M15.04 6.3c-1.378 0-2.408.84-3.04 1.62-.63-.78-1.66-1.62-3.038-1.62C6.957 6.3 5.2 8.164 5.2 10.29c0 4.282 5.04 8.803 6.814 8.835 1.747-.032 6.788-4.553 6.788-8.834 0-2.12-1.76-3.99-3.762-3.99z"/>
</svg>
