<svg xmlns="http://www.w3.org/2000/svg" width="24" height="24">
    <path id="bounds" opacity="0" d="M0 0h24v24H0z"/>
    <path d="M12.018 21.66C9.348 21.612 1.75 14.784 1.75 8.318c0-3.185 2.63-5.978 5.629-5.978 2.114 0 3.683 1.327 4.621 2.521.938-1.194 2.507-2.521 4.621-2.521 2.999 0 5.629 2.793 5.629 5.978 0 6.466-7.598 13.294-10.232 13.342zM7.379 4.34C5.48 4.34 3.75 6.236 3.75 8.318c0 5.589 6.832 11.31 8.268 11.342 1.4-.031 8.232-5.753 8.232-11.342 0-2.082-1.729-3.978-3.629-3.978-2.342 0-3.685 2.765-3.697 2.793-.155.372-.52.617-.923.617h-.002c-.404-.001-.769-.243-.923-.617-.012-.027-1.355-2.793-3.697-2.793z"/>
</svg>
