<svg xmlns="http://www.w3.org/2000/svg" width="24" height="24" viewBox="0 0 24 24">
    <path id="bounds" opacity="0" d="M0 0h24v24H0z"/>
    <path d="M12 1.25C6.072 1.25 1.25 6.072 1.25 12S6.072 22.75 12 22.75 22.75 17.928 22.75 12 17.928 1.25 12 1.25zm-.05 17.3c-.615 0-1.114-.5-1.114-1.114 0-.615.5-1.114 1.114-1.114s1.114.5 1.114 1.114c0 .615-.5 1.114-1.114 1.114zm.75-4.48v.42c0 .414-.336.75-.75.75s-.75-.336-.75-.75v-1.103c0-.414.336-.75.75-.75 1.485 0 2.694-1.21 2.694-2.695s-1.21-2.694-2.694-2.694c-1.486 0-2.695 1.21-2.695 2.694 0 .414-.336.75-.75.75s-.75-.336-.75-.75c0-2.312 1.882-4.194 4.195-4.194 2.312 0 4.194 1.882 4.194 4.194 0 2.058-1.488 3.773-3.444 4.128z"/>
</svg>
