<svg xmlns="http://www.w3.org/2000/svg" width="24" height="24" viewBox="0 0 24 24">
    <path id="bounds" opacity="0" d="M0 0h24v24H0z"/>
    <path d="M19.75 6.11h-1.86V4.25c0-1.24-1.01-2.25-2.25-2.25H4.25C3.01 2 2 3.01 2 4.25v11.39c0 1.24 1.01 2.25 2.25 2.25h1.86v1.86c0 1.24 1.01 2.25 2.25 2.25h11.39c1.24 0 2.25-1.01 2.25-2.25V8.36c0-1.24-1.01-2.25-2.25-2.25zm.75 13.64c0 .413-.337.75-.75.75H8.36c-.412 0-.75-.337-.75-.75v-1.86h8.028c1.24 0 2.25-1.01 2.25-2.25V7.61h1.86c.414 0 .75.338.75.75v11.39z"/>
</svg>
