<svg xmlns="http://www.w3.org/2000/svg" width="24" height="24" viewBox="0 0 24 24">
    <path id="bounds" opacity="0" d="M0 0h24v24H0z"/>
    <path d="M17.273 15.78c-.148 0-.298-.045-.43-.137l-4.326-3.03c-.2-.14-.32-.368-.32-.613V7.89c0-.414.336-.75.75-.75s.75.336.75.75v3.72l4.007 2.806c.34.237.422.705.185 1.044-.147.208-.38.32-.617.32z"/>
    <path d="M12.947 1.25c-4.633 0-8.713 3.002-10.172 7.298L1.51 5.538c-.158-.382-.594-.564-.98-.403-.382.16-.56.6-.4.982L2.175 11c.08.19.233.338.424.41.095.037.194.053.294.05.102-.005.203-.03.296-.074l4.778-2.282c.374-.178.532-.625.354-1-.178-.374-.63-.53-1-.352L4.103 9.29c1.175-3.837 4.764-6.54 8.845-6.54 5.1 0 9.25 4.15 9.25 9.25s-4.15 9.25-9.25 9.25c-3.337 0-6.428-1.81-8.066-4.72-.2-.36-.658-.488-1.02-.285-.36.203-.488.66-.285 1.02 1.903 3.383 5.495 5.484 9.373 5.484 5.928 0 10.75-4.823 10.75-10.75S18.874 1.25 12.948 1.25z"/>
</svg>
