<svg xmlns="http://www.w3.org/2000/svg" width="24" height="24" viewBox="0 0 24 24">
    <path id="bounds" opacity="0" d="M0 0h24v24H0z"/>
    <path d="M18.147 14.017l-3.88-2.717V7.752c0-.663-.54-1.2-1.2-1.2s-1.2.538-1.2 1.2v4.173c0 .392.185.743.478.96.11.08 4.427 3.098 4.427 3.098.208.147.448.217.686.217.378 0 .75-.18.984-.512.38-.543.248-1.29-.295-1.67z"/>
    <path d="M12.966.893c-4.22 0-8 2.426-9.844 6.055l-.78-2.066c-.233-.62-.93-.932-1.545-.7-.62.234-.933.926-.7 1.546l1.89 5.015c.183.48.64.777 1.124.777.142 0 .284-.025.423-.077L8.55 9.557c.62-.233.934-.925.7-1.545-.232-.62-.925-.932-1.544-.7l-2.554.96c1.395-2.97 4.42-4.978 7.814-4.978 4.76 0 8.63 3.872 8.63 8.63s-3.87 8.632-8.63 8.632c-3.113 0-5.998-1.688-7.528-4.404-.325-.578-1.057-.78-1.634-.457-.578.325-.782 1.057-.457 1.634 1.954 3.47 5.64 5.625 9.62 5.625 6.082 0 11.03-4.95 11.03-11.03 0-6.083-4.95-11.032-11.03-11.032z"/>
</svg>
