<svg xmlns="http://www.w3.org/2000/svg" width="200" height="200" viewBox="0 0 200 200">
    <circle fill="#97E3FF" cx="100" cy="100" r="100"/>
    <path fill="#005FD1" d="M99.95 69.267V54.525H59.092c-2.575 0-4.658 2.083-4.658 4.658v6.467L80.81 88.767c3.548-9.925 10.123-19.5 19.14-19.5zM77.758 104.15c0-3.008.55-6.808 1.608-10.792L54.426 71.5v69.417c0 2.575 2.082 4.658 4.657 4.658H99.95v-14.683c-15.133.008-22.192-15.175-22.192-26.742z"/>
    <path fill="#005FD1" d="M80.8 88.767l-26.375-23.11V71.5l24.942 21.858c.408-1.516.883-3.058 1.433-4.59z"/>
    <path fill="#1DA1F2" d="M122.15 104.15c0 5.417-1.55 11.625-4.75 16.7l26.683 23.392c.858-.842 1.392-2.017 1.392-3.325V59.192c0-2.575-2.083-4.658-4.658-4.658H99.95v14.742c14.075-.01 22.2 23.307 22.2 34.874zM99.95 130.9v14.683h38.992l-24.217-21.225c-3.567 3.91-8.467 6.542-14.775 6.542z"/>
    <path fill="#005FD1" d="M144.083 144.242L117.4 120.85c-.792 1.25-1.675 2.425-2.667 3.508l24.217 21.225h1.875c1.267-.008 2.417-.516 3.258-1.34z"/>
    <path fill="#1DA1F2" d="M99.95 69.267c-9.025 0-15.6 9.583-19.158 19.508l19.158 16.792v-36.3zM79.367 93.358c-1.058 3.983-1.608 7.783-1.608 10.792 0 11.567 7.057 26.75 22.19 26.75v-19.492l-20.583-18.05z"/>
    <path fill="#005FD1" d="M99.95 105.558l-19.158-16.79c-.55 1.532-1.025 3.074-1.433 4.59L99.94 111.4v-5.842h.008z"/>
    <path fill="#71C9F8" d="M99.95 130.9c6.3 0 11.208-2.633 14.783-6.542l-14.783-12.95V130.9zM99.95 69.267v36.292l17.442 15.29c3.2-5.074 4.75-11.282 4.75-16.7.008-11.567-8.117-34.883-22.192-34.883z"/>
    <path fill="#1DA1F2" d="M99.95 111.4l14.783 12.95c.992-1.083 1.875-2.258 2.667-3.508L99.958 105.55v5.85h-.008z"/>
    <path fill="#71C9F8" d="M149.717 149.175l-104.11-91.25c-2.55-2.233-2.8-6.1-.566-8.65 2.234-2.55 6.11-2.8 8.65-.567l104.11 91.25c2.55 2.233 2.8 6.108.566 8.65-2.233 2.542-6.108 2.8-8.65.567z"/>
</svg>
