<svg xmlns="http://www.w3.org/2000/svg" width="36" height="36" viewBox="0 0 36 36">
    <path id="bounds" opacity="0" d="M0 0h36v36H0z"/>
    <path fill="#61BCF6" d="M35.508 15.41l-9.295-3.387L22.438 1.47c-.108-.302-.357-.48-.722-.495-.322.007-.604.22-.698.53l-3.293 10.71-9.132 3.805c-.285.118-.467.4-.46.708.007.308.203.58.492.686L17.92 20.8l3.775 10.552c.107.298.39.496.704.496h.016c.322-.007.604-.22.698-.53l3.293-10.712 9.132-3.803c.284-.118.466-.4.46-.708-.007-.308-.203-.58-.492-.686z"/>
    <path fill="#F16888" d="M9.57 4.715l-2.906.065-.06-2.715C6.585 1.34 5.983.763 5.256.78 4.53.796 3.955 1.4 3.97 2.125l.063 2.715-2.747.062C.56 4.92-.016 5.522 0 6.248c.017.726.62 1.302 1.346 1.285l2.747-.062.062 2.716c.017.726.62 1.302 1.345 1.286.726-.016 1.302-.62 1.286-1.345l-.062-2.715 2.905-.066c.725-.017 1.3-.62 1.285-1.346-.017-.726-.62-1.302-1.346-1.285z"/>
    <path fill="#FD9E1A" d="M14.205 29.69l-1.65.036-.034-1.518c-.016-.726-.618-1.302-1.344-1.286s-1.302.62-1.286 1.345l.034 1.518-1.54.035c-.726.016-1.302.62-1.286 1.345.017.726.62 1.302 1.345 1.286l1.54-.034.034 1.518c.017.726.62 1.302 1.345 1.286.726-.016 1.302-.62 1.286-1.345l-.034-1.518 1.65-.037c.726-.016 1.302-.62 1.286-1.345-.016-.727-.62-1.303-1.345-1.286z"/>
</svg>
