<svg xmlns="http://www.w3.org/2000/svg" width="200" height="200" viewBox="0 0 200 200">
    <circle fill="#97E3FF" cx="100" cy="100" r="100"/>
    <path fill="#005FD1" d="M100 42.133c-31.958 0-57.867 25.908-57.867 57.867s25.91 57.867 57.867 57.867V42.133z"/>
    <path fill="#1DA1F2" d="M100 42.133v115.725c31.958 0 57.867-25.908 57.867-57.867S131.957 42.134 100 42.134z"/>
    <path fill="#97E3FF" d="M100 118.825v21.508c5.942 0 10.758-4.817 10.758-10.758 0-5.942-4.816-10.75-10.758-10.75z"/>
    <path fill="#71C9F8" d="M89.242 129.575c0 5.933 4.808 10.758 10.758 10.758v-21.508c-5.942 0-10.758 4.808-10.758 10.75z"/>
    <path fill="#97E3FF" d="M105.242 109.283c3.742-16.225 8.2-36.133 8.2-38.858 0-5.342-4.617-10.758-13.442-10.758v53.783c2.508 0 4.675-1.733 5.242-4.167z"/>
    <path fill="#71C9F8" d="M86.558 70.425c0 2.725 4.458 22.633 8.2 38.858.567 2.442 2.733 4.167 5.242 4.167V59.667c-8.825 0-13.442 5.408-13.442 10.758z"/>
</svg>
