<svg xmlns="http://www.w3.org/2000/svg" width="36" height="36" viewBox="0 0 36 36">
    <path id="bounds" opacity="0" d="M0 0h36v36H0z"/>
    <path fill="#71C9F8" d="M27.325 20.595c0 7.333-5.913 13.278-13.206 13.278S.912 27.928.912 20.595 6.825 7.317 14.12 7.317s13.205 5.944 13.205 13.278"/>
    <path fill="#97E3FF" d="M24.576 20.682c0 5.802-4.678 10.506-10.45 10.506-5.77 0-10.448-4.704-10.448-10.506s4.678-10.506 10.45-10.506c5.77 0 10.448 4.704 10.448 10.506"/>
    <path fill="#005FD1" d="M18.98 20.94l-3.86-.583v-6.215c0-.552-.45-1-1-1s-1 .448-1 1v7.076c0 .06.023.112.033.17.007.042.012.082.025.123.026.084.063.158.11.23.022.038.044.075.072.11.05.06.11.11.173.158.042.03.08.06.128.086.065.034.133.055.204.074.04.01.072.035.114.04l4.704.71c.05.01.1.012.15.012.487 0 .914-.355.988-.85.08-.548-.295-1.058-.84-1.14z"/>
    <path fill="#1DA1F2" d="M24.553 20.682c0 5.79-4.68 10.5-10.434 10.5S3.683 26.47 3.683 20.68c0-2.953 1.227-5.707 3.31-7.665l.674 1.127c.38.635 1.227.668 1.524.06l1.153-2.36 1.312-2.687c.24-.49-.104-1.067-.65-1.088l-2.988-.116-2.625-.1c-.678-.027-1.05.735-.67 1.37l.804 1.344C2.613 13.065.883 16.736.883 20.683c0 7.333 5.937 13.298 13.234 13.298s13.234-5.964 13.234-13.297h-2.8z"/>
    <path fill="#FFAD1F" d="M35 13.36h-1.467v-1.34c0-.552-.448-1-1-1s-1 .448-1 1v1.34h-1.467c-.552 0-1 .45-1 1s.448 1 1 1h1.467v1.342c0 .552.448 1 1 1s1-.448 1-1v-1.34H35c.552 0 1-.45 1-1s-.448-1-1-1z"/>
    <path fill="#F6809A" d="M28.646 4.138h-2.01v-2.01c0-.552-.448-1-1-1s-1 .448-1 1v2.01h-2.01c-.552 0-1 .448-1 1s.448 1 1 1h2.01v2.01c0 .552.448 1 1 1s1-.448 1-1v-2.01h2.01c.552 0 1-.448 1-1s-.447-1-1-1z"/>
</svg>
