<svg xmlns="http://www.w3.org/2000/svg" width="200" height="200" viewBox="0 0 200 200">
    <circle fill="#97E3FF" cx="100" cy="100" r="100"/>
    <path fill="#005FD1" d="M87.725 96.742H100v-4.467H82.633M94.758 102.908H100v-3.616h-9.367M58.767 66.967h11.017c1.5 0 2.717 1.217 2.717 2.717V81.06c0 .674-.25 1.29-.65 1.766l7.876 6.908H100V71.817H77.383V69.25H100v-11H48.8c-1.058 0-1.917.858-1.917 1.917v.783l9.242 8.1c.292-1.2 1.358-2.083 2.642-2.083zm18.616 7.658h21.05v2.55h-21.05v-2.55zM100 107.5v-2.042h-2.325M95.05 132.042c-.692 0-1.242-.558-1.242-1.242v-4.983h-2.183c-.35 0-.675-.2-.833-.508-.158-.318-.125-.693.083-.976l3.425-4.667c.175-.242.458-.383.75-.383.3 0 .575.142.75.383l3.425 4.667c.208.283.242.658.083.975s-.483.507-.833.507h-2.183v3.433c.008.167.142.3.308.3h3.4v-7.842c-.517-.15-.9-.625-.9-1.192s.383-1.042.9-1.192v-5.992l-1.917-1.667H56.05v-2.55h39.125l-4.167-3.65H56.05v-2.55h32.042L83.967 99.3H56.05v-2.55h25.008l-5.092-4.467H56.05v-2.55h17l-6.792-5.958h-7.492c-1.5 0-2.717-1.217-2.717-2.717v-6.233l-9.168-8.033v73.05c0 1.058.858 1.917 1.917 1.917H100v-9.71h-4.95v-.008zm-22.017-.975c-.742 0-1.342-.6-1.342-1.342 0-1.85-1.507-3.358-3.357-3.358H65.3v4.033c0 .383-.217.733-.558.9-.142.067-.292.108-.45.108-.217 0-.433-.067-.608-.208l-7.058-5.375c-.25-.192-.4-.483-.4-.8s.15-.608.4-.8l7.058-5.375c.308-.233.717-.275 1.058-.1.342.167.558.517.558.9v4.033h3.025c3.333 0 6.05 2.717 6.05 6.05 0 .734-.6 1.334-1.342 1.334z"/>
    <path fill="#005FD1" d="M82.633 92.275h-6.666l5.09 4.467h6.668M91.008 105.458l4.167 3.65H100V107.5l-2.325-2.042M71.842 82.817c-.5.583-1.233.95-2.058.95H66.26l6.79 5.958h6.668l-7.876-6.908zM100 113.342v-1.675h-1.917M90.633 99.292h-6.666l4.125 3.616h6.666M56.05 69.683c0-.217.025-.433.075-.633l-9.233-8.1v5.842l9.167 8.033v-5.142h-.01z"/>
    <path fill="#1DA1F2" d="M108.75 125.5h2.183c.35 0 .675.2.833.508.158.317.125.692-.083.975l-3.425 4.675c-.175.242-.458.383-.75.383-.3 0-.575-.14-.75-.382l-3.425-4.675c-.208-.283-.242-.658-.083-.975.158-.317.483-.508.833-.508h2.183v-3.425c0-.175-.142-.308-.308-.308h-5.608c-.117 0-.233-.025-.342-.05v7.842h2.208c.692 0 1.242.557 1.242 1.24 0 .693-.558 1.243-1.242 1.243H100v9.708h32.417l-23.667-20.74v4.49zM151.2 58.25H100v11h21.833v2.55H100v17.917h43.95v2.55H100v4.467h43.95v2.55H100v3.617h43.95v2.55H100v2.05l1.842 1.618h15.467v2.55h-12.56l34.325 30.083h12.117c1.058 0 1.917-.857 1.917-1.916V60.167c-.002-1.06-.86-1.917-1.91-1.917zm-17.783 74.642c-1.675-.033-7.717-5.267-7.717-10.308 0-2.133 1.725-4.158 3.858-4.158 2.375 0 3.667 2.4 3.85 2.675.183-.274 1.492-2.674 3.85-2.674 2.133 0 3.858 2.025 3.858 4.158.01 5.033-6.024 10.274-7.7 10.308zM100.342 119.275h6.433L100 113.342v5.992c.108-.034.225-.06.342-.06z"/>
    <path fill="#1DA1F2" d="M101.842 109.108L100 107.5v1.608"/>
    <path fill="#005FD1" d="M100 111.667v1.675l6.775 5.933h.725c.692 0 1.242.558 1.242 1.242V121l23.667 20.742h6.666l-34.325-30.075H100z"/>
    <path fill="#71C9F8" d="M100 69.25h21.833v2.55H100zM100 89.717h43.95v2.55H100zM100 96.742h43.95v2.55H100zM100 102.908h43.95v2.55H100zM117.308 111.667v-2.56h-15.466l2.908 2.56"/>
    <path fill="#1DA1F2" d="M100 111.667h4.75l-2.908-2.56H100"/>
    <path fill="#71C9F8" d="M100 119.333v2.383c.108.033.225.05.342.05h5.608c.175 0 .308.142.308.308v3.425h-2.183c-.35 0-.675.2-.833.507-.158.317-.125.692.083.975l3.425 4.675c.175.242.458.383.75.383.3 0 .575-.142.75-.383l3.425-4.675c.208-.283.242-.658.083-.975-.158-.317-.483-.508-.833-.508h-2.175V121l-1.975-1.733h-6.433c-.117.008-.234.033-.342.066z"/>
    <path fill="#1DA1F2" d="M108.75 120.525c0-.692-.558-1.242-1.242-1.242h-.733l1.975 1.733v-.49z"/>
    <path fill="#71C9F8" d="M102.208 132.042c.692 0 1.242-.558 1.242-1.242 0-.692-.558-1.242-1.242-1.242H100v2.492h2.208v-.008z"/>
    <path fill="#1DA1F2" d="M77.383 69.25H100v2.55H77.383zM77.383 74.625h21.05v2.55h-21.05zM56.05 89.717v2.558h19.917l-2.917-2.558M82.633 92.275H100v-2.558H79.717"/>
    <path fill="#005FD1" d="M79.717 89.717H73.05l2.917 2.558h6.666"/>
    <path fill="#1DA1F2" d="M90.633 99.292H100v-2.55H87.725M56.05 96.742v2.55h27.917l-2.91-2.55"/>
    <path fill="#005FD1" d="M87.725 96.742h-6.667l2.91 2.55h6.665"/>
    <path fill="#1DA1F2" d="M56.05 102.908v2.55h34.958l-2.916-2.55M97.675 105.458H100v-2.55h-5.242"/>
    <path fill="#005FD1" d="M94.758 102.908h-6.666l2.916 2.55h6.667"/>
    <path fill="#1DA1F2" d="M56.05 109.108v2.56h42.033l-2.908-2.56"/>
    <path fill="#005FD1" d="M95.175 109.108l2.908 2.56H100v-2.56"/>
    <path fill="#1DA1F2" d="M72.492 81.05V69.683c0-1.5-1.217-2.717-2.717-2.717H58.767c-1.283 0-2.35.883-2.633 2.083l15.708 13.766c.408-.474.65-1.09.65-1.766zM56.05 81.05c0 1.5 1.217 2.717 2.717 2.717h7.492l-10.21-8.942v6.225z"/>
    <path fill="#005FD1" d="M71.842 82.817L56.132 69.05c-.05.2-.082.408-.082.633v5.142l10.208 8.942h3.525c.825 0 1.56-.367 2.06-.95z"/>
    <path fill="#1DA1F2" d="M68.325 123.675H65.3v-4.033c0-.383-.217-.733-.558-.9-.342-.167-.75-.133-1.058.1l-7.058 5.375c-.25.192-.4.483-.4.8 0 .317.15.608.4.8l7.058 5.375c.175.133.392.208.608.208.15 0 .308-.033.45-.108.342-.167.558-.517.558-.9v-4.033h3.025c1.85 0 3.358 1.507 3.358 3.357 0 .742.6 1.342 1.342 1.342s1.342-.6 1.342-1.343c.008-3.325-2.71-6.042-6.042-6.042zM99.092 120.525c0 .567.383 1.042.9 1.192v-2.383c-.517.14-.9.616-.9 1.19zM96.292 129.25v-3.433h2.183c.35 0 .675-.2.833-.508.158-.318.125-.693-.083-.976l-3.425-4.667c-.175-.242-.458-.383-.75-.383-.3 0-.575.142-.75.383l-3.425 4.667c-.208.283-.242.658-.083.975s.483.507.833.507h2.183v4.983c0 .692.558 1.242 1.242 1.242H100v-2.492h-3.392c-.175 0-.308-.133-.316-.3z"/>
    <path fill="#71C9F8" d="M137.267 118.425c-2.358 0-3.667 2.4-3.85 2.675-.183-.275-1.475-2.675-3.85-2.675-2.133 0-3.858 2.025-3.858 4.158 0 5.033 6.032 10.275 7.716 10.308 1.683-.032 7.717-5.266 7.717-10.307-.018-2.125-1.743-4.158-3.876-4.158z"/>
    <path fill="#71C9F8" d="M145.35 147.25L46.175 60.317c-2.425-2.125-2.675-5.817-.542-8.242 2.125-2.425 5.817-2.667 8.242-.542l99.183 86.925c2.425 2.125 2.667 5.817.542 8.242-2.133 2.433-5.825 2.675-8.25.55z"/>
</svg>
