<svg xmlns="http://www.w3.org/2000/svg" width="24" height="24" viewBox="0 0 24 24">
    <path id="bounds" opacity="0" d="M0 0h24v24H0z"/>
    <circle cx="12.007" cy="1.75" r=".75"/>
    <circle cx="11.993" cy="22.25" r=".75"/>
    <circle cx="22.25" cy="12.007" r=".75"/>
    <circle cx="1.75" cy="11.993" r=".75"/>
    <circle cx="19.253" cy="4.757" r=".75"/>
    <circle cx="4.747" cy="19.243" r=".75"/>
    <circle cx="19.243" cy="19.253" r=".75"/>
    <circle cx="4.757" cy="4.747" r=".75"/>
    <circle cx="14.66" cy="2.101" r=".75"/>
    <circle cx="9.34" cy="21.899" r=".75"/>
    <circle cx="21.899" cy="14.66" r=".75"/>
    <circle cx="2.101" cy="9.34" r=".75"/>
    <circle cx="20.88" cy="6.881" r=".75"/>
    <circle cx="3.12" cy="17.119" r=".75"/>
    <circle cx="17.119" cy="20.88" r=".75"/>
    <circle cx="6.881" cy="3.12" r=".75"/>
    <circle cx="17.131" cy="3.127" r=".75"/>
    <circle cx="6.869" cy="20.873" r=".75"/>
    <circle cx="20.873" cy="17.131" r=".75"/>
    <circle cx="3.127" cy="6.869" r=".75"/>
    <circle cx="21.903" cy="9.354" r=".75"/>
    <circle cx="2.097" cy="14.646" r=".75"/>
    <circle cx="14.646" cy="21.903" r=".75"/>
    <circle cx="9.354" cy="2.097" r=".75"/>
    <path d="M3.997 12.01c0 4.417 3.582 8 8 8s8-3.583 8-8-3.582-8-8-8-8 3.58-8 8zm1.5 0c0-3.59 2.91-6.5 6.5-6.5s6.5 2.91 6.5 6.5-2.91 6.5-6.5 6.5-6.5-2.91-6.5-6.5z"/>
    <path d="M11.997 8.01c-2.21 0-4 1.79-4 4 0 2.208 1.79 4 4 4s4-1.792 4-4c0-2.21-1.79-4-4-4zm0 6c-1.105 0-2-.896-2-2 0-1.106.895-2 2-2s2 .894 2 2c0 1.104-.895 2-2 2z"/>
</svg>
