<svg xmlns="http://www.w3.org/2000/svg" width="24" height="24" viewBox="0 0 24 24">
    <path id="bounds" opacity="0" d="M0 0h24v24H0z"/>
    <path d="M20.5 2.02h-17c-1.24 0-2.25 1.007-2.25 2.247v15.507c0 1.238 1.01 2.246 2.25 2.246h17c1.24 0 2.25-1.008 2.25-2.246V4.267c0-1.24-1.01-2.247-2.25-2.247zM7.463 15.2h-3.25V8.796H5.9v4.72h1.563V15.2zm2.627 0H8.404V8.796h1.686V15.2zm4.013.005H12.195l-1.313-6.41h1.686l.58 3.82.582-3.82h1.686l-1.313 6.41zm5.685-4.724h-1.883v.762h1.414v1.574h-1.415v.7h1.883V15.2H16.22V8.796h3.568v1.686z"/>
</svg>
