<svg xmlns="http://www.w3.org/2000/svg" width="24" height="24" viewBox="0 0 24 24">
    <path id="bounds" opacity="0" d="M0 0h24v24H0z"/>
    <path d="M19.788 10.48V8.796h-3.57V15.2h3.57v-1.685h-1.884v-.7h1.415v-1.573h-1.416v-.76M13.147 12.616l-.58-3.82H10.88l1.312 6.41H14.104l1.31-6.41H13.73M8.404 8.795h1.686V15.2H8.404zM5.898 8.795H4.212V15.2h3.25v-1.685H5.9"/>
    <path d="M20.5 2.02h-17c-1.24 0-2.25 1.007-2.25 2.247v15.507c0 1.238 1.01 2.246 2.25 2.246h17c1.24 0 2.25-1.008 2.25-2.246V4.267c0-1.24-1.01-2.247-2.25-2.247zm.75 17.754c0 .41-.336.746-.75.746h-17c-.414 0-.75-.336-.75-.746V4.267c0-.412.336-.747.75-.747h17c.414 0 .75.335.75.747v15.507z"/>
</svg>
