<?xml version="1.0" encoding="utf-8"?>
<svg version="1.1" xmlns="http://www.w3.org/2000/svg" xmlns:xlink="http://www.w3.org/1999/xlink" x="0px" y="0px" width="34" height="51" viewBox="0 0 34 51" enable-background="new 0 0 34 51" xml:space="preserve">
<g id="bounds"><rect opacity="0" width="34" height="51"/></g>
<g id="icon">
<path d="M17,0.086C7.626,0.089,0,7.716,0,17.09c0,2.365,0.635,4.648,1.365,6.669c0.73,2.02,11.126,23.68,13.147,25.899C15.555,50.805,16.22,51,17,51c0.78,0,1.444-0.195,2.489-1.343c2.021-2.22,12.417-23.88,13.147-25.899C33.365,21.739,34,19.455,34,17.09C33.999,7.716,26.374,0.089,17,0.086z M17.004,28.038c-6.065,0-10.981-4.917-10.981-10.981S10.939,6.076,17.004,6.076s10.981,4.917,10.981,10.981S23.069,28.038,17.004,28.038z"/>
</g>
</svg>
