<svg xmlns="http://www.w3.org/2000/svg" width="24" height="24" viewBox="0 0 24 24">
    <path id="bounds" opacity="0" d="M0 0h24v24H0z"/>
    <path d="M23 11.25h-1.788c-.364-4.502-3.96-8.098-8.462-8.462V1c0-.414-.336-.75-.75-.75s-.75.336-.75.75v1.788c-4.502.364-8.098 3.96-8.462 8.462H1c-.414 0-.75.336-.75.75s.336.75.75.75h1.788c.364 4.502 3.96 8.097 8.462 8.46V23c0 .414.336.75.75.75s.75-.336.75-.75v-1.79c4.502-.363 8.098-3.96 8.462-8.46H23c.414 0 .75-.336.75-.75s-.336-.75-.75-.75zm-11 8.5c-4.28 0-7.75-3.47-7.75-7.75S7.72 4.25 12 4.25c4.28 0 7.75 3.47 7.75 7.75s-3.47 7.75-7.75 7.75z"/>
    <circle cx="12" cy="12" r="4.5"/>
</svg>
