<svg xmlns="http://www.w3.org/2000/svg" width="24" height="24" viewBox="0 0 24 24">
    <path id="bounds" opacity="0" d="M0 0h24v24H0z"/>
    <path d="M19.75 7.31h-1.88C17.68 4.23 15.124 1.784 12 1.784S6.32 4.232 6.13 7.31H4.25C3.01 7.31 2 8.317 2 9.56V19.79c0 1.24 1.01 2.25 2.25 2.25h15.5c1.24 0 2.25-1.01 2.25-2.25V9.56c0-1.242-1.01-2.25-2.25-2.25zm-7 8.377v1.396c0 .414-.336.75-.75.75s-.75-.336-.75-.75v-1.396c-.764-.3-1.307-1.04-1.307-1.91 0-1.137.92-2.058 2.057-2.058 1.136 0 2.057.92 2.057 2.056 0 .87-.543 1.61-1.307 1.91zM7.648 7.31C7.838 5.06 9.705 3.284 12 3.284s4.163 1.777 4.352 4.023H7.648z"/>
</svg>
