<svg xmlns="http://www.w3.org/2000/svg" width="24" height="24" viewBox="0 0 24 24">
    <path id="bounds" opacity="0" d="M0 0h24v24H0z"/>
    <path d="M19.742 3.513c-.524-.484-2.642-2.02-7.36-2.042 0 0-5.562-.334-8.274 2.153-1.51 1.51-2.04 3.72-2.097 6.458-.055 2.74-.127 7.873 4.82 9.265h.005l-.003 2.124s-.032.86.535 1.034c.685.213 1.087-.44 1.74-1.145.36-.388.855-.956 1.23-1.39 3.383.285 5.986-.366 6.28-.462.684-.222 4.55-.717 5.18-5.85.65-5.29-.314-8.637-2.055-10.145zm.574 9.764c-.53 4.287-3.667 4.556-4.245 4.74-.245.08-2.53.65-5.405.46 0 0-2.142 2.585-2.81 3.257-.105.105-.228.147-.31.127-.115-.027-.147-.164-.145-.363l.018-3.53c-4.186-1.16-3.942-5.53-3.894-7.817S4 5.988 5.278 4.728c2.294-2.078 7.02-1.767 7.02-1.767 3.99.018 5.9 1.22 6.345 1.623 1.47 1.26 2.22 4.275 1.673 8.694z"/>
    <path d="M15.96 10.426c-.002.145-.12.26-.266.26h-.006c-.147-.002-.264-.124-.26-.27.02-.913-.242-1.65-.797-2.258-.554-.606-1.314-.936-2.323-1.01-.147-.01-.257-.14-.247-.286.01-.147.14-.257.285-.247 1.135.083 2.037.48 2.68 1.182.643.703.958 1.588.936 2.63z"/>
    <path d="M14.592 9.948c.007.147-.106.272-.253.28h-.014c-.14 0-.26-.11-.266-.253-.045-.907-.472-1.35-1.342-1.395-.147-.008-.26-.133-.253-.28.008-.147.133-.26.28-.253 1.15.06 1.788.717 1.847 1.9zM17.362 10.966c0 .147-.117.267-.265.27h-.002c-.147 0-.266-.12-.267-.266-.012-1.61-.495-2.89-1.436-3.807-.942-.92-2.133-1.39-3.54-1.4-.146 0-.265-.12-.264-.268 0-.147.12-.265.267-.265h.002c1.548.01 2.863.532 3.907 1.55 1.047 1.02 1.584 2.43 1.598 4.186z"/>
	<path d="M16.9 15.007l-.003.008c-.218.378-.495.718-.82 1.01-.003 0-.003.003-.006.005-.28.236-.56.37-.83.402-.04.007-.082.01-.123.008-.12 0-.24-.017-.354-.054l-.01-.013c-.42-.118-1.12-.415-2.286-1.058-.675-.368-1.318-.793-1.922-1.27-.303-.238-.59-.494-.864-.765l-.028-.03-.03-.03-.028-.03-.03-.028c-.27-.273-.527-.562-.765-.864-.478-.603-.902-1.246-1.27-1.92C6.886 9.21 6.59 8.51 6.472 8.09l-.014-.01c-.037-.114-.055-.234-.054-.354-.002-.04 0-.08.007-.122.035-.272.17-.55.404-.833.002 0 .004 0 .006-.005.29-.325.63-.6 1.01-.82h.007c.38-.2.74-.132.985.157.002.002.51.612.728.91.224.316.433.642.625.98.25.447.093.907-.152 1.096l-.497.393c-.25.203-.217.578-.217.578s.733 2.776 3.473 3.476c0 0 .375.032.577-.217l.394-.495c.19-.246.648-.402 1.097-.152.337.192.664.4.98.625.297.22.907.728.91.728.29.245.357.605.16.984z"/>
</svg>
