<svg xmlns="http://www.w3.org/2000/svg" width="24" height="24" viewBox="0 0 24 24">
    <path id="bounds" opacity="0" d="M0 0h24v24H0z"/>
    <path d="M20.817 6.207l-7.19 7.088c-.904.89-2.373.89-3.276 0l-7.18-7.08C3.38 6.08 3.627 6 3.893 6h16.215c.26 0 .505.076.71.207zM8.223 12.084l-5.458 5.382c-.123-.2-.194-.437-.194-.69V7.322c0-.233.062-.452.17-.642l5.483 5.406zM21.43 7.32v9.457c0 .197-.045.383-.122.55L15.87 11.97l5.383-5.306c.11.193.176.418.176.657z"/>
    <path d="M20.91 17.825c-.222.17-.5.273-.803.273H3.892c-.247 0-.48-.07-.678-.188l5.458-5.382 1.235 1.216c.574.567 1.328.85 2.082.85.752 0 1.506-.283 2.08-.85l1.352-1.332 5.49 5.413z"/>
</svg>
