<svg xmlns="http://www.w3.org/2000/svg" width="24" height="24" viewBox="0 0 24 24">
    <path id="bounds" opacity="0" d="M0 0h24v24H0z"/>
    <path d="M12 2.572c-5.31 0-9.43 3.89-9.43 9.145 0 2.75 1.128 5.124 2.963 6.765.154.138.247.33.253.538l.052 1.677c.016.535.57.883 1.058.667l1.87-.826c.16-.07.338-.084.505-.037.86.237 1.776.363 2.73.363 5.312 0 9.43-3.89 9.43-9.145 0-5.256-4.12-9.146-9.43-9.146zm5.662 7.036l-2.77 4.394c-.44.7-1.384.873-2.045.378l-2.203-1.653c-.202-.15-.48-.15-.68.002l-2.977 2.257c-.397.302-.915-.174-.65-.595l2.77-4.394c.44-.7 1.385-.873 2.046-.377l2.203 1.653c.202.15.48.15.68-.002l2.976-2.257c.397-.302.916.174.65.595z"/>
</svg>
