<svg xmlns="http://www.w3.org/2000/svg" width="24" height="24" viewBox="0 0 24 24">
    <path id="bounds" opacity="0" d="M0 0h24v24H0z"/>
    <path d="M6.533 14.488c0 1.09-.89 1.98-1.98 1.98-1.09 0-1.982-.89-1.982-1.98 0-1.09.892-1.98 1.982-1.98h1.98v1.98zM7.53 14.488c0-1.09.892-1.98 1.982-1.98 1.09 0 1.98.89 1.98 1.98v4.96c0 1.09-.89 1.98-1.98 1.98-1.09 0-1.98-.89-1.98-1.98v-4.96zM9.512 6.533c-1.09 0-1.98-.89-1.98-1.98 0-1.09.89-1.98 1.98-1.98 1.09 0 1.98.89 1.98 1.98v1.98h-1.98zM9.512 7.53c1.09 0 1.98.892 1.98 1.982 0 1.09-.89 1.98-1.98 1.98h-4.96c-1.09 0-1.98-.89-1.98-1.98 0-1.09.89-1.98 1.98-1.98h4.96zM17.467 9.512c0-1.09.89-1.98 1.98-1.98 1.09 0 1.982.89 1.982 1.98 0 1.09-.892 1.98-1.982 1.98h-1.98v-1.98zM16.47 9.512c0 1.09-.892 1.98-1.982 1.98-1.09 0-1.98-.89-1.98-1.98v-4.96c0-1.09.89-1.98 1.98-1.98 1.09 0 1.98.89 1.98 1.98v4.96zM14.488 17.467c1.09 0 1.98.89 1.98 1.98 0 1.09-.89 1.982-1.98 1.982-1.09 0-1.98-.892-1.98-1.982v-1.98h1.98zM14.488 16.47c-1.09 0-1.98-.892-1.98-1.982 0-1.09.89-1.98 1.98-1.98h4.96c1.09 0 1.98.89 1.98 1.98 0 1.09-.89 1.98-1.98 1.98h-4.96z"/>
</svg>
