<?xml version="1.0" encoding="utf-8"?>
<svg xmlns="http://www.w3.org/2000/svg" viewBox="0 0 24 24">
    <path d="M17.1 2.3H6.9C4.8 2.3 3.1 4 3.1 6.1v9.8c0 2.1 1.7 3.8 3.8 3.8h2.2v1.4c0 1.2 1.4 1.8 2.3 1.1l2.2-1.8c.5-.4 1.2-.7 1.8-.7h1.7c2.1 0 3.8-1.7 3.8-3.8V6.1c0-2.1-1.7-3.8-3.8-3.8zm0 15.8h-1.7c-1.1 0-2.1.4-2.9 1l-1.7 1.4v-.9c0-.9-.7-1.6-1.6-1.6H6.9c-1.2 0-2.2-1-2.2-2.2V6.1C4.8 5 5.7 4 6.9 4H17c1.2 0 2.2 1 2.2 2.2V16c0 1.1-.9 2.1-2.1 2.1zM14.7 13c-1.5 1.2-3.6 1.2-5 .1l-.1-.1c-.3-.2-.8-.2-1 .1s-.2.8.1 1l.1.1c2 1.5 4.8 1.5 6.8 0l.1-.1c.3-.2.4-.7.1-1-.3-.2-.7-.3-1.1-.1zm.3-5.7c-.8 0-1.4.7-1.4 1.6s.6 1.6 1.4 1.6c.8 0 1.4-.7 1.4-1.6s-.6-1.6-1.4-1.6zm-4.5 2.8c.2.1.4 0 .5-.1s.2-.3.2-.5C11 7.9 8.8 7.3 8.6 7.3c-.3-.1-.6.1-.7.4-.1.3.1.6.4.7.3.1.7.2 1 .4-.7 0-1.2.3-1.4.5-.2.2-.3.5-.1.8.1.1.3.2.4.2.1 0 .2 0 .3-.1.3-.2 1-.5 2-.1z"/>
</svg>
