<svg xmlns="http://www.w3.org/2000/svg" width="24" height="24" viewBox="0 0 24 24">
    <path id="bounds" opacity="0" d="M0 0h24v24H0z"/>
    <path d="M3.014 11.012c5.06-2.207 8.438-3.658 10.124-4.358 4.823-2.01 5.82-2.356 6.472-2.368.143 0 .465.03.676.204.174.143.223.335.248.47.025.138.05.442.03.683-.26 2.747-1.388 9.405-1.964 12.48-.242 1.302-.726 1.736-1.184 1.78-1.01.092-1.773-.664-2.753-1.31-1.525-1.003-2.393-1.623-3.874-2.603-1.713-1.128-.603-1.748.37-2.765.255-.266 4.7-4.302 4.786-4.674.013-.043.02-.216-.08-.31-.1-.092-.254-.06-.36-.036-.155.043-2.597 1.66-7.327 4.848-.696.477-1.322.706-1.886.694-.62-.013-1.81-.353-2.697-.64-1.085-.352-1.953-.538-1.878-1.14.042-.31.47-.625 1.294-.954z"/>
</svg>
