<svg xmlns="http://www.w3.org/2000/svg" width="24" height="24" viewBox="0 0 24 24">
    <path id="bounds" opacity="0" d="M0 0h24v24H0z"/>
    <path d="M12 1.85C5.925 1.85 1 5.73 1 10.52c0 3.097 2.06 5.814 5.156 7.35-.17.58-1.083 3.737-1.12 3.985 0 0-.02.186.1.257s.263.016.263.016c.345-.048 4.012-2.624 4.647-3.072.634.09 1.287.136 1.954.136 6.076 0 11-3.883 11-8.673 0-4.788-4.925-8.67-11-8.67zM6.553 12.943c0 .334-.285.606-.635.606s-.635-.272-.635-.606v-3.77h-.99c-.343 0-.623-.28-.623-.62 0-.344.28-.622.623-.622h3.25c.343 0 .623.28.623.62 0 .344-.28.622-.623.622h-.99v3.77zm5.333.51c-.127.058-.264.088-.403.087-.265 0-.467-.106-.528-.28l-.314-.822H8.707l-.314.823c-.06.174-.263.28-.528.28-.14 0-.277-.03-.403-.087-.174-.08-.342-.303-.15-.9l1.52-3.996c.104-.304.43-.617.843-.626.414.01.74.324.846.628l1.516 3.994c.194.6.025.822-.15.902zm3.208.003h-2.036c-.335 0-.608-.26-.608-.582v-4.31c0-.35.29-.635.648-.635.357 0 .648.285.648.635v3.728h1.35c.334 0 .607.26.607.582 0 .32-.274.582-.61.582zm4.968-.477c-.023.167-.112.317-.246.418-.11.083-.244.128-.382.128-.2 0-.387-.093-.507-.252l-1.488-1.972-.22.22v1.385c0 .35-.285.634-.636.635-.35 0-.635-.285-.635-.635v-4.34c0-.35.284-.636.634-.636s.635.286.635.636V9.93l1.77-1.77c.09-.092.216-.142.352-.142.158 0 .318.068.437.187.11.11.176.254.186.402.01.15-.04.287-.14.386L18.38 10.44l1.562 2.07c.1.133.144.303.12.47z"/>
    <path d="M10.307 11.315H9.04l.633-1.8"/>
</svg>
