<svg xmlns="http://www.w3.org/2000/svg" width="24" height="24" viewBox="0 0 24 24">
    <path id="bounds" opacity="0" d="M0 0h24v24H0z"/>
    <path d="M20.613 16.38c-.87-1.21-3.235-2.373-3.41-4.042 1.162-.458 1.99-1.385 1.88-2.247-.093-.713-.708-.894-1.993-.7.42-3.733-2.337-6.206-5.09-6.21-2.758-.002-5.512 2.472-5.09 6.21-1.268-.26-1.907.035-1.976.84-.07.836.71 1.71 1.805 2.056.326.994-1.304 2.53-2.175 3.093-1.965.636-1.532 2.144.093 2.325.424.08.728.8 1.163 1.023.797.482 1.657.284 2.582.628 1.095.496 1.8.988 3.59.998 1.782-.012 2.39-.53 3.48-1.022.92-.348 1.95-.168 2.744-.65.52-1.287 2.79-.593 2.397-2.303z"/>
    <path fill="#010101" d="M21.36 16.15c-.13-.356-.38-.548-.664-.702-.053-.03-.1-.058-.145-.077l-.26-.13c-.884-.47-1.577-1.06-2.054-1.76-.135-.198-.255-.41-.35-.627-.045-.115-.04-.183-.01-.245.028-.05.066-.087.115-.12.155-.102.31-.203.415-.27.188-.126.342-.222.438-.29.36-.255.616-.524.775-.828.226-.424.255-.92.082-1.368-.242-.636-.84-1.026-1.566-1.026-.154 0-.303.015-.457.048l-.12.03c.004-.434-.006-.892-.044-1.344-.135-1.584-.694-2.413-1.27-3.072-.372-.414-.806-.766-1.292-1.04-.874-.5-1.87-.756-2.954-.756s-2.076.255-2.952.756c-.487.274-.92.626-1.29 1.04-.58.66-1.132 1.492-1.272 3.072-.038.452-.047.91-.042 1.343l-.12-.03c-.15-.032-.304-.047-.453-.047-.727 0-1.325.395-1.565 1.026-.174.448-.145.944.082 1.367.158.302.414.57.775.827.095.067.244.163.437.29l.4.26c.053.032.096.076.13.13.03.06.033.13-.015.254-.096.213-.212.42-.346.61-.468.686-1.142 1.27-2 1.736-.45.24-.923.4-1.126.944-.15.41-.053.872.328 1.267.14.144.303.27.48.366.372.202.767.36 1.18.472.088.024.165.058.237.106.14.12.12.305.303.575.092.14.212.26.347.356.39.27.828.285 1.29.305.42.014.89.033 1.436.21.226.074.457.218.727.387.65.4 1.536.944 3.024.944s2.38-.55 3.034-.948c.27-.164.5-.308.718-.38.54-.18 1.017-.198 1.436-.212.462-.02.9-.034 1.29-.304.164-.115.3-.26.395-.433.136-.227.13-.386.256-.497.067-.047.144-.08.22-.1.415-.11.82-.27 1.195-.477.188-.1.36-.236.506-.395l.005-.004c.376-.385.467-.837.318-1.232l-.003-.004zm-1.32.71c-.803.442-1.343.393-1.757.663-.356.226-.144.718-.4.896-.317.214-1.25-.017-2.455.383-.997.327-1.628 1.276-3.42 1.276-1.79 0-2.407-.945-3.418-1.277-1.204-.4-2.138-.164-2.456-.385-.255-.18-.048-.67-.4-.897-.418-.27-.953-.22-1.757-.664-.515-.284-.22-.457-.053-.54 2.918-1.41 3.385-3.59 3.405-3.755.022-.196.05-.35-.166-.55-.207-.19-1.132-.763-1.392-.942-.424-.298-.61-.592-.472-.958.098-.25.334-.346.58-.346.076 0 .153.01.23.024.467.1.92.332 1.18.4.034.01.063.014.096.014.14 0 .188-.072.178-.23-.028-.512-.1-1.504-.02-2.433.112-1.276.52-1.91 1.012-2.47.236-.27 1.34-1.435 3.453-1.435s3.215 1.16 3.45 1.43c.492.558.9 1.194 1.012 2.47.082.93.01 1.92-.024 2.432-.01.168.037.23.177.23.034 0 .062-.004.096-.014.26-.062.714-.298 1.18-.4.078-.018.155-.023.23-.023.248 0 .484.097.58.348.14.365-.05.66-.472.958-.255.178-1.18.75-1.392.943-.216.196-.188.35-.163.547.02.164.486 2.345 3.404 3.756.172.082.46.26-.05.544l.003.003z"/>
</svg>
