<svg xmlns="http://www.w3.org/2000/svg" width="24" height="24" viewBox="0 0 24 24">
    <path id="bounds" opacity="0" d="M0 0h24v24H0z"/>
    <path d="M12 3.802c2.67 0 2.986.01 4.04.058.976.044 1.505.207 1.858.344.467.18.8.398 1.15.748.35.35.567.683.748 1.15.137.352.3.882.344 1.857.048 1.054.058 1.37.058 4.04s-.01 2.986-.058 4.04c-.044.976-.207 1.505-.344 1.858-.18.467-.398.8-.748 1.15-.35.35-.683.567-1.15.748-.352.137-.882.3-1.857.344-1.053.048-1.37.058-4.04.058s-2.987-.01-4.04-.058c-.976-.044-1.505-.207-1.858-.344-.467-.18-.8-.398-1.15-.748-.35-.35-.567-.683-.748-1.15-.137-.352-.3-.882-.344-1.857-.048-1.054-.058-1.37-.058-4.04s.01-2.986.058-4.04c.044-.976.207-1.505.344-1.858.18-.467.398-.8.748-1.15.35-.35.683-.567 1.15-.748.352-.137.882-.3 1.857-.344 1.054-.048 1.37-.058 4.04-.058M12 2c-2.716 0-3.056.012-4.123.06-1.064.05-1.79.218-2.427.465-.658.256-1.216.597-1.772 1.153S2.78 4.792 2.525 5.45c-.247.636-.416 1.363-.465 2.427C2.012 8.944 2 9.284 2 12s.012 3.056.06 4.123c.05 1.064.218 1.79.465 2.427.256.658.597 1.215 1.153 1.77.556.557 1.114.9 1.77 1.154.637.247 1.364.416 2.428.465 1.068.05 1.408.06 4.124.06s3.056-.01 4.123-.06c1.064-.05 1.79-.218 2.427-.465.658-.256 1.215-.597 1.77-1.153.557-.556.9-1.114 1.154-1.77.247-.637.416-1.364.465-2.428.048-1.068.06-1.408.06-4.124s-.012-3.056-.06-4.123c-.05-1.064-.218-1.79-.465-2.427-.256-.658-.597-1.215-1.153-1.77-.556-.557-1.114-.9-1.77-1.154-.637-.247-1.364-.416-2.428-.465C15.056 2.013 14.716 2 12 2z"/>
    <path d="M12 6.865c-2.836 0-5.135 2.3-5.135 5.135s2.3 5.135 5.135 5.135 5.135-2.3 5.135-5.135-2.3-5.135-5.135-5.135zm0 8.468c-1.84 0-3.333-1.492-3.333-3.333 0-1.84 1.492-3.333 3.333-3.333 1.84 0 3.333 1.492 3.333 3.333 0 1.84-1.492 3.333-3.333 3.333z"/>
    <circle cx="17.338" cy="6.662" r="1.2"/>
</svg>
