<svg xmlns="http://www.w3.org/2000/svg" width="24" height="24" viewBox="0 0 24 24">
    <path id="bounds" opacity="0" d="M0 0h24v24H0z"/>
    <path d="M22.415 12.153c0-1.286-1.043-2.312-2.312-2.312-.623 0-1.195.245-1.61.647-1.59-1.133-3.767-1.875-6.192-1.966l1.06-4.957 3.445.737c.04.872.76 1.57 1.65 1.57.906 0 1.648-.737 1.648-1.65 0-.906-.736-1.648-1.65-1.648-.645 0-1.21.38-1.478.93l-3.836-.817c-.114-.017-.227 0-.3.057-.097.056-.154.153-.17.266l-1.174 5.53c-2.465.074-4.68.81-6.29 1.966-.42-.396-.985-.646-1.608-.646-1.292 0-2.312 1.043-2.312 2.312 0 .946.566 1.74 1.365 2.102-.038.227-.055.454-.055.703 0 3.558 4.147 6.454 9.258 6.454 5.11 0 9.26-2.88 9.26-6.455 0-.227-.018-.476-.058-.703.793-.362 1.36-1.173 1.36-2.12zM6.55 13.796c0-.906.736-1.65 1.648-1.65.907 0 1.65.738 1.65 1.65 0 .907-.737 1.65-1.65 1.65-.912.016-1.648-.737-1.648-1.65zm9.218 4.375c-1.133 1.134-3.292 1.213-3.92 1.213-.646 0-2.805-.096-3.922-1.212-.17-.17-.17-.436 0-.606.17-.17.437-.17.607 0 .72.72 2.232.964 3.315.964 1.082 0 2.612-.244 3.314-.964.17-.17.436-.17.606 0 .153.17.153.437 0 .607zm-.3-2.708c-.906 0-1.65-.736-1.65-1.65 0-.905.738-1.648 1.65-1.648.907 0 1.65.737 1.65 1.65-.007.895-.743 1.648-1.65 1.648z"/>
</svg>
