<svg xmlns="http://www.w3.org/2000/svg" width="24" height="24" viewBox="0 0 24 24">
    <path id="bounds" opacity="0" d="M0 0h24v24H0z"/>
    <path d="M18.604 5.312c-1.764-1.766-4.11-2.74-6.61-2.74-5.15 0-9.342 4.19-9.344 9.344 0 1.646.43 3.254 1.248 4.67L2.57 21.43l4.955-1.3c1.365.744 2.902 1.136 4.465 1.137h.004c5.15 0 9.343-4.192 9.344-9.344.002-2.497-.97-4.845-2.734-6.61zm-6.61 14.377h-.003c-1.393-.002-2.76-.376-3.952-1.084l-.284-.168-2.94.77.785-2.865-.185-.294c-.777-1.238-1.188-2.667-1.187-4.134 0-4.283 3.485-7.766 7.77-7.766 2.073 0 4.023.81 5.49 2.278 1.467 1.468 2.273 3.42 2.273 5.494 0 4.282-3.485 7.767-7.766 7.767zm4.26-5.818c-.233-.117-1.38-.682-1.595-.76-.215-.077-.37-.116-.526.117-.156.233-.604.76-.74.915-.135.156-.272.175-.505.06-.235-.118-.987-.365-1.878-1.16-.695-.62-1.163-1.384-1.3-1.617-.135-.234-.014-.36.103-.476.105-.105.233-.273.35-.41.117-.136.156-.233.234-.39.077-.155.038-.292-.02-.408-.058-.117-.526-1.266-.72-1.734-.19-.455-.382-.394-.526-.4-.136-.007-.29-.008-.447-.008-.156 0-.41.06-.622.292-.214.234-.818.8-.818 1.948 0 1.15.837 2.26.954 2.415.118.156 1.648 2.515 3.99 3.526.556.24.992.384 1.33.49.56.18 1.07.154 1.47.094.45-.067 1.383-.565 1.577-1.11.195-.546.195-1.014.136-1.11-.06-.1-.215-.158-.45-.275z"/>
</svg>
