<svg xmlns="http://www.w3.org/2000/svg" width="24" height="24" viewBox="0 0 24 24">
    <path id="bounds" opacity="0" d="M0 0h24v24H0z"/>
    <path d="M11.926 2.572c-5.392 0-9.783 3.56-9.783 7.937 0 3.924 3.482 7.21 8.182 7.834.32.067.752.208.862.48.098.248.065.635.03.886l-.138.837c-.043.247-.198.968.846.53 1.045-.442 5.635-3.32 7.687-5.682.707-.777 1.233-1.56 1.58-2.37.347-.807.518-1.64.518-2.516 0-4.378-4.388-7.938-9.784-7.938zm-3.45 10.275c0 .105-.086.19-.19.19H5.543c-.05 0-.098-.02-.132-.05l-.002-.006h-.005c-.03-.035-.05-.082-.05-.133v-4.26c0-.106.084-.19.19-.19h.684c.105 0 .19.084.19.19v3.384h1.865c.105 0 .19.086.19.192v.685zm1.654 0c0 .105-.085.19-.19.19h-.688c-.105 0-.19-.085-.19-.19v-4.26c0-.106.085-.19.19-.19h.688c.105 0 .19.084.19.19v4.26zm4.722 0c0 .105-.085.19-.19.19h-.685c-.018 0-.034-.002-.05-.007h-.002c-.004 0-.01-.002-.013-.004-.003 0-.005 0-.007-.002l-.01-.002c0-.003-.006-.005-.008-.005l-.004-.004-.014-.007v-.002c-.02-.012-.037-.027-.05-.047l-1.957-2.64v2.53c0 .105-.085.19-.19.19h-.686c-.105 0-.19-.085-.19-.19v-4.26c0-.106.085-.19.19-.19h.722c.003.003.007.003.012.003.002.002.004.002.006.002.003.002.007.002.01.005.004 0 .004 0 .006.002.004 0 .01 0 .01.003.003 0 .006.003.008.003l.01.006s.003.003.006.003l.01.006c0 .004.003.004.005.006.004.002.008.004.01.01h.005c.004.005.006.01.01.012 0 .002 0 .002.003.002l.014.02 1.954 2.638V8.586c0-.105.085-.19.19-.19h.686c.105 0 .19.085.19.19v4.26zm3.79-3.576c0 .106-.086.19-.19.19h-1.865v.722h1.866c.103 0 .188.085.188.19v.688c0 .105-.084.19-.187.19h-1.866v.72h1.866c.103 0 .188.086.188.192v.685c0 .105-.084.19-.187.19H15.71c-.052 0-.097-.02-.132-.05 0-.004-.003-.004-.003-.004l-.002-.004c-.033-.035-.054-.082-.054-.133v-4.26c0-.053.02-.1.053-.133l.002-.003h.003c.033-.034.08-.054.132-.054h2.743c.103 0 .188.085.188.19v.685z"/>
</svg>
