<svg xmlns="http://www.w3.org/2000/svg" width="24" height="24" viewBox="0 0 24 24">
    <path id="bounds" opacity="0" d="M0 0h24v24H0z"/>
    <path d="M19.687 22H7.813C6.538 22 5.5 20.962 5.5 19.687v-4.452c0-.414.336-.75.75-.75s.75.335.75.75v4.45c0 .45.365.815.813.815h11.873c.448 0 .813-.365.813-.813V7.813c0-.448-.365-.813-.813-.813h-4.452c-.414 0-.75-.336-.75-.75s.336-.75.75-.75h4.452C20.962 5.5 22 6.538 22 7.813v11.873C22 20.962 20.962 22 19.687 22z"/>
    <path d="M11.25 4.045c-.414 0-.75.336-.75.75V9.44L3.064 2.004c-.293-.293-.768-.293-1.06 0s-.294.768 0 1.06L9.438 10.5H4.804c-.414 0-.75.336-.75.75s.336.75.75.75h6.445c.414 0 .75-.336.75-.75V4.795c0-.414-.336-.75-.75-.75z"/>
</svg>
