<svg xmlns="http://www.w3.org/2000/svg" width="32" height="32" viewBox="0 0 32 32">
    <path id="bounds" opacity="0" d="M0 0h32v32H0z"/>
    <path d="M16 23.745c-3.5 0-6.347-2.847-6.347-6.346 0-3.5 2.847-6.35 6.347-6.35s6.347 2.848 6.347 6.348c0 3.498-2.847 6.345-6.347 6.345v.002zm0-11.192c-2.672 0-4.847 2.174-4.847 4.847 0 2.672 2.174 4.846 4.847 4.846s4.847-2.174 4.847-4.846c0-2.673-2.175-4.847-4.847-4.847z"/>
    <path d="M27.092 29.342H4.908c-1.24 0-2.25-1.01-2.25-2.25V9.105c0-1.24 1.01-2.25 2.25-2.25h3.658c1.55-2.6 4.36-4.197 7.434-4.197s5.882 1.597 7.434 4.197h3.658c1.24 0 2.25 1.01 2.25 2.25V27.09c0 1.242-1.01 2.252-2.25 2.252zM4.908 8.355c-.414 0-.75.337-.75.75V27.09c0 .414.336.75.75.75h22.185c.414 0 .75-.336.75-.75V9.106c0-.413-.336-.75-.75-.75h-4.097c-.278 0-.534-.154-.664-.4C21.097 5.614 18.672 4.16 16 4.16s-5.098 1.454-6.332 3.796c-.13.246-.385.4-.664.4H4.908z"/>
</svg>
