<svg xmlns="http://www.w3.org/2000/svg" width="24" height="24" viewBox="0 0 24 24">
    <path id="bounds" opacity="0" d="M0 0h24v24H0z"/>
    <path d="M3.5 19.44v-4c0-.414-.336-.75-.75-.75s-.75.336-.75.75v5.81c0 .414.336.75.75.75h5.81c.414 0 .75-.336.75-.75s-.336-.75-.75-.75h-4l6.577-6.576c.146-.146.22-.338.22-.53s-.073-.384-.22-.53c-.293-.293-.768-.293-1.06 0L3.5 19.44zM14.69 2.75c0 .414.336.75.75.75h4l-6.577 6.576c-.293.293-.293.768 0 1.06s.768.294 1.06 0L20.5 4.562v4c0 .414.336.75.75.75s.75-.336.75-.75V2.75c0-.414-.336-.75-.75-.75h-5.81c-.414 0-.75.336-.75.75z"/>
</svg>
