<svg xmlns="http://www.w3.org/2000/svg" width="32" height="32" viewBox="0 0 32 32">
    <path id="bounds" opacity="0" d="M0 0h32v32H0z"/>
    <path d="M28.05 6.52h-5.42V4.887c0-1.548-1.26-2.808-2.81-2.808H12.28c-1.548 0-2.807 1.26-2.807 2.808v1.63H4.05c-.414 0-.75.337-.75.75s.336.75.75.75h.753L7 26.435c.27 1.504 1.657 2.554 3.37 2.554h11.36c1.713 0 3.1-1.05 3.376-2.598l2.19-18.37h.753c.413 0 .75-.337.75-.75s-.336-.75-.75-.75zM10.972 4.887c0-.72.586-1.308 1.307-1.308h7.542c.72 0 1.308.587 1.308 1.308v1.63H10.972V4.89zm12.65 21.28c-.163.91-1.068 1.32-1.893 1.32H10.37c-.824 0-1.73-.41-1.887-1.276L6.313 8.02h19.472l-2.162 18.148z"/>
    <path d="M13.312 23.123c.414 0 .75-.336.75-.75v-9.6c0-.414-.336-.75-.75-.75s-.75.336-.75.75v9.6c0 .414.336.75.75.75zM18.798 23.123c.414 0 .75-.336.75-.75v-9.6c0-.414-.336-.75-.75-.75s-.75.336-.75.75v9.6c0 .414.336.75.75.75z"/>
</svg>
