<svg xmlns="http://www.w3.org/2000/svg" width="24" height="24" viewBox="0 0 24 24">
    <path id="bounds" opacity="0" d="M0 0h24v24H0z"/>
    <path d="M3.983 13.605c0 .414.336.75.75.75H8.57l-6.357 6.357c-.297.297-.297.777 0 1.074s.777.297 1.074 0l6.357-6.357v3.828c0 .414.336.75.75.75s.75-.336.75-.75v-5.653c0-.414-.336-.75-.75-.75h-5.66c-.415 0-.75.336-.75.75zM20.713 2.213L14.355 8.57V4.74c0-.413-.336-.75-.75-.75s-.75.337-.75.75v5.654c0 .414.336.75.75.75h5.653c.414 0 .75-.336.75-.75s-.336-.75-.75-.75H15.43l6.357-6.357c.148-.148.223-.343.223-.537s-.074-.39-.223-.537c-.297-.297-.777-.297-1.074 0z"/>
</svg>
