<svg xmlns="http://www.w3.org/2000/svg" width="24" height="24" viewBox="0 0 24 24">
    <path id="bounds" opacity="0" d="M0 0h24v24H0z"/>
    <path d="M11.603 5.192c-.414 0-.75-.336-.75-.75V2.054c0-.414.336-.75.75-.75s.75.336.75.75v2.39c0 .412-.336.748-.75.748zM11.603 23.112c-.414 0-.75-.336-.75-.75v-2.39c0-.414.336-.75.75-.75s.75.336.75.75v2.39c0 .414-.336.75-.75.75zM8.947 5.66c-.306 0-.594-.187-.705-.492l-.817-2.245c-.142-.39.06-.82.448-.962.39-.14.82.06.96.45l.818 2.244c.143.39-.058.82-.447.962-.084.03-.17.045-.256.045zM15.076 22.5c-.306 0-.594-.188-.705-.493l-.816-2.245c-.142-.39.06-.82.448-.962.388-.14.82.06.96.448l.818 2.245c.142.39-.06.82-.448.962-.084.03-.17.045-.256.045zM6.612 7.01c-.214 0-.427-.09-.575-.268L4.5 4.912c-.265-.317-.224-.79.094-1.057.317-.268.79-.225 1.057.092l1.537 1.83c.266.317.225.79-.093 1.057-.14.118-.312.176-.482.176zM18.13 20.736c-.214 0-.427-.09-.575-.268l-1.536-1.83c-.267-.317-.226-.79.092-1.057.317-.267.79-.225 1.057.093l1.535 1.83c.266.317.225.79-.093 1.057-.14.12-.312.176-.482.176zM4.877 9.075c-.127 0-.256-.032-.375-.1L2.434 7.78c-.36-.207-.482-.666-.275-1.024.207-.358.666-.48 1.023-.274l2.07 1.194c.36.207.48.666.274 1.024-.138.24-.39.375-.65.375zM20.396 18.035c-.127 0-.256-.032-.375-.1l-2.068-1.195c-.36-.207-.48-.666-.274-1.024.208-.36.667-.48 1.024-.274l2.07 1.194c.358.207.48.666.273 1.024-.137.24-.39.375-.65.375zM3.957 11.61c-.043 0-.087-.005-.13-.013l-2.354-.415c-.408-.07-.68-.46-.608-.868.072-.408.464-.68.87-.608l2.352.415c.408.072.68.462.608.87-.065.364-.382.62-.738.62zM21.604 14.72c-.043 0-.087-.003-.13-.01l-2.354-.415c-.408-.07-.68-.46-.61-.868s.466-.68.87-.608l2.353.413c.408.07.68.46.61.868-.065.365-.382.62-.74.62zM1.602 14.72c-.357 0-.674-.255-.738-.62-.072-.407.2-.796.61-.867l2.352-.414c.404-.07.797.2.87.607.07.408-.202.797-.61.868l-2.353.414c-.045.007-.088.01-.13.01zM19.25 11.61c-.358 0-.674-.257-.74-.62-.07-.408.202-.798.61-.87l2.352-.414c.406-.07.797.2.87.608.07.407-.202.797-.61.868l-2.352.415c-.044.008-.088.012-.13.012zM2.81 18.035c-.26 0-.512-.135-.65-.375-.208-.358-.085-.817.273-1.024l2.07-1.194c.356-.208.816-.084 1.023.274s.084.817-.274 1.024l-2.07 1.194c-.117.07-.245.1-.373.1zM18.328 9.075c-.26 0-.51-.135-.65-.375-.207-.358-.084-.817.274-1.024l2.07-1.194c.358-.207.816-.084 1.023.274s.084.817-.274 1.024l-2.068 1.194c-.118.07-.246.1-.374.1zM5.075 20.736c-.17 0-.34-.058-.48-.176-.318-.266-.36-.74-.094-1.057l1.537-1.83c.267-.317.74-.36 1.057-.092.317.267.36.74.093 1.058l-1.536 1.83c-.148.178-.36.268-.575.268zM16.594 7.01c-.17 0-.34-.058-.48-.176-.318-.266-.36-.74-.094-1.057l1.536-1.83c.266-.316.74-.36 1.057-.092.317.266.36.74.093 1.057l-1.536 1.83c-.15.177-.362.268-.576.268zM8.13 22.5c-.085 0-.172-.015-.256-.045-.39-.142-.59-.572-.448-.962l.817-2.245c.142-.39.572-.586.96-.448.39.142.59.572.45.962l-.818 2.245c-.11.304-.4.493-.705.493zM14.26 5.66c-.086 0-.173-.014-.257-.044-.39-.142-.59-.572-.448-.962l.817-2.245c.142-.39.575-.588.96-.45.39.143.59.573.45.963l-.818 2.245c-.11.305-.4.493-.705.493z"/>
</svg>
