<svg xmlns="http://www.w3.org/2000/svg" width="24" height="24" viewBox="0 0 24 24">
    <path id="bounds" opacity="0" d="M0 0h24v24H0z"/>
    <path d="M3 8c-.553 0-1 .447-1 1v6c0 .553.447 1 1 1 .442 0 .805-.29.937-.69l3.22 1.07c-.092.36-.157.73-.157 1.12 0 2.48 2.02 4.5 4.5 4.5 1.88 0 3.488-1.16 4.16-2.8l2.34.777V4.023L3.937 8.69C3.805 8.29 3.442 8 3 8zm8.5 12C10.12 20 9 18.88 9 17.5c0-.17.018-.333.05-.493l4.702 1.56C13.35 19.41 12.496 20 11.5 20zM21 2c-.553 0-1 .447-1 1v18c0 .553.447 1 1 1s1-.447 1-1V3c0-.553-.447-1-1-1z"/>
</svg>
