<svg xmlns="http://www.w3.org/2000/svg" width="24" height="24" viewBox="0 0 24 24">
    <path id="bounds" opacity="0" d="M0 0h24v24H0z"/>
    <path d="M21.493 2.315c-.33-.237-.758-.304-1.146-.174L12 4.924 3.673 2.14c-.387-.126-.815-.062-1.146.175-.33.238-.527.624-.527 1.03V17.71c0 .548.35 1.032.868 1.204l8.888 2.97h.004c.077.026.158.04.24.04s.163-.014.24-.04h.004l8.905-2.97c.52-.172.87-.656.87-1.205V3.345c0-.407-.197-.793-.527-1.03zM3.54 3.722l7.69 2.57v13.79l-7.69-2.57V3.723zm16.94 13.79l-7.71 2.57V6.293l7.71-2.57v13.79z"/>
</svg>
