<svg xmlns="http://www.w3.org/2000/svg" width="24" height="24" viewBox="0 0 24 24">
    <path id="bounds" opacity="0" d="M0 0h24v24H0z"/>
    <path d="M20.075 10.12c-.414 0-.75.337-.75.75v8.08c0 .413-.337.75-.75.75H4.095c-.412 0-.75-.337-.75-.75V8.292l6.778 4.518c.368.247.79.37 1.213.37.422 0 .844-.123 1.212-.368l4.53-3.014c.336-.223.428-.676.204-1.012-.223-.334-.675-.427-1.012-.203l-4.53 3.015c-.246.162-.563.163-.808 0l-7.586-5.06V5.496c0-.414.337-.75.75-.75h8.092c.414 0 .75-.336.75-.75s-.336-.75-.75-.75H4.096c-1.24 0-2.25 1.01-2.25 2.25V18.95c0 1.24 1.01 2.25 2.25 2.25h14.48c1.24 0 2.25-1.01 2.25-2.25v-8.078c0-.415-.337-.75-.75-.75zm3.165-6.87h-5.624l1.64-1.64c.315-.317.315-.828 0-1.144-.316-.315-.826-.316-1.143 0l-2.96 2.96c-.157.16-.236.367-.236.574 0 .207.08.414.237.57l2.96 2.962c.16.158.365.236.572.236s.413-.08.57-.236c.316-.315.316-.827 0-1.143l-1.64-1.64h5.623c.412 0 .75-.338.75-.75s-.338-.75-.75-.75z"/>
</svg>
