<svg xmlns="http://www.w3.org/2000/svg" width="24" height="24" viewBox="0 0 24 24">
    <path id="bounds" opacity="0" d="M0 0h24v24H0z"/>
    <path d="M17.97 8.24c-.414 0-.75.336-.75.75v3.012c0 2.726-2.268 4.943-5.056 4.943h-.328c-2.788 0-5.056-2.217-5.056-4.943V8.99c0-.414-.336-.75-.75-.75s-.75.336-.75.75v3.012c0 3.363 2.636 6.128 5.984 6.414l-.01 2.334H8.268c-.415 0-.75.336-.75.75s.335.75.75.75h7.46c.414 0 .75-.336.75-.75s-.336-.75-.75-.75h-2.977l.01-2.335c3.335-.3 5.956-3.06 5.956-6.413V8.99c0-.415-.336-.75-.75-.75z"/>
    <path d="M12 15.42c2.077 0 3.766-1.688 3.766-3.765v-6.14c0-2.076-1.69-3.765-3.766-3.765S8.234 3.44 8.234 5.516v6.14c0 2.075 1.69 3.765 3.766 3.765zM9.734 5.517c0-1.25 1.016-2.266 2.266-2.266s2.266 1.017 2.266 2.266v6.14c0 1.25-1.017 2.265-2.266 2.265s-2.266-1.016-2.266-2.265v-6.14z"/>
</svg>
