<svg xmlns="http://www.w3.org/2000/svg" width="24" height="24" viewBox="0 0 24 24">
    <path id="bounds" opacity="0" d="M0 0h24v24H0z"/>
    <path d="M17.97 7.585c-.552 0-1 .448-1 1v3.417c0 2.588-2.156 4.693-4.806 4.693h-.328c-2.65 0-4.806-2.105-4.806-4.693V8.585c0-.552-.448-1-1-1s-1 .448-1 1v3.417c0 3.416 2.618 6.237 5.983 6.64l-.01 1.858H8.27c-.553 0-1 .448-1 1s.447 1 1 1h7.46c.552 0 1-.448 1-1s-.448-1-1-1h-2.726l.01-1.863c3.35-.413 5.955-3.228 5.955-6.635V8.585c0-.552-.448-1-1-1z"/>
    <path d="M12 15.42c2.077 0 3.766-1.688 3.766-3.765v-6.14c0-2.076-1.69-3.765-3.766-3.765S8.234 3.44 8.234 5.516v6.14c0 2.075 1.69 3.765 3.766 3.765z"/>
</svg>
