<svg xmlns="http://www.w3.org/2000/svg" width="24" height="24" viewBox="0 0 24 24">
    <path id="bounds" opacity="0" d="M0 0h24v24H0z"/>
    <path d="M6.4 14.746c.09 0 .18-.016.27-.05.386-.148.58-.583.43-.97-.212-.55-.32-1.132-.32-1.724V8.99c0-.414-.336-.75-.75-.75s-.75.336-.75.75v3.012c0 .777.14 1.54.42 2.263.115.298.4.48.7.48zM17.97 8.24c-.414 0-.75.336-.75.75v3.012c0 2.726-2.268 4.943-5.056 4.943H11.837c-.643 0-1.27-.118-1.86-.35-.385-.15-.82.04-.972.426-.15.387.04.822.425.973.59.23 1.204.372 1.834.426l-.01 2.33H8.268c-.415 0-.75.337-.75.75s.335.75.75.75h7.46c.415 0 .75-.335.75-.75s-.335-.75-.75-.75h-2.976l.01-2.334c3.335-.3 5.956-3.06 5.956-6.413V8.99c0-.414-.336-.75-.75-.75z"/>
    <path d="M15.766 11.655c0-.414-.336-.75-.75-.75s-.75.336-.75.75c0 1.25-1.017 2.266-2.266 2.266-.414 0-.75.337-.75.75s.336.75.75.75c2.076 0 3.766-1.69 3.766-3.765zM8.984 12.04c.414 0 .75-.336.75-.75V5.516c0-1.25 1.016-2.266 2.266-2.266 1.188 0 2.182.928 2.26 2.114.03.413.386.714.8.698.413-.028.726-.385.698-.8C15.625 3.293 13.975 1.75 12 1.75c-2.076 0-3.766 1.69-3.766 3.766v5.774c0 .414.336.75.75.75zM21.847 1.624c-.293-.293-.768-.293-1.06 0l-19 19c-.294.293-.294.768 0 1.06.145.147.337.22.53.22s.383-.072.53-.22l19-19c.293-.292.293-.767 0-1.06z"/>
</svg>
