<?xml version="1.0" encoding="UTF-8"?><svg id="a" xmlns="http://www.w3.org/2000/svg" width="24" height="24" viewBox="0 0 24 24"><path d="M21.248,10.242h0c-.414,0-.749,.337-.749,.751l.002,1.839c0,2.594-1.045,4.521-2.409,5.936-1.415-1.931-3.662-3.1-6.068-3.1h-.041c-2.41,0-4.658,1.169-6.073,3.101-1.364-1.415-2.41-3.342-2.41-5.937l.002-8.127c3.2-1.636,6.865-2.326,10.421-1.949,.423,.049,.781-.256,.825-.667,.043-.412-.256-.781-.667-.825-4.009-.421-8.13,.401-11.687,2.329-.242,.131-.393,.384-.393,.659l-.002,8.58c0,3.423,1.571,5.849,3.456,7.531,.061,.083,.138,.155,.233,.209l.013,.003c2.764,2.34,6.073,3.143,6.13,3.156,.056,.013,.112,.02,.169,.02s.113-.007,.169-.02c.057-.013,3.366-.816,6.129-3.155l.014-.005c.096-.053,.172-.126,.233-.209,1.885-1.681,3.455-4.107,3.455-7.53l-.002-1.84c0-.414-.336-.749-.75-.749Zm-9.249,11.984c-.65-.173-2.926-.868-4.961-2.453,1.133-1.639,2.936-2.606,4.947-2.606h.035c2.007,0,3.809,.967,4.942,2.605-2.035,1.585-4.313,2.281-4.962,2.454Zm0-16.227c-2.062,0-3.479,1.369-3.788,3.66-.22,1.628-.009,2.783,.645,3.53,.622,.713,1.65,1.06,3.144,1.06s2.521-.347,3.143-1.059c.653-.748,.864-1.903,.645-3.531-.31-2.291-1.726-3.659-3.787-3.66Zm2.014,6.204c-.317,.362-.994,.546-2.014,.546s-1.697-.184-2.015-.547c-.337-.385-.439-1.217-.287-2.342,.146-1.077,.663-2.36,2.302-2.361,1.638,0,2.155,1.284,2.301,2.361,.152,1.125,.05,1.957-.287,2.343ZM24,4c0,.414-.336,.75-.75,.75h-2.425v2.425c0,.414-.336,.75-.75,.75s-.75-.336-.75-.75v-2.425h-2.425c-.414,0-.75-.336-.75-.75s.336-.75,.75-.75h2.425V.825c0-.414,.336-.75,.75-.75s.75,.336,.75,.75V3.25h2.425c.414,0,.75,.336,.75,.75Z"/></svg>