<svg xmlns="http://www.w3.org/2000/svg" width="24" height="24" viewBox="0 0 24 24">
    <path id="bounds" opacity="0" d="M0 0h24v24H0z"/>
    <path d="M18.64.94c-2.2 0-4.05 1.53-4.54 3.59H2.96c-1.15 0-2.08.94-2.08 2.08v14.34c0 1.15.93 2.08 2.08 2.08H17.3c1.15 0 2.08-.93 2.08-2.08V10.22c2.23-.35 3.94-2.28 3.94-4.6 0-2.58-2.1-4.68-4.68-4.68zm-.65 20.01c0 .39-.31.7-.69.7H2.96c-.38 0-.69-.31-.69-.7V6.62c0-.39.31-.7.69-.7h11.02c.14 2.22 1.83 4.02 4.01 4.32v10.71zm.65-12.16c-1.75 0-3.17-1.42-3.17-3.17s1.42-3.18 3.17-3.18 3.17 1.43 3.17 3.18-1.42 3.17-3.17 3.17z"/>
    <path d="M13.25 10.71H5.493c-.414 0-.75-.336-.75-.75s.336-.752.75-.752h7.754c.415 0 .752.337.752.75s-.34.752-.75.752zm1.47 3.793H5.493c-.414 0-.75-.336-.75-.75 0-.415.335-.752.75-.752h9.225c.413 0 .75.338.75.75 0 .418-.335.754-.75.754h.002zm-4.613 3.793H5.494c-.414 0-.75-.336-.75-.75 0-.416.335-.752.75-.752h4.613c.414 0 .75.336.75.75 0 .416-.336.752-.75.752zM20.72 5.62c0 .38-.31.69-.69.69h-.7V7c0 .38-.31.69-.69.69s-.69-.31-.69-.69v-.69h-.69c-.38 0-.69-.31-.69-.69s.31-.69.69-.69h.69v-.7c0-.38.31-.69.69-.69s.69.31.69.69v.7h.7c.38 0 .69.3.69.69z"/>
</svg>
