<svg xmlns="http://www.w3.org/2000/svg" width="24" height="24" viewBox="0 0 24 24">
    <path id="bounds" opacity="0" d="M0 0h24v24H0z"/>
    <path d="M21 3.25H6c-1.24 0-2.25 1.01-2.25 2.25v.75H3C1.76 6.25.75 7.26.75 8.5v10c0 1.24 1.01 2.25 2.25 2.25h15c1.24 0 2.25-1.01 2.25-2.25v-.75H21c1.24 0 2.25-1.01 2.25-2.25v-10c0-1.24-1.01-2.25-2.25-2.25zM2.25 8.5c0-.413.337-.75.75-.75h1.654C4.37 8.938 3.438 9.87 2.25 10.154V8.5zM3 19.25c-.413 0-.75-.337-.75-.75v-1.654c1.188.283 2.12 1.216 2.404 2.404H3zm15.75-.75c0 .413-.337.75-.75.75h-1.654c.283-1.188 1.216-2.12 2.404-2.404V18.5zm0-3.174c-2.016.323-3.6 1.908-3.924 3.924H6.174c-.323-2.016-1.908-3.6-3.924-3.924v-3.652c2.016-.323 3.6-1.908 3.924-3.924h8.652c.323 2.016 1.908 3.6 3.924 3.924v3.652zm0-5.172c-1.188-.283-2.12-1.216-2.404-2.404H18c.413 0 .75.337.75.75v1.654zm3 5.346c0 .413-.337.75-.75.75h-.75V8.5c0-1.24-1.01-2.25-2.25-2.25H5.25V5.5c0-.413.337-.75.75-.75h15c.413 0 .75.337.75.75v10z"/>
    <path d="M10.5 9.316c-1.878 0-3.406 1.877-3.406 4.184s1.528 4.184 3.406 4.184 3.406-1.877 3.406-4.184-1.528-4.184-3.406-4.184zm0 6.868c-1.033 0-1.906-1.23-1.906-2.684s.873-2.684 1.906-2.684 1.906 1.23 1.906 2.684-.873 2.684-1.906 2.684z"/>
</svg>
