<svg xmlns="http://www.w3.org/2000/svg" width="24" height="24" viewBox="0 0 24 24">
    <path id="bounds" opacity="0" d="M0 0h24v24H0z"/>
    <path d="M23.25 5.422v9.656c-.01 1.127-.876 2.06-2 2.153V8.924c-.007-2.033-1.66-3.676-3.692-3.673H4.268c.094-1.13 1.04-2 2.174-2h14.616c1.204-.004 2.185.968 2.192 2.172z"/>
    <path d="M17.558 6.75H2.942C1.738 6.746.757 7.718.75 8.922v9.656c.007 1.204.988 2.176 2.192 2.172h14.616c1.204.004 2.185-.968 2.192-2.172V8.922c-.007-1.204-.988-2.176-2.192-2.172zM2.942 19.3c-.4 0-.728-.323-.73-.724v-2.414c1.562.367 2.785 1.58 3.166 3.138H2.942zm-.73-7.962V8.924v-.002c.002-.4.33-.724.73-.722h2.436c-.382 1.558-1.605 2.77-3.166 3.138zm10.723 2.414c0 1.88-1.2 3.41-2.685 3.41s-2.685-1.53-2.685-3.41c0-1.88 1.2-3.41 2.685-3.41s2.684 1.528 2.685 3.41v-.002.002zm5.353 4.824c-.002.4-.33.725-.73.724h-2.436c.383-1.556 1.606-2.767 3.166-3.134v2.41zm0-7.238c-1.56-.368-2.784-1.58-3.166-3.138H17.56c.4 0 .727.323.728.724v2.414z"/>
</svg>
