<svg xmlns="http://www.w3.org/2000/svg" width="24" height="24" viewBox="0 0 24 24">
    <path id="bounds" opacity="0" d="M0 0h24v24H0z"/>
    <path d="M21.5 11.25h-3.25v-7C18.25 3.01 17.24 2 16 2H4C2.76 2 1.75 3.01 1.75 4.25v15.5C1.75 20.99 2.76 22 4 22h15.5c1.517 0 2.75-1.233 2.75-2.75V12c0-.414-.336-.75-.75-.75zm-10.75 5.5H6c-.414 0-.75-.336-.75-.75s.336-.75.75-.75h4.75c.414 0 .75.336.75.75s-.336.75-.75.75zm3.25-4H6c-.414 0-.75-.336-.75-.75s.336-.75.75-.75h8c.414 0 .75.336.75.75s-.336.75-.75.75zm0-4H6c-.414 0-.75-.336-.75-.75s.336-.75.75-.75h8c.414 0 .75.336.75.75s-.336.75-.75.75zm6.75 10.5c0 .69-.56 1.25-1.25 1.25s-1.25-.56-1.25-1.25v-6.5h2.5v6.5z"/>
</svg>
