<svg xmlns="http://www.w3.org/2000/svg" width="24" height="24" viewBox="0 0 24 24">
    <path id="bounds" opacity="0" d="M0 0h24v24H0z"/>
    <path d="M12 1.25C6.072 1.25 1.25 6.072 1.25 12S6.072 22.75 12 22.75 22.75 17.928 22.75 12 17.928 1.25 12 1.25zm0 20c-2.297 0-4.396-.846-6.015-2.237l4.27-4.27c.294-.294.294-.77 0-1.062-.145-.145-.337-.22-.53-.22s-.383.074-.53.22L4.93 17.95C3.57 16.34 2.75 14.264 2.75 12c0-5.1 4.15-9.25 9.25-9.25 2.265 0 4.34.82 5.95 2.178l-4.267 4.266c-.293.293-.293.768 0 1.06.146.147.338.22.53.22s.384-.072.53-.22l4.27-4.268C20.402 7.604 21.25 9.703 21.25 12c0 5.1-4.15 9.25-9.25 9.25z"/>
</svg>
