<svg xmlns="http://www.w3.org/2000/svg" width="24" height="24" viewBox="0 0 24 24">
    <path id="bounds" opacity="0" d="M0 0h24v24H0z"/>
    <path d="M23.24 3.26h-2.425V.832c0-.414-.336-.75-.75-.75s-.75.336-.75.75V3.26H16.89c-.414 0-.75.335-.75.75s.336.75.75.75h2.426v2.424c0 .414.336.75.75.75s.75-.336.75-.75V4.76h2.425c.415 0 .75-.337.75-.75s-.336-.75-.75-.75zM17.01 10.866c.02-2.434-.782-4.597-2.258-6.09-1.324-1.342-3.116-2.084-5.046-2.093H9.693c-1.93.01-3.722.75-5.046 2.092C3.172 6.27 2.37 8.433 2.39 10.867 2.426 15 .467 16.56.39 16.62c-.26.193-.367.53-.266.838.102.308.39.515.712.515h4.716c.11 2.226 1.94 4.007 4.194 4.007s4.083-1.78 4.194-4.007h4.625c.32 0 .604-.206.707-.51s0-.643-.255-.838c-.082-.064-2.043-1.625-2.008-5.76zM9.745 20.48c-1.426 0-2.586-1.11-2.694-2.508h5.388c-.108 1.4-1.268 2.507-2.694 2.507zm-7.29-4.007c.702-1.095 1.457-2.904 1.434-5.618-.017-2.062.614-3.8 1.825-5.025C6.757 4.774 8.172 4.19 9.7 4.184c1.527.007 2.943.59 3.985 1.646 1.21 1.226 1.84 2.963 1.823 5.025-.022 2.714.732 4.523 1.437 5.618H2.455z"/>
</svg>
