<svg xmlns="http://www.w3.org/2000/svg" width="24" height="24" viewBox="0 0 24 24">
    <path id="bounds" opacity="0" d="M0 0h24v24H0z"/>
    <path d="M22.238 2.257c-.293-.293-.768-.293-1.06 0L2.52 20.917c-.293.292-.293.767 0 1.06.146.146.338.22.53.22s.384-.073.53-.22l18.658-18.66c.293-.293.293-.767 0-1.06zM2.986 17.82c.155 0 .312-.048.446-.148.112-.083 2.752-2.104 2.708-7.248-.02-2.16.643-3.98 1.913-5.266 1.093-1.107 2.577-1.72 4.18-1.727 1.325.006 2.562.42 3.578 1.195.137.104.297.153.455.153.227 0 .45-.102.598-.295.25-.33.188-.8-.142-1.052-1.278-.975-2.828-1.493-4.483-1.5h-.003c-2.008.008-3.87.78-5.248 2.173C5.452 5.656 4.62 7.905 4.64 10.437c.037 4.33-2.02 5.967-2.103 6.03-.332.247-.4.718-.154 1.05.147.2.374.303.603.303zM19.83 10.438c.002-.246-.003-.487-.017-.723-.024-.414-.387-.74-.792-.706-.413.023-.728.378-.705.79.012.205.017.413.015.624-.024 2.868.785 4.765 1.526 5.896h-8.314c-.414 0-.75.336-.75.75s.336.75.75.75h3.522c-.1 1.48-1.323 2.66-2.828 2.66-1.003 0-1.913-.514-2.436-1.372-.214-.354-.675-.467-1.03-.25-.354.214-.467.675-.25 1.03.795 1.31 2.185 2.09 3.716 2.09 2.332 0 4.227-1.85 4.328-4.158h4.922c.32 0 .604-.206.707-.51.104-.305 0-.643-.255-.84-.087-.066-2.145-1.7-2.108-6.032z"/>
</svg>
