<svg xmlns="http://www.w3.org/2000/svg" width="24" height="24" viewBox="0 0 24 24">
    <path id="bounds" opacity="0" d="M0 0h24v24H0z"/>
    <path d="M23.61.15c-.375-.184-.822-.03-1.006.34L19.74 6.266l-1.703-1.81c-.283-.303-.758-.316-1.06-.032-.302.284-.316.76-.032 1.06l2.443 2.596c.143.15.34.235.546.235.036 0 .073-.003.11-.008.243-.036.452-.19.562-.41l3.342-6.74c.184-.372.032-.822-.34-1.006zM19.018 16.625c-.083-.064-2.044-1.625-2.01-5.76.022-2.433-.78-4.596-2.256-6.09-1.324-1.34-3.116-2.083-5.046-2.092H9.693c-1.93.01-3.722.75-5.046 2.092C3.172 6.27 2.37 8.433 2.39 10.867 2.426 15 .467 16.56.39 16.62c-.26.193-.367.53-.266.838.102.308.39.515.712.515h4.08c.088 2.57 2.193 4.64 4.785 4.64s4.698-2.07 4.785-4.64h4.082c.32 0 .604-.206.707-.51s-.002-.643-.256-.838zM9.7 20.513c-1.434 0-2.6-1.127-2.684-2.54h5.368c-.085 1.413-1.25 2.54-2.684 2.54z"/>
</svg>
