<svg xmlns="http://www.w3.org/2000/svg" width="24" height="24" viewBox="0 0 24 24">
    <path id="bounds" opacity="0" d="M0 0h24v24H0z"/>
    <path d="M23.885 19.5c-.762-3.064-3.72-5.206-7.19-5.206-1.17 0-2.27.265-3.258.707 1.246 1.08 2.157 2.5 2.564 4.138.252 1.004.052 2.03-.52 2.86h6.48c.627 0 1.2-.27 1.57-.744.38-.49.51-1.13.355-1.753zM14.19 21.255c.38-.49.512-1.13.356-1.754-.375-1.506-1.284-2.785-2.52-3.7-1.278-.95-2.905-1.507-4.67-1.507-3.47 0-6.428 2.142-7.19 5.208-.156.626-.025 1.266.356 1.755.37.473.94.744 1.567.744h10.533c.627 0 1.197-.272 1.567-.745zM16.695 13.037c1.185 0 2.51-.132 3.368-1.11.72-.823.952-2.08.715-3.847-.333-2.478-1.86-3.956-4.083-3.956-2.225 0-3.75 1.48-4.084 3.956-.235 1.766 0 3.023.718 3.846.858.98 2.184 1.11 3.368 1.11zM7.355 13.037c1.185 0 2.51-.132 3.367-1.11.72-.823.953-2.08.716-3.847-.333-2.478-1.86-3.956-4.083-3.956-2.225 0-3.75 1.48-4.084 3.956-.235 1.766 0 3.023.718 3.846.858.98 2.184 1.11 3.368 1.11z"/>
</svg>
