<svg xmlns="http://www.w3.org/2000/svg" width="24" height="24" viewBox="0 0 24 24">
    <path id="bounds" opacity="0" d="M0 0h24v24H0z"/>
    <path d="M15.09 9.07c-.25-1.83-1.43-2.98-3.1-2.98-1.66 0-2.85 1.15-3.09 2.98-.18 1.32 0 2.26.55 2.89.66.76 1.66.86 2.54.86.89 0 1.88-.1 2.54-.86.56-.63.74-1.57.56-2.89zm-1.68 1.9c-.21.24-.65.35-1.42.35-.76 0-1.2-.11-1.41-.35-.24-.28-.31-.86-.2-1.7.1-.76.47-1.68 1.61-1.68.58 0 .95.23 1.2.56.24.32.36.74.41 1.12.12.84.05 1.42-.19 1.7zM16.08 15.06c-.99-.99-2.4-1.52-4.07-1.52h-.03c-1.62 0-3.06.55-4.06 1.55-.87.87-1.34 2.02-1.34 3.25 0 .79.64 1.44 1.44 1.44h7.95c.79 0 1.44-.65 1.44-1.44 0-1.26-.47-2.43-1.33-3.28zm-7.44 3.276c-.318.002-.562-.288-.502-.6.116-.595.406-1.14.842-1.576.72-.72 1.78-1.12 3.01-1.12H12c1.27 0 2.32.37 3.02 1.08.432.432.715.962.83 1.564.06.308-.178.598-.492.6l-6.72.052zM21.75 6.97c-.22-1.7-1.32-2.75-2.86-2.75-1.53 0-2.64 1.05-2.87 2.75-.16 1.2.02 2.07.52 2.65.62.71 1.53.81 2.35.81.81 0 1.73-.1 2.34-.8.39-.45.59-1.07.59-1.85 0-.22-.02-.47-.07-.81zm-4.22.2c.13-.95.59-1.43 1.36-1.43.43 0 .77.15 1 .46.23.29.32.69.35.97.03.22.05.43.05.61 0 .4-.07.69-.21.84-.16.2-.54.28-1.19.28-.66 0-1.04-.08-1.2-.28-.2-.22-.25-.73-.16-1.45zM23.83 15.54c0 .74-.62 1.34-1.37 1.34h-3.75c-.41 0-.76-.34-.76-.76 0-.43.34-.76.76-.76h3.24c.1 0 .2-.05.26-.13.07-.09.1-.2.07-.3-.12-.53-.37-.99-.74-1.36-.61-.62-1.53-.94-2.64-.94-.73 0-1.39.15-1.93.44l-.5.32c-.36.21-.83.1-1.04-.25-.23-.36-.12-.82.24-1.05l.54-.34c.78-.42 1.71-.64 2.66-.64h.03c1.52 0 2.81.47 3.72 1.38.79.8 1.22 1.88 1.21 3.05z"/>
	<path d="M2.18 7.78c0 .78.2 1.4.59 1.85.61.7 1.53.8 2.34.8.82 0 1.73-.1 2.35-.81.5-.58.68-1.45.52-2.65-.23-1.7-1.34-2.75-2.87-2.75-1.54 0-2.64 1.05-2.86 2.75-.05.34-.07.59-.07.81zm4.13.84c-.16.2-.54.28-1.2.28-.65 0-1.03-.08-1.19-.28-.14-.15-.21-.44-.21-.84 0-.18.02-.39.05-.61.03-.28.12-.68.35-.97.23-.31.57-.46 1-.46.77 0 1.23.48 1.36 1.43.09.72.04 1.23-.16 1.45zM.17 15.54c0 .74.62 1.34 1.37 1.34h3.75c.41 0 .76-.34.76-.76 0-.43-.34-.76-.76-.76H2.05c-.1 0-.2-.05-.26-.13-.07-.09-.1-.2-.07-.3.12-.53.37-.99.74-1.36.61-.62 1.53-.94 2.64-.94.73 0 1.39.15 1.93.44l.5.32c.36.21.83.1 1.04-.25.23-.36.12-.82-.24-1.05l-.54-.34c-.78-.42-1.71-.64-2.66-.64H5.1c-1.52 0-2.81.47-3.72 1.38-.79.8-1.22 1.88-1.21 3.05z"/>
</svg>
