<svg xmlns="http://www.w3.org/2000/svg" width="24" height="24" viewBox="0 0 24 24">
    <path id="bounds" opacity="0" d="M0 0h24v24H0z"/>
    <path d="M23.53 15.155c0 .716-.58 1.296-1.296 1.296h-4.128c-.034-.144-.077-.29-.136-.425-.05-.145-.102-.29-.17-.426-.444-.948-1.16-1.74-2.082-2.304-.12-.085-.247-.162-.375-.213-.12-.077-.247-.136-.384-.188.118-.18.255-.34.408-.495.86-.853 2.098-1.322 3.497-1.322h.017c2.738 0 4.648 1.68 4.648 4.077zM21.398 7.77c0 .682-.162 1.21-.478 1.578-.52.588-1.322.665-2.038.665-.725 0-1.527-.077-2.038-.665-.435-.495-.58-1.262-.435-2.328.195-1.5 1.116-2.396 2.464-2.396 1.34 0 2.26.895 2.465 2.396.032.264.058.52.058.75zM11.99 12.29c-.084 0-.17 0-.246.01.077.008.162.008.24.008.084 0 .178 0 .263-.01-.085-.008-.17-.008-.256-.008z"/>
    <path d="M14.806 9.8c0 .768-.18 1.356-.537 1.765-.496.57-1.255.708-1.98.733-.017 0-.026.01-.043 0-.085-.01-.17-.01-.256-.01s-.17 0-.246.01c-.742-.017-1.535-.136-2.047-.733-.486-.554-.64-1.416-.478-2.618.23-1.68 1.26-2.686 2.762-2.686s2.54 1.007 2.763 2.687c.044.307.06.588.06.853zM17.236 17.96c0 .786-.63 1.417-1.416 1.417H8.145c-.776 0-1.416-.63-1.416-1.416 0-1.176.46-2.276 1.287-3.103.972-.972 2.405-1.492 3.974-1.5.922 0 1.75.16 2.466.468.136.05.264.11.384.188.128.06.256.128.375.213.563.358 1.032.82 1.373 1.373.085.135.162.28.23.425.068.136.12.28.17.426.163.47.248.974.248 1.51zM.47 15.155c0 .716.58 1.296 1.296 1.296h4.128c.034-.144.077-.29.136-.425.05-.145.102-.29.17-.426.444-.948 1.16-1.74 2.082-2.304.12-.085.247-.162.375-.213.12-.077.247-.136.384-.188-.118-.18-.255-.34-.408-.495-.86-.853-2.098-1.322-3.497-1.322h-.017c-2.746 0-4.648 1.68-4.648 4.077zM2.602 7.77c0 .682.162 1.21.478 1.578.52.588 1.322.665 2.038.665.725 0 1.527-.077 2.038-.665.435-.495.58-1.262.435-2.328-.204-1.5-1.125-2.397-2.472-2.397-1.34 0-2.26.895-2.465 2.396-.034.264-.05.52-.05.75z"/>
</svg>
