<svg xmlns="http://www.w3.org/2000/svg" width="24" height="24" viewBox="0 0 24 24">
    <path id="bounds" opacity="0" d="M0 0h24v24H0z"/>
    <path d="M2.264 22.983c-.322 0-.638-.126-.88-.368-.374-.374-.473-.926-.25-1.405L2.8 17.58c-1.017-1.7-1.55-3.62-1.55-5.58C1.25 6.072 6.072 1.25 12 1.25S22.75 6.072 22.75 12 17.928 22.75 12 22.75c-1.957 0-3.876-.533-5.55-1.54l-3.66 1.657c-.17.078-.35.116-.526.116zm4.158-3.286c.278 0 .558.077.807.23 1.434.864 3.085 1.323 4.77 1.323 5.1 0 9.25-4.15 9.25-9.25S17.1 2.75 12 2.75 2.75 6.9 2.75 12c0 1.688.458 3.338 1.326 4.774.266.44.298.977.086 1.434l-1.384 3.014 3.016-1.386c.2-.093.413-.14.628-.14z"/>
    <path d="M12 18.25c-3.446 0-6.25-2.804-6.25-6.25S8.554 5.75 12 5.75s6.25 2.804 6.25 6.25-2.804 6.25-6.25 6.25zm0-11c-2.62 0-4.75 2.13-4.75 4.75s2.13 4.75 4.75 4.75 4.75-2.13 4.75-4.75S14.62 7.25 12 7.25z"/>
    <path d="M14.5 12.75c-.414 0-.75-.336-.75-.75 0-.965-.785-1.75-1.75-1.75-.414 0-.75-.336-.75-.75s.336-.75.75-.75c1.792 0 3.25 1.458 3.25 3.25 0 .414-.336.75-.75.75z"/>
</svg>
