<svg xmlns="http://www.w3.org/2000/svg" width="24" height="24" viewBox="0 0 24 24">
    <path id="bounds" opacity="0" d="M0 0h24v24H0z"/>
    <path d="M17.296 2.642c-2.068-1.17-4.464-1.62-6.816-1.283C8.13 1.692 5.956 2.8 4.3 4.5 2.642 6.207 1.596 8.41 1.324 10.77c-.27 2.357.245 4.738 1.468 6.77.005.01.008.02.01.03 0 .01-.002.017-.004.025L1.12 21.2c-.11.232-.145.49-.103.742.043.254.162.488.343.67.18.184.412.307.665.353.253.047.514.014.747-.094l3.63-1.67h.01l.01.01.01.005c1.68 1.01 3.606 1.542 5.567 1.537 2.373 0 4.68-.783 6.562-2.232 1.882-1.45 3.23-3.482 3.836-5.778.604-2.298.432-4.73-.49-6.92-.925-2.188-2.548-4.01-4.614-5.178zM12 7.25c-2.623 0-4.75 2.127-4.75 4.75s2.127 4.75 4.75 4.75 4.75-2.127 4.75-4.75S14.623 7.25 12 7.25zM5.75 12c0-3.452 2.798-6.25 6.25-6.25s6.25 2.798 6.25 6.25-2.798 6.25-6.25 6.25S5.75 15.452 5.75 12zm5.5-2.5c0-.414.336-.75.75-.75 1.794 0 3.25 1.455 3.25 3.25 0 .413-.337.75-.75.75-.415 0-.75-.337-.75-.75 0-.967-.784-1.75-1.75-1.75-.414 0-.75-.336-.75-.75z"/>
</svg>
