<svg xmlns="http://www.w3.org/2000/svg" width="24" height="24" viewBox="0 0 24 24">
    <path id="bounds" opacity="0" d="M0 0h24v24H0z"/>
    <path d="M19.899 10.648c-.85.91-2.12 1.03-3.25 1.03h-.23c-.41 0-.75-.34-.75-.75 0-.42.34-.75.75-.75h.23c1.15 0 1.79-.17 2.15-.55.35-.38.5-1.07.43-2.06l-.01-.11c-.04-.42.26-.78.67-.82.42-.04.78.26.82.68l.01.13c.1 1.45-.17 2.49-.82 3.2z"/>
    <path d="M7.278 13.578c.05.42-.24.79-.65.84-2.36.3-4.23 1.84-4.74 3.911l-.15.73c-.08.36-.39.6-.74.6-.05 0-.1 0-.15-.01-.41-.09-.67-.49-.58-.89l.16-.76c.67-2.71 3.03-4.691 6.01-5.061.41-.06.79.23.84.64z"/>
    <path d="M11.468 6.817c-.32-2.43-1.82-3.891-4-3.891s-3.68 1.46-4 3.891c-.24 1.73-.01 2.961.7 3.771.84.96 2.14 1.09 3.3 1.09 1.16 0 2.46-.13 3.3-1.09.7-.81.93-2.04.7-3.771zm-1.83 2.781c-.36.4-1.01.58-2.17.58-1.17 0-1.82-.18-2.17-.58-.4-.46-.52-1.33-.35-2.58.13-.97.63-2.59 2.52-2.59.94 0 1.54.4 1.92.93.38.53.53 1.17.59 1.66.17 1.25.06 2.12-.34 2.58z"/>
    <path d="M22.159 2.527L2.328 22.53c-.15.15-.34.22-.53.22s-.38-.07-.53-.21c-.29-.29-.3-.77 0-1.06L21.089 1.476c.29-.3.77-.3 1.06-.01.29.29.3.77.01 1.061z"/>
    <path d="M23.689 17.979c-.75-3.01-3.64-5.111-7.04-5.111-1.85 0-3.61.62-4.95 1.77l-.1.09c-.16.14-.24.33-.25.54 0 .2.07.4.22.55l.12.12c.25.23.46.46.63.72.38.5.64 1.06.8 1.69.04.16.01.31-.08.43-.08.1-.21.16-.37.16h-4.92c-.42 0-.75.33-.75.75 0 .41.33.75.75.75H21.79c.62 0 1.18-.27 1.55-.74.369-.479.499-1.109.349-1.719zm-1.54.8c-.08.1-.2.16-.36.16h-7.2c.07-.31.07-.64-.02-.96-.2-.82-.55-1.56-1.03-2.2-.1-.14-.21-.28-.32-.41.98-.65 2.17-1 3.43-1 2.71 0 5 1.63 5.59 3.971.04.159.01.319-.09.439z"/>
    <path d="M17.269 3.667c.01.42-.32.76-.74.77-1.72.02-2.29 1.37-2.45 2.5-.06.37-.38.64-.74.64-.04 0-.08 0-.12-.01-.41-.06-.69-.44-.63-.85.35-2.34 1.81-3.751 3.92-3.781h.01c.41.001.74.321.75.731z"/>
</svg>
