<svg xmlns="http://www.w3.org/2000/svg" width="24" height="24" viewBox="0 0 24 24">
    <path id="bounds" opacity="0" d="M0 0h24v24H0z"/>
    <path d="M22.79 11.83c-.18.217-.433.326-.695.326-.208 0-.407-.072-.58-.217l-.352-.3v8.43c0 1.12-.913 2.033-2.035 2.033h-4.54v-6.167c0-.75-.606-1.356-1.356-1.356h-2.47c-.75 0-1.355.607-1.355 1.357v6.167h-4.54c-1.12 0-2.035-.913-2.035-2.035v-8.43l-.352.3c-.163.143-.37.215-.58.215-.252 0-.514-.11-.686-.326-.326-.38-.27-.95.11-1.276l2.242-1.872 7.17-6.005.59-.488.08-.064c.01-.018.01-.018.018-.018.045-.037.09-.073.136-.09.036-.028.08-.046.118-.064.01-.01.027-.01.045-.018.045-.018.08-.027.127-.027.1-.018.2-.018.307 0 .036 0 .072.01.11.027.108.027.216.09.315.172l.723.605 7.162 5.987 2.207 1.854c.388.324.433.894.117 1.273z"/>
</svg>
