<svg xmlns="http://www.w3.org/2000/svg" width="24" height="24" viewBox="0 0 24 24">
    <path id="bounds" opacity="0" d="M0 0h24v24H0z"/>
    <path d="M22.965 10.407l-1.94-1.62-8.1-6.78-.46-.39c-.27-.22-.65-.22-.91 0l-.39.32-4.48 3.75-3.7 3.1-1.95 1.62c-.3.25-.34.7-.09 1 .14.17.34.26.55.26.16 0 .32-.06.45-.17l.52-.43v9.36c0 1.17.95 2.12 2.12 2.12h14.84c1.17 0 2.12-.95 2.12-2.12v-9.35l.5.42c.31.25.75.21 1.01-.09.25-.3.21-.75-.09-1zm-12.94 10.72v-5.39c0-.43.35-.79.79-.79h2.38c.44 0 .79.36.79.79v5.39h-3.96zm10.1-.7c0 .38-.32.7-.7.7h-4.02v-5.39c0-1.22-.99-2.21-2.21-2.21h-2.38c-1.22 0-2.21.99-2.21 2.21v5.39h-4.02c-.38 0-.7-.32-.7-.7l.01-10.55 8.11-6.79.01.01 8.11 6.79v10.54z"/>
</svg>
