<svg xmlns="http://www.w3.org/2000/svg" width="24" height="24" viewBox="0 0 24 24">
    <path id="bounds" opacity="0" d="M0 0h24v24H0z"/>
    <path d="M14.14 5.846c-.386-2.882-2.15-4.6-4.72-4.6s-4.336 1.722-4.72 4.6C4.144 10 5.776 11.6 9.42 11.6c3.648 0 5.28-1.6 4.72-5.754zM9.42 10.1c-2.68 0-3.677-.746-3.232-4.048.165-1.236.802-3.3 3.233-3.3V2.75c2.43 0 3.07 2.065 3.235 3.297.45 3.353-.605 4.053-3.234 4.053z"/>
    <path d="M12.32 21.192c0-.414-.335-.75-.75-.75H3.218c-.39.012-.714-.294-.727-.683-.003-.085.01-.17.037-.248.722-2.9 3.646-5.126 7.515-4.9.41.014.76-.298.79-.707.024-.413-.293-.767-.706-.79-4.675-.253-8.174 2.494-9.055 6.038-.325 1.17.36 2.384 1.53 2.71.2.056.408.083.617.08h8.352c.413 0 .75-.336.75-.75v-.003.002z"/>
    <path d="M21.747 13.723c-1.272-1.054-3.157-.878-4.212.394-.606-.733-1.525-1.133-2.474-1.08-1.648.095-2.908 1.508-2.814 3.156 0 3.373 3.876 6.78 5.3 6.807 1.397-.026 5.276-3.434 5.278-6.807.053-.948-.347-1.864-1.077-2.47zM17.565 21.5c-.72-.107-3.82-2.763-3.82-5.307-.012-.875.65-1.61 1.52-1.693.696 0 1.092.488 1.656 1.278.04.05.083.092.132.13.34.267.83.21 1.095-.13.565-.795.953-1.278 1.653-1.278.87.08 1.534.818 1.522 1.693 0 2.546-3.096 5.198-3.757 5.308z"/>
</svg>
