<svg xmlns="http://www.w3.org/2000/svg" width="24" height="24" viewBox="0 0 24 24">
    <path id="bounds" opacity="0" d="M0 0h24v24H0z"/>
    <path d="M12 1.25C6.072 1.25 1.25 6.072 1.25 12S6.072 22.75 12 22.75 22.75 17.928 22.75 12 17.928 1.25 12 1.25zM9.66 8.71c.203-1.503 1.127-2.4 2.473-2.4 1.346 0 2.27.897 2.472 2.4.145 1.078.004 1.843-.43 2.338-.514.59-1.32.668-2.042.668-.72 0-1.528-.08-2.043-.668-.433-.496-.574-1.26-.43-2.337zm6.662 8.16c-.224.283-.55.44-.922.44H8.865c-.37 0-.698-.157-.922-.44-.236-.298-.322-.71-.23-1.1C8.18 13.8 10 12.65 12.134 12.65s3.952 1.15 4.42 3.123c.09.39.005.802-.23 1.1z"/>
</svg>
