<svg xmlns="http://www.w3.org/2000/svg" width="24" height="24" viewBox="0 0 24 24">
    <path id="bounds" opacity="0" d="M0 0h24v24H0z"/>
    <path d="M4.7 5.846c.384-2.878 2.15-4.6 4.72-4.6s4.334 1.718 4.72 4.6C14.7 10 13.07 11.6 9.42 11.6S4.145 10 4.7 5.846z"/>
    <path d="M3.217 21.94h9.573c-2.09-2.456-3.57-5.994-1.8-8.738-4.475-.665-8.87 1.732-9.916 5.948-.326 1.17.36 2.384 1.53 2.71.2.055.406.082.613.08z"/>
    <path d="M12.193 15.874c0 3.54 4.18 7.1 5.34 7.126 1.16-.02 5.34-3.586 5.34-7.126.016-1.517-1.16-2.78-2.673-2.874-1.337 0-2.05 1.01-2.668 1.88-.617-.87-1.332-1.88-2.666-1.88-1.513.095-2.688 1.358-2.673 2.874z"/>
</svg>
