<svg xmlns="http://www.w3.org/2000/svg" width="24" height="24" viewBox="0 0 24 24">
    <path id="bounds" opacity="0" d="M0 0h24v24H0z"/>
    <path d="M14.893 22.5H4.213c-.69 0-1.3-.29-1.72-.82-.44-.56-.6-1.32-.42-2.05.87-3.68 4.25-5.82 8.23-5.82.47 0 .93.03 1.38.09-.11.08-.21.17-.31.26-1.31 1.23-1.37 3.29-.14 4.6l3.06 3.24c.18.19.38.36.6.5zM10.303 12.08c-1.34 0-2.85-.15-3.81-1.25-.8-.92-1.06-2.35-.79-4.35.37-2.81 2.1-4.48 4.6-4.48 2.51 0 4.23 1.67 4.61 4.48.27 2.01.01 3.43-.8 4.36-.96 1.09-2.46 1.24-3.81 1.24z"/>
    <path d="M21.893 11.8l-4.22 8.51c-.06.12-.14.23-.24.32-.04.04-.09.08-.14.11-.03.02-.05.04-.08.05-.11.07-.23.11-.35.13-.06.01-.13.02-.2.02-.08 0-.17-.01-.25-.03-.08-.02-.16-.05-.23-.08-.06-.03-.11-.06-.16-.09-.06-.05-.12-.1-.18-.16l-.07-.07-3.02-3.2c-.43-.45-.4-1.18.05-1.6.45-.43 1.17-.41 1.6.04l1.97 2.09 3.49-7.04c.28-.56.96-.8 1.52-.51.55.27.78.96.51 1.51z"/>
</svg>
