<svg xmlns="http://www.w3.org/2000/svg" width="24" height="24" viewBox="0 0 24 24">
    <path id="bounds" opacity="0" d="M0 0h24v24H0z"/>
    <path d="M10.43 12.24c-1.37 0-2.89-.15-3.87-1.26-.82-.95-1.09-2.39-.81-4.43C6.13 3.7 7.88 2 10.43 2s4.3 1.7 4.68 4.55c.27 2.04.01 3.49-.81 4.42-.98 1.12-2.51 1.27-3.87 1.27zm0-8.73c-2.39 0-3.03 2.03-3.19 3.24-.21 1.56-.06 2.65.45 3.23.46.53 1.28.75 2.73.75 1.46 0 2.28-.22 2.74-.75.51-.58.66-1.67.45-3.23-.16-1.21-.79-3.24-3.18-3.24zM12.44 22.5H4.22c-.7 0-1.33-.3-1.75-.83-.43-.54-.57-1.26-.4-1.95.88-3.55 4.31-6.03 8.34-6.03.42 0 .75.34.75.75 0 .42-.34.75-.75.75-3.34 0-6.17 2.01-6.88 4.89-.06.25-.02.49.12.66.13.16.32.25.56.25h8.22c.42 0 .75.34.75.75.01.42-.32.76-.74.76zM21.59 11.63l-4.2 8.46c-.01.03-.02.05-.04.07-.02.06-.06.11-.1.15-.05.05-.1.09-.15.13h-.01c-.06.04-.12.06-.19.08-.07.02-.13.03-.2.03-.05 0-.11 0-.17-.02-.06-.01-.11-.03-.16-.06-.06-.03-.12-.07-.18-.12-.01-.01-.03-.02-.04-.03l-3.08-3.27c-.28-.3-.27-.78.04-1.06.3-.29.77-.27 1.06.03l2.34 2.48 3.74-7.53c.18-.37.63-.52 1-.34.37.17.52.63.34 1z"/>
    <path d="M17.1 20.44c.05-.04.1-.08.15-.13 0 .01-.02.03-.03.04-.04.04-.08.06-.12.09z"/>
</svg>
