<svg xmlns="http://www.w3.org/2000/svg" width="24" height="24" viewBox="0 0 24 24">
    <path id="bounds" opacity="0" d="M0 0h24v24H0z"/>
    <path d="M19.75 2H4.25C3.01 2 2 3.01 2 4.25v15.5C2 20.99 3.01 22 4.25 22h15.5c1.24 0 2.25-1.01 2.25-2.25V4.25C22 3.01 20.99 2 19.75 2zM8.868 6.767c.852 0 1.542.69 1.542 1.542s-.69 1.54-1.542 1.54-1.542-.69-1.542-1.54.69-1.543 1.542-1.543zM4.25 20.5c-.403 0-.727-.32-.744-.72l4.888-4.993c.292-.298.77-.3 1.065-.007l5.744 5.72H4.25zm16.25-.75c0 .414-.336.75-.75.75h-2.42l-5.007-4.987 3.262-3.313c.292-.297.77-.3 1.065-.004l3.85 3.85v3.704z"/>
</svg>
