<svg xmlns="http://www.w3.org/2000/svg" width="24" height="24" viewBox="0 0 24 24">
    <path id="bounds" opacity="0" d="M0 0h24v24H0z"/>
    <path d="M21.35 6.95C20.033 3.236 16.64.685 12.705.452 8.913.24 5.365 2.225 3.555 5.546l-.43-2.82c-.063-.41-.435-.69-.854-.627-.41.06-.69.443-.627.853l.72 4.73c.03.21.15.396.327.513.124.082.268.124.414.124.062 0 .126-.008.188-.023L7.924 7.1c.4-.104.643-.513.54-.914-.106-.402-.522-.64-.915-.54l-2.737.708c1.518-2.87 4.55-4.6 7.803-4.404 3.33.197 6.204 2.357 7.32 5.502.108.308.397.5.706.5.083 0 .168-.015.25-.044.392-.138.596-.567.458-.958z"/>
    <path d="M14.044 6.522c-.85-.85-2.332-.85-3.182 0l-5.98 5.98c-.424.424-.658.99-.658 1.59 0 .602.234 1.167.66 1.592l5.978 5.98c.425.424.99.658 1.59.658s1.167-.234 1.592-.66l5.98-5.978c.424-.425.658-.99.658-1.59 0-.603-.234-1.168-.66-1.592l-5.978-5.98zm4.92 8.102l-5.98 5.98c-.283.282-.777.282-1.06 0l-5.98-5.98c-.142-.142-.22-.33-.22-.53s.078-.39.22-.53l5.98-5.98c.14-.142.33-.22.53-.22s.388.078.53.22l5.978 5.98c.142.142.22.33.22.53s-.078.388-.22.53z"/>
</svg>
