<svg xmlns="http://www.w3.org/2000/svg" width="24" height="24" viewBox="0 0 24 24">
    <path id="bounds" opacity="0" d="M0 0h24v24H0z"/>
    <path d="M20.6 17.1c0 .3-.1.5-.3.7-.1.1-.2.2-.3.2h-.3c-.2 0-.5-.1-.7-.3-.2-.2-.3-.4-.3-.7 0-.2.1-.5.3-.7.1-.1.2-.2.3-.2.3-.2.8-.1 1 .2.2.3.3.5.3.8zM22.9 15.9c-.1.5-.5.8-.9.8h-.2c-.5-.1-.9-.6-.8-1.1.1-.5.6-.9 1.1-.8.6.1.9.6.8 1.1z"/>
    <circle cx="22.1" cy="12.7" r=".9"/>
    <circle cx="22.1" cy="9.8" r=".9"/>
    <circle cx="22.1" cy="6.8" r=".9"/>
    <circle cx="22.1" cy="3.8" r=".9"/>
    <circle cx="20.2" cy="2" r=".9"/>
    <path d="M18.2 2c0 .5-.4.9-1 .9-.5 0-.9-.4-.9-.9s.4-.9.9-.9c.5-.1 1 .3 1 .9zM15.1 2c0 .5-.4.9-.9.9s-.9-.4-.9-.9.4-.9.9-.9c.5-.1.9.3.9.9zM12.2 2c0 .5-.4.9-.9.9s-.9-.4-.9-.9.4-.9.9-.9c.4-.1.9.3.9.9zM9.2 1.8c.1.5-.2 1-.7 1.1h-.2c-.5 0-.9-.3-.9-.8-.1-.5.2-1 .7-1.1.5 0 1 .3 1.1.8zM7.9 4.4c0 .2-.1.5-.3.7-.2.1-.4.2-.7.2-.2 0-.5-.1-.6-.3-.2-.1-.3-.4-.3-.6 0-.2.1-.5.3-.7.1-.1.2-.2.3-.2.2-.1.5-.1.7 0 .1 0 .2.1.3.2.2.2.3.4.3.7zM15.4 6H3.6C2.2 6 1 7.2 1 8.6v11.9C1 21.8 2.2 23 3.6 23h11.9c1.4 0 2.6-1.2 2.6-2.6V8.6C18 7.2 16.9 6 15.4 6zM3.6 21.1c-.3 0-.6-.2-.6-.5l4.2-4.3 4.9 4.8H3.6zm12.5-.7c0 .4-.3.7-.7.7h-.7l-4.4-4.4 2.5-2.5 3.3 3.3v2.9zm0-5.6l-2.6-2.6c-.2-.2-.4-.2-.7-.2-.3.1-.5.1-.7.3L9 15.4l-1.2-1.2c-.2-.1-.4-.2-.6-.2-.2 0-.5.1-.7.3L2.9 18V8.6c0-.4.3-.7.7-.7h11.9c.4 0 .7.3.7.7v6.2z"/>
    <path d="M8.3 11.1c0 .7-.5 1.2-1.2 1.2s-1.2-.5-1.2-1.2c0-.6.5-1.2 1.2-1.2s1.2.5 1.2 1.2z"/>
</svg>
