<svg xmlns="http://www.w3.org/2000/svg" width="24" height="24" viewBox="0 0 24 24">
    <path id="bounds" opacity="0" d="M0 0h24v24H0z"/>
    <path d="M2.03 23.75c-.19 0-.383-.073-.53-.22-.292-.293-.292-.768 0-1.06l20-20c.294-.294.77-.294 1.062 0s.293.767 0 1.06l-20 20c-.147.147-.338.22-.53.22zM19.75 22H7.958c-.414 0-.75-.336-.75-.75s.336-.75.75-.75H19.75c.413 0 .75-.337.75-.75V8.07c0-.415.336-.75.75-.75s.75.335.75.75v11.68c0 1.24-1.01 2.25-2.25 2.25zM2.75 18.882c-.414 0-.75-.336-.75-.75v-10.8c0-1.24 1.01-2.25 2.25-2.25h2.188C7.633 3.17 9.722 2 12 2c1.896 0 3.7.82 4.945 2.253.272.312.24.786-.073 1.058-.31.273-.785.242-1.058-.072C14.854 4.134 13.464 3.5 12 3.5c-1.883 0-3.598 1.035-4.475 2.702-.16.302-.504.46-.834.38H4.25c-.413 0-.75.338-.75.75v10.8c0 .414-.336.75-.75.75z"/>
    <path d="M7.89 13.777c-.415 0-.75-.336-.75-.75 0-2.68 2.18-4.86 4.86-4.86.414 0 .75.336.75.75s-.336.75-.75.75c-1.854 0-3.36 1.508-3.36 3.36 0 .414-.337.75-.75.75zM12 17.89c-.414 0-.75-.337-.75-.75s.336-.75.75-.75c1.854 0 3.36-1.51 3.36-3.362 0-.414.337-.75.75-.75s.75.336.75.75c0 2.68-2.18 4.86-4.86 4.86z"/>
</svg>
