<svg xmlns="http://www.w3.org/2000/svg" width="24" height="24" viewBox="0 0 24 24">
    <path id="bounds" opacity="0" d="M0 0h24v24H0z"/>
    <path d="M2.723 22.042c-.192 0-.384-.073-.53-.22-.293-.293-.293-.768 0-1.06L14.785 8.168c.293-.294.768-.294 1.06 0s.294.767 0 1.06L3.254 21.822c-.146.147-.338.22-.53.22zM15.315 5.092c-.414 0-.75-.336-.75-.75V1.438c0-.414.336-.75.75-.75s.75.336.75.75v2.904c0 .414-.336.75-.75.75zM15.315 16.712c-.414 0-.75-.336-.75-.75v-2.455c0-.414.336-.75.75-.75s.75.336.75.75v2.455c0 .414-.336.75-.75.75zM10.508 9.45H8.053c-.414 0-.75-.337-.75-.75s.336-.75.75-.75h2.455c.414 0 .75.335.75.75s-.336.75-.75.75zM22.578 9.45h-2.905c-.414 0-.75-.337-.75-.75s.336-.75.75-.75h2.905c.414 0 .75.335.75.75s-.336.75-.75.75zM12.234 6.368c-.192 0-.384-.073-.53-.22L9.65 4.095c-.293-.293-.293-.768 0-1.06s.768-.294 1.06 0l2.055 2.053c.293.293.293.768 0 1.06-.147.147-.34.22-.53.22zM20.45 14.585c-.19 0-.383-.073-.53-.22l-2.053-2.055c-.293-.293-.293-.768 0-1.06s.768-.294 1.06 0l2.055 2.054c.293.293.293.768 0 1.06-.148.148-.34.22-.53.22zM18.396 6.368c-.192 0-.384-.073-.53-.22-.293-.293-.293-.768 0-1.06l2.054-2.055c.293-.293.768-.293 1.06 0s.294.768 0 1.06L18.928 6.15c-.147.147-.34.22-.53.22z"/>
</svg>
