<svg xmlns="http://www.w3.org/2000/svg" width="24" height="24" viewBox="0 0 24 24">
    <path id="bounds" opacity="0" d="M0 0h24v24H0z"/>
    <path d="M12.93 7.527H2.723c-1.04 0-1.89.85-1.89 1.893v10.215c0 1.04.85 1.893 1.89 1.893H12.93c1.05 0 1.9-.85 1.9-1.893V9.42c0-1.042-.85-1.893-1.9-1.893zM1.832 9.42c0-.492.4-.892.89-.892H12.93c.5 0 .9.4.9.89v6.52l-2.78-2.774c-.09-.1-.22-.15-.35-.15-.14 0-.26.06-.36.15l-2.933 2.984-1.24-1.232c-.09-.09-.22-.15-.35-.15-.11 0-.26.06-.36.15L1.832 18.63V9.42zm.89 11.105c-.38 0-.71-.24-.83-.58.06-.02.11-.05.16-.1l3.773-3.867 4.553 4.547H2.723zm11.11-.89c0 .49-.4.89-.902.89h-1.19c-.02-.06-.05-.11-.1-.16L8.116 16.86l2.582-2.634 3.13 3.134v2.274z"/>
    <circle cx="5.767" cy="11.964" r="1"/>
    <circle cx="5.578" cy="5.824" r=".5"/>
    <circle cx="6.178" cy="3.986" r=".5"/>
    <circle cx="8.148" cy="3.736" r=".5"/>
    <circle cx="10.168" cy="3.736" r=".5"/>
    <circle cx="12.188" cy="3.736" r=".5"/>
    <circle cx="18.558" cy="10.086" r=".5"/>
    <circle cx="18.558" cy="12.106" r=".5"/>
    <circle cx="18.558" cy="14.126" r=".5"/>
    <circle cx="18.323" cy="16.104" r=".5"/>
    <circle cx="16.518" cy="16.727" r=".5"/>
	<path d="M17.562 6.067h-2.175v-.78c.382-.726.857-1.493 1.754-2.814h1.292v2.86h.57v.733h-.57v.78h-.87v-.78zM16.19 5.36h1.39V3.123h-.018c-.636.933-1.018 1.53-1.373 2.215v.024zM19.454 6.846V2.473h.915v1.994h.026l1.642-1.994h1.018l-1.618 1.94 1.73 2.432h-1.094l-1.297-1.827-.41.49v1.337h-.913z"/>
</svg>
