<svg xmlns="http://www.w3.org/2000/svg" width="24" height="24" viewBox="0 0 24 24">
    <path id="bounds" opacity="0" d="M0 0h24v24H0z"/>
    <path d="M19.75 22H4.25C3.01 22 2 20.99 2 19.75V4.25C2 3.01 3.01 2 4.25 2h15.5C20.99 2 22 3.01 22 4.25v15.5c0 1.24-1.01 2.25-2.25 2.25zM4.25 3.5c-.413 0-.75.336-.75.75v15.5c0 .413.337.75.75.75h15.5c.413 0 .75-.337.75-.75V4.25c0-.414-.337-.75-.75-.75H4.25z"/>
    <path d="M12 14.496c-1.015 0-2.15-.115-2.898-.97-.623-.712-.828-1.79-.625-3.298.286-2.13 1.603-3.402 3.523-3.402s3.237 1.272 3.523 3.402c.203 1.507-.002 2.586-.625 3.3-.747.853-1.883.968-2.898.968zm0-6.17c-1.45 0-1.908 1.143-2.037 2.102-.14 1.04-.05 1.75.27 2.112.278.32.807.456 1.768.456s1.49-.137 1.77-.456c.317-.362.408-1.073.27-2.112-.132-.96-.59-2.102-2.04-2.102zM18.107 20.12c-.65-2.608-3.16-4.43-6.107-4.43s-5.458 1.82-6.108 4.432c-.107.437-.058.892.14 1.28.132.262.396.412.67.412.113 0 .23-.026.338-.08.37-.19.518-.64.33-1.01-.035-.068-.043-.155-.02-.24.48-1.94 2.394-3.294 4.65-3.294s4.17 1.354 4.652 3.293c.022.092.012.186-.03.256-.21.354-.094.815.263 1.026.12.07.252.105.382.105.256 0 .506-.13.646-.366.245-.412.315-.903.194-1.384z"/>
</svg>
