<svg xmlns="http://www.w3.org/2000/svg" width="24" height="24" viewBox="0 0 24 24">
    <path id="bounds" opacity="0" d="M0 0h24v24H0z"/>
    <path d="M3.5 5.25H2c-.414 0-.75.336-.75.75s.336.75.75.75h1.5c.414 0 .75-.336.75-.75s-.336-.75-.75-.75zM22 17.25H7.5c-.414 0-.75-.337-.75-.75V2c0-.414-.336-.75-.75-.75s-.75.336-.75.75v14.5c0 1.24 1.01 2.25 2.25 2.25H22c.414 0 .75-.336.75-.75s-.336-.75-.75-.75zM18 19.75c-.414 0-.75.336-.75.75V22c0 .414.336.75.75.75s.75-.336.75-.75v-1.5c0-.414-.336-.75-.75-.75z"/>
    <path d="M8.5 6.75h8c.414 0 .75.337.75.75v8c0 .414.336.75.75.75s.75-.336.75-.75v-8c0-1.24-1.01-2.25-2.25-2.25h-8c-.414 0-.75.336-.75.75s.336.75.75.75z"/>
</svg>
