<svg xmlns="http://www.w3.org/2000/svg" width="24" height="24" viewBox="0 0 24 24">
    <path id="bounds" opacity="0" d="M0 0h24v24H0z"/>
    <path d="M17.931 2.508c0 .42-.34.75-.75.75h-8.39l1.38 2.08-.56 5.78-.47.16c-1.5.49-3.1 2.07-3.37 3.31-.07.35-.39.59-.73.59-.05 0-.11 0-.16-.01-.4-.09-.66-.49-.58-.89.39-1.81 2.24-3.52 3.91-4.25l.42-4.3-1.35-2.02c-.26-.38-.29-.87-.07-1.29.24-.41.66-.66 1.11-.66h8.86c.41 0 .75.34.75.75z"/>
    <path d="M21.021 15.268c-.14.17-.46.46-1.05.46h-3.86l-2.64 6.1c-.12.28-.39.45-.69.45s-.57-.17-.69-.45l-1.96-4.53c-.16-.38.01-.82.39-.98.38-.17.82.01.99.39l1.27 2.93 1.69-3.91h-1.61c-.42 0-.75-.33-.75-.75 0-.41.33-.75.75-.75h6.81c-.41-1.06-1.64-2.26-2.91-2.82-.09-.04-.16-.09-.22-.16-.22-.21-.3-.54-.17-.83.17-.38.61-.55.99-.39 1.59.7 3.5 2.43 3.89 4.25.06.25.03.66-.23.99z"/>
    <path d="M21.86 3.009L3.2 21.659c-.15.15-.34.22-.53.22s-.39-.07-.53-.22c-.29-.29-.29-.76 0-1.06L20.8 1.939c.29-.29.76-.29 1.06 0 .29.3.29.77 0 1.07z"/>
</svg>
