<svg xmlns="http://www.w3.org/2000/svg" width="24" height="24" viewBox="0 0 24 24">
    <path id="bounds" opacity="0" d="M0 0h24v24H0z"/>
    <path d="M20.472 14.738c-.388-1.808-2.24-3.517-3.908-4.246l-.474-4.307 1.344-2.016c.258-.387.28-.88.062-1.286-.218-.406-.64-.66-1.102-.66H7.54c-.46 0-.884.254-1.1.66-.22.407-.197.9.06 1.284l1.35 2.025-.42 4.3c-1.667.732-3.515 2.44-3.896 4.222-.066.267-.043.672.222 1.01.14.178.46.474 1.06.474h3.858l2.638 6.1c.12.273.39.45.688.45s.57-.177.688-.45l2.638-6.1h3.86c.6 0 .92-.297 1.058-.474.265-.34.288-.745.228-.988zM12 20.11l-1.692-3.912h3.384L12 20.11zm-6.896-5.413c.456-1.166 1.904-2.506 3.265-2.96l.46-.153.566-5.777-1.39-2.082h7.922l-1.39 2.08.637 5.78.456.153c1.355.45 2.796 1.78 3.264 2.96H5.104z"/>
</svg>
