<svg xmlns="http://www.w3.org/2000/svg" width="320" height="180" viewBox="0 0 320 180">
    <path fill="#1B80D8" d="M0 0h320v180H0z"/>
    <path fill="#1D8DEE" d="M320 0h-13.11c-26.458 9.665-45.453 36.076-45.453 67.154 0 5.57.61 10.973 1.748 16.185-56.29-2.976-106.16-31.26-139.56-74.272-5.824 10.512-9.16 22.717-9.16 35.73 0 24.662 11.956 46.43 30.12 59.172-11.1-.375-21.54-3.567-30.668-8.894-.01.3-.01.597-.01.88 0 34.45 23.34 63.188 54.32 69.714-5.693 1.618-11.666 2.48-17.835 2.48-4.375 0-8.62-.422-12.748-1.253 1.4 4.588 3.236 8.97 5.45 13.1H320V0z"/>
</svg>
