<svg xmlns="http://www.w3.org/2000/svg" width="24" height="24" viewBox="0 0 24 24">
    <path id="bounds" opacity="0" d="M0 0h24v24H0z"/>
    <path opacity="0.8" d="M12 2.75C6.9 2.75 2.75 6.9 2.75 12S6.9 21.25 12 21.25s9.25-4.15 9.25-9.25S17.1 2.75 12 2.75z"/>
    <path opacity="0.8" fill="#FFFFFF" d="M16.036 11.58l-6-3.82c-.154-.098-.35-.105-.51-.018-.16.088-.26.256-.26.438v7.64c0 .182.1.35.26.437.076.04.158.062.24.062.095 0 .188-.028.27-.08l6-3.818c.145-.092.23-.25.23-.422s-.085-.33-.23-.42z"/>
    <path opacity="0.8" fill="#FFFFFF" d="M12 1.25C6.072 1.25 1.25 6.072 1.25 12S6.072 22.75 12 22.75 22.75 17.928 22.75 12 17.928 1.25 12 1.25zm0 20c-5.1 0-9.25-4.15-9.25-9.25S6.9 2.75 12 2.75 21.25 6.9 21.25 12 17.1 21.25 12 21.25z"/>
</svg>
