<svg xmlns="http://www.w3.org/2000/svg" width="24" height="24" viewBox="0 0 24 24">
    <path id="bounds" opacity="0" d="M0 0h24v24H0z"/>
    <path d="M16.036 11.58l-6-3.82c-.154-.098-.35-.105-.51-.018-.16.088-.26.256-.26.438v7.64c0 .182.1.35.26.437.076.04.158.062.24.062.095 0 .188-.027.27-.08l6-3.817c.145-.092.23-.25.23-.422s-.085-.33-.23-.42z"/>
    <path d="M12 22.75C6.072 22.75 1.25 17.928 1.25 12S6.072 1.25 12 1.25 22.75 6.072 22.75 12 17.928 22.75 12 22.75zm0-20C6.9 2.75 2.75 6.9 2.75 12S6.9 21.25 12 21.25s9.25-4.15 9.25-9.25S17.1 2.75 12 2.75z"/>
</svg>
