<svg xmlns="http://www.w3.org/2000/svg" width="24" height="24" viewBox="0 0 24 24">
    <path id="bounds" opacity="0" d="M0 0h24v24H0z"/>
    <path d="M15.644 11.58L10.43 8.26c-.155-.1-.35-.105-.51-.018-.16.088-.26.256-.26.438v6.64c0 .183.1.35.26.438.074.04.157.062.24.062.093 0 .187-.026.27-.078l5.214-3.32c.144-.09.23-.25.23-.42s-.086-.332-.23-.423zM2.5 22.25c-.192 0-.384-.073-.53-.22-.293-.293-.293-.768 0-1.06l5.25-5.25c.293-.294.768-.294 1.06 0s.294.767 0 1.06l-5.25 5.25c-.146.147-.338.22-.53.22zM15.208 9.542c-.192 0-.384-.073-.53-.22-.293-.293-.293-.768 0-1.06L20.97 1.97c.293-.293.768-.293 1.06 0s.294.768 0 1.06l-6.29 6.293c-.148.146-.34.22-.532.22z"/>
    <path d="M3.815 17.062c-.27 0-.53-.146-.664-.4C2.4 15.236 2 13.623 2 12 2 6.486 6.486 2 12 2c1.592 0 3.176.384 4.582 1.11.368.188.512.64.322 1.01-.19.368-.643.515-1.01.32-1.21-.624-2.52-.94-3.894-.94-4.687 0-8.5 3.813-8.5 8.5 0 1.38.338 2.75.978 3.96.193.367.053.82-.313 1.015-.112.06-.232.087-.35.087zM12 22c-1.59 0-3.175-.384-4.58-1.11-.37-.188-.513-.64-.323-1.01.19-.366.644-.514 1.01-.32 1.21.624 2.52.94 3.893.94 4.687 0 8.5-3.813 8.5-8.5 0-1.364-.33-2.72-.957-3.922-.19-.367-.05-.82.318-1.012.37-.19.82-.05 1.013.318C21.61 8.8 22 10.396 22 12c0 5.514-4.486 10-10 10z"/>
</svg>
