<svg xmlns="http://www.w3.org/2000/svg" width="24" height="24" viewBox="0 0 24 24">
    <path id="bounds" opacity="0" d="M0 0h24v24H0z"/>
    <path d="M5.884 22.275c-1.246 0-2.275-.374-3.02-1.12C.316 18.61 2.33 12.608 7.445 7.49c.55-.55 1.122-1.074 1.703-1.562.315-.267.79-.227 1.056.092.267.316.226.79-.092 1.057-.548.46-1.09.956-1.607 1.475-4.823 4.823-6.264 9.863-4.583 11.544.92.918 2.764.9 5.058-.046.383-.155.822.024.98.407.157.383-.025.82-.408.98-1.357.56-2.594.838-3.67.838zM14.25 18.39c-.215 0-.43-.09-.577-.27-.265-.318-.22-.79.098-1.057.585-.484 1.156-1.007 1.698-1.55 2.22-2.22 3.9-4.698 4.73-6.98.748-2.06.695-3.726-.146-4.566-.923-.923-2.86-.886-5.185.1-.38.163-.822-.017-.983-.398-.162-.382.017-.822.397-.984 2.95-1.25 5.44-1.172 6.832.222 1.29 1.29 1.464 3.47.493 6.14-.902 2.482-2.705 5.155-5.077 7.526-.575.576-1.18 1.13-1.8 1.645-.138.114-.31.17-.478.17z"/>
    <path d="M18.094 22.258c-2.97 0-7.03-2.066-10.647-5.685-.55-.55-1.074-1.122-1.562-1.702-.267-.316-.226-.79.092-1.056.316-.267.79-.227 1.057.092.46.548.955 1.088 1.474 1.606 4.823 4.823 9.863 6.267 11.546 4.583.92-.92.888-2.845-.086-5.152-.16-.38.02-.82.4-.982.378-.158.82.02.982.4 1.236 2.934 1.15 5.41-.236 6.796-.747.746-1.79 1.1-3.02 1.102zM17.48 10.382c-.212 0-.424-.09-.57-.266-.456-.538-.94-1.064-1.44-1.565C10.645 3.73 5.606 2.29 3.923 3.97c-.92.92-.888 2.843.084 5.147.16.382-.02.82-.4.982-.377.16-.82-.018-.982-.4-1.234-2.93-1.147-5.404.238-6.79 2.548-2.55 8.55-.533 13.666 4.583.53.53 1.043 1.088 1.524 1.657.268.316.23.79-.088 1.057-.14.12-.313.178-.485.178z"/>
	<path d="M12 14.746c-1.515 0-2.746-1.23-2.746-2.746S10.484 9.254 12 9.254s2.746 1.23 2.746 2.746-1.23 2.746-2.746 2.746zm0-3.992c-.688 0-1.246.56-1.246 1.246s.56 1.246 1.246 1.246c.687 0 1.246-.56 1.246-1.246s-.56-1.246-1.246-1.246z"/>
</svg>
