<svg xmlns="http://www.w3.org/2000/svg" width="24" height="24" viewBox="0 0 24 24">
  <path d="M12,1C5.92,1 1,5.92 1,12C1,18.08 5.92,23 12,23C18.08,23 23,18.08 23,12C23,5.92 18.08,1 12,1ZM17.05,13.48C17.05,13.96 16.66,14.35 16.17,14.35C15.693,14.35 15.3,13.957 15.3,13.48L15.3,9.94L8.45,16.79C8.287,16.956 8.063,17.05 7.83,17.05C7.597,17.05 7.373,16.956 7.21,16.79C6.872,16.449 6.872,15.891 7.21,15.55L14.06,8.7L10.52,8.7C10.043,8.7 9.65,8.307 9.65,7.83C9.65,7.34 10.04,6.95 10.52,6.95L16.17,6.95C16.28,6.95 16.4,6.98 16.5,7.02C16.61,7.06 16.7,7.12 16.79,7.21C16.88,7.3 16.94,7.39 16.98,7.5C17.02,7.6 17.05,7.72 17.05,7.83L17.05,13.48Z"/>
</svg>
