<svg xmlns="http://www.w3.org/2000/svg" width="24" height="24" viewBox="0 0 24 24">
    <path id="bounds" opacity="0" d="M0 0h24v24H0z"/>
    <path d="M16.56 7.94h1.88c.276 0 .5-.224.5-.5V5.56c0-.276-.224-.5-.5-.5h-1.88c-.276 0-.5.224-.5.5v1.88c0 .276.224.5.5.5z"/>
    <path d="M20.25 11h-5.5c-.965 0-1.75-.785-1.75-1.75v-5.5c0-.965.785-1.75 1.75-1.75h5.5c.965 0 1.75.785 1.75 1.75v5.5c0 .965-.785 1.75-1.75 1.75zm-5.5-7.5c-.138 0-.25.112-.25.25v5.5c0 .138.112.25.25.25h5.5c.138 0 .25-.112.25-.25v-5.5c0-.138-.112-.25-.25-.25h-5.5zM5.56 7.94h1.88c.276 0 .5-.224.5-.5V5.56c0-.276-.224-.5-.5-.5H5.56c-.276 0-.5.224-.5.5v1.88c0 .276.224.5.5.5z"/>
    <path d="M9.25 11h-5.5C2.785 11 2 10.215 2 9.25v-5.5C2 2.785 2.785 2 3.75 2h5.5c.965 0 1.75.785 1.75 1.75v5.5c0 .965-.785 1.75-1.75 1.75zm-5.5-7.5c-.138 0-.25.112-.25.25v5.5c0 .138.112.25.25.25h5.5c.138 0 .25-.112.25-.25v-5.5c0-.138-.112-.25-.25-.25h-5.5zM13.5 16h2c.276 0 .5-.224.5-.5v-2c0-.276-.224-.5-.5-.5h-2c-.276 0-.5.224-.5.5v2c0 .276.224.5.5.5zM19.5 16h2c.276 0 .5-.224.5-.5v-2c0-.276-.224-.5-.5-.5h-2c-.276 0-.5.224-.5.5v2c0 .276.224.5.5.5zM13.5 22h2c.276 0 .5-.224.5-.5v-2c0-.276-.224-.5-.5-.5h-2c-.276 0-.5.224-.5.5v2c0 .276.224.5.5.5zM19.5 22h2c.276 0 .5-.224.5-.5v-2c0-.276-.224-.5-.5-.5h-2c-.276 0-.5.224-.5.5v2c0 .276.224.5.5.5zM16.5 19h2c.276 0 .5-.224.5-.5v-2c0-.276-.224-.5-.5-.5h-2c-.276 0-.5.224-.5.5v2c0 .276.224.5.5.5zM5.56 18.94h1.88c.276 0 .5-.224.5-.5v-1.88c0-.276-.224-.5-.5-.5H5.56c-.276 0-.5.224-.5.5v1.88c0 .276.224.5.5.5z"/>
    <path d="M9.25 22h-5.5C2.785 22 2 21.215 2 20.25v-5.5c0-.965.785-1.75 1.75-1.75h5.5c.965 0 1.75.785 1.75 1.75v5.5c0 .965-.785 1.75-1.75 1.75zm-5.5-7.5c-.138 0-.25.112-.25.25v5.5c0 .138.112.25.25.25h5.5c.138 0 .25-.112.25-.25v-5.5c0-.138-.112-.25-.25-.25h-5.5z"/>
</svg>
