<svg xmlns="http://www.w3.org/2000/svg" width="24" height="24" viewBox="0 0 24 24">
    <path id="bounds" opacity="0" d="M0 0h24v24H0z"/>
    <path d="M10.5 14.25h3c.414 0 .75-.336.75-.75v-3c0-.414-.336-.75-.75-.75h-3c-.414 0-.75.336-.75.75v3c0 .414.336.75.75.75z"/>
    <path d="M19.75 22H4.25C3.01 22 2 20.99 2 19.75V4.25C2 3.01 3.01 2 4.25 2h15.5C20.99 2 22 3.01 22 4.25v15.5c0 1.24-1.01 2.25-2.25 2.25zM4.25 3.5c-.413 0-.75.337-.75.75v15.5c0 .413.337.75.75.75h15.5c.413 0 .75-.337.75-.75V4.25c0-.413-.337-.75-.75-.75H4.25z"/>
    <path d="M17 10.25c-.414 0-.75-.336-.75-.75V7.75H14.5c-.414 0-.75-.336-.75-.75s.336-.75.75-.75h2c.69 0 1.25.56 1.25 1.25v2c0 .414-.336.75-.75.75zM16.5 17.75h-2c-.414 0-.75-.336-.75-.75s.336-.75.75-.75h1.75V14.5c0-.414.336-.75.75-.75s.75.336.75.75v2c0 .69-.56 1.25-1.25 1.25zM9.5 17.75h-2c-.69 0-1.25-.56-1.25-1.25v-2c0-.414.336-.75.75-.75s.75.336.75.75v1.75H9.5c.414 0 .75.336.75.75s-.336.75-.75.75zM7 10.25c-.414 0-.75-.336-.75-.75v-2c0-.69.56-1.25 1.25-1.25h2c.414 0 .75.336.75.75s-.336.75-.75.75H7.75V9.5c0 .414-.336.75-.75.75z"/>
</svg>
