<svg xmlns="http://www.w3.org/2000/svg" width="24" height="24" viewBox="0 0 24 24">
    <path id="bounds" opacity="0" d="M0 0h24v24H0z"/>
    <path d="M8.854 2.042H3.79c-1.292 0-2.344 1.052-2.344 2.344v7.362c0 1.292 1.052 2.344 2.345 2.344l1.938-.002c.124 1.065.245 3.54-.618 6.987-.074.296.04.607.285.787.13.096.287.145.442.145.137 0 .273-.038.395-.113 2.4-1.487 4.966-4.516 4.966-8.555V4.386c0-1.292-1.05-2.344-2.344-2.344zm-1.862 17.37c.65-3.835.134-6.132.108-6.243-.08-.34-.382-.58-.73-.58l-2.578.002c-.466 0-.845-.38-.845-.844V4.386c0-.465.38-.844.845-.844h5.064c.465 0 .844.38.844.844v8.956c0 2.558-1.23 4.646-2.708 6.07zM20.28 2.042h-5.063c-1.293 0-2.345 1.052-2.345 2.344v7.362c0 1.292 1.052 2.344 2.345 2.344l1.936-.002c.124 1.065.246 3.54-.617 6.987-.074.296.04.607.285.787.132.096.288.145.443.145.137 0 .273-.038.395-.113 2.4-1.487 4.966-4.516 4.966-8.555V4.386c0-1.292-1.05-2.344-2.343-2.344zm-1.862 17.37c.65-3.835.133-6.132.107-6.243-.08-.34-.382-.58-.73-.58l-2.578.002c-.466 0-.845-.38-.845-.844V4.386c0-.465.38-.844.845-.844h5.064c.466 0 .845.38.845.844v8.956c0 2.557-1.228 4.646-2.707 6.07z"/>
</svg>
