<svg xmlns="http://www.w3.org/2000/svg" width="24" height="24">
    <path id="bounds" opacity="0" d="M0 0h24v24H0z"/>
    <path d="M10.345 22.875c-.112 0-.211-.014-.283-.027-.136-.014-.266-.051-.387-.108-.339-.136-.627-.382-.818-.7-.069-.102-.143-.263-.193-.438-.041-.12-.069-.298-.069-.476v-2.912c-4.32-.582-7.47-3.999-7.47-8.288 0-4.935 3.865-8.8 8.8-8.8l4.152.01c4.921 0 8.786 3.86 8.798 8.787 0 1.3-.314 2.639-.908 3.883-.584 1.213-1.442 2.322-2.483 3.21-1.004.843-3.672 2.662-7.936 5.41l-.201.129-.001-.001c-.027.021-.056.04-.086.058-.075.045-.208.125-.386.174-.056.019-.113.034-.169.046v.003c-.131.027-.249.04-.36.04zm-.423-19.75c-3.811 0-6.797 2.987-6.797 6.8 0 3.56 2.736 6.239 6.505 6.371.538.019.965.461.965.999v3.365c5.396-3.48 7.076-4.733 7.597-5.171.825-.704 1.509-1.587 1.972-2.548.464-.974.711-2.014.711-3.006-.009-3.816-2.996-6.8-6.8-6.8l-4.153-.01z"/>
</svg>
