<svg xmlns="http://www.w3.org/2000/svg" width="24" height="24">
    <path id="bounds" opacity="0" d="M0 0h24v24H0z"/>
    <path d="M23.707 16.986l-3.5 3.5c-.2.19-.45.29-.71.29s-.51-.1-.71-.29l-3.5-3.5c-.39-.39-.39-1.03 0-1.42.39-.39 1.03-.39 1.42 0l1.79 1.8V7.226c0-1.1-.9-2-2-2h-5.35c-.55 0-1-.45-1-1s.45-1 1-1h5.35c2.2 0 4 1.8 4 4v10.14l1.79-1.8c.39-.39 1.03-.39 1.42 0 .391.39.391 1.03 0 1.42z"/>
    <path d="M13.852 19.776c0 .55-.45 1-1 1h-5.35c-2.21 0-4-1.79-4-4V6.636l-1.79 1.8c-.39.39-1.03.39-1.42 0-.39-.39-.39-1.03 0-1.42l3.5-3.5c.39-.39 1.03-.39 1.42 0l3.5 3.5c.39.39.39 1.03 0 1.42-.2.19-.45.29-.71.29s-.51-.1-.71-.29l-1.79-1.8v10.14c0 1.1.9 2 2 2h5.35c.551 0 1 .45 1 1z"/>
</svg>
