<svg xmlns="http://www.w3.org/2000/svg" width="24" height="24">
    <path id="bounds" opacity="0" d="M0 0h24v24H0z"/>
    <path d="M13.849 19.702c0 .72-.58 1.3-1.3 1.3l-5.127.073c-2.23 0-4.05-1.81-4.05-4.05v-9.66l-1.16 1.16c-.5.51-1.33.51-1.83 0-.51-.51-.51-1.33 0-1.84l3.37-3.38c.51-.5 1.33-.5 1.84 0l3.37 3.38c.51.51.51 1.33 0 1.84-.25.25-.58.38-.92.38-.33 0-.66-.13-.91-.38l-1.16-1.16v9.66c0 .8.65 1.45 1.45 1.45l5.127-.073c.72 0 1.3.59 1.3 1.3z"/>
    <path d="M23.617 17.325l-3.37 3.37c-.25.26-.59.38-.92.38s-.67-.12-.92-.38l-3.37-3.37c-.51-.51-.51-1.33 0-1.84.5-.51 1.33-.51 1.83 0l1.16 1.16v-9.67c0-.8-.65-1.45-1.45-1.45h-5.13c-.72 0-1.3-.58-1.3-1.3 0-.71.58-1.3 1.3-1.3h5.13c2.23 0 4.05 1.82 4.05 4.05v9.67l1.16-1.16c.5-.51 1.33-.51 1.83 0 .511.51.511 1.33 0 1.84z"/>
</svg>
