<svg xmlns="http://www.w3.org/2000/svg" width="24" height="24" viewBox="0 0 24 24">
    <path id="bounds" opacity="0" d="M0 0h24v24H0z"/>
    <path d="M6.016 16.97l-1.53 1.53c-.15.14-.34.22-.53.22s-.38-.08-.53-.22c-.29-.29-.29-.77 0-1.06l1.53-1.54c.3-.29.77-.29 1.06 0 .3.3.3.77 0 1.07z"/>
    <path d="M8.136 19.09l-3.64 3.64c-.15.15-.34.22-.53.22s-.38-.07-.53-.22c-.29-.29-.29-.77 0-1.06l3.64-3.64c.3-.3.77-.3 1.06 0 .3.29.3.76 0 1.06z"/>
    <path d="M22.306 1.49c-.28-.28-.66-.44-1.06-.44 0 0-.09 0-.13.01-4.31.38-8.37 2.32-11.4 5.45h-.01c-2.68.54-5.12 1.86-7.09 3.84l-.93.93c-.46.47-.57 1.18-.27 1.76.27.5.78.8 1.33.8.09 0 .18-.01.27-.03l3.98-.73c.59.97 2.26 2.87 3.82 3.78l-.73 4.05c-.12.64.2 1.29.78 1.59.22.12.46.17.69.17.4 0 .78-.15 1.07-.44l.94-.94c1.96-1.99 3.27-4.48 3.8-7.21l.07-.06c0-.01.04-.04.04-.05 3.01-3.03 4.88-7.04 5.27-11.29.04-.44-.12-.88-.44-1.19zm-5.89 11.43c-.15.14-.3.28-.44.42v.02c-.41 2.6-1.63 5-3.48 6.87l-.93.94.88-4.89c.04-.22-.08-.42-.28-.52-1.03-.5-3.65-2.87-4.12-3.97-.09-.23-.32-.37-.56-.33l-4.74.88.93-.94c1.85-1.85 4.23-3.09 6.79-3.5.14-.17.3-.33.46-.48 2.88-2.9 6.55-4.53 10.32-4.87-.34 3.77-1.95 7.47-4.83 10.37z"/>
    <path d="M17.546 6.36c-.88-.88-2.3-.88-3.18 0s-.88 2.31 0 3.18c.88.88 2.3.88 3.18 0 .88-.87.88-2.3 0-3.18zm-1.06 2.12c-.29.3-.77.3-1.06 0-.29-.29-.29-.77 0-1.06.29-.29.77-.29 1.06 0s.29.77 0 1.06z"/>
</svg>
