<svg xmlns="http://www.w3.org/2000/svg" width="24" height="24" viewBox="0 0 24 24">
    <path id="bounds" opacity="0" d="M0 0h24v24H0z"/>
    <path d="M22.498 6.008c-.02-.718-.537-1.326-1.24-1.447-4.102-.626-8.048-3.065-8.468-3.328-.44-.293-1.074-.324-1.572 0-.04.02-4.19 2.672-8.497 3.33-.683.12-1.2.728-1.22 1.467 0 .495.03 12.174 9.933 16.85.195.08.39.12.566.12.243 0 .458-.07.595-.132 10.118-4.776 9.913-16.79 9.903-16.86zm-11.23 15.1C2.984 16.634 2.964 6.484 2.944 6.058c3.516-.535 6.876-2.286 8.32-3.106v18.156h.002zm1.464 0V2.952c1.465.84 4.815 2.58 8.302 3.117 0 .1.214 10.453-8.302 15.038z"/>
</svg>
