<svg xmlns="http://www.w3.org/2000/svg" width="24" height="24" viewBox="0 0 24 24">
    <path id="bounds" opacity="0" d="M0 0h24v24H0z"/>
    <path d="M21.6 3.18C15.59-.06 8.4-.06 2.39 3.18c-.24.13-.39.39-.39.65v8.56c0 8.54 9.73 10.82 9.83 10.84.05.02.11.02.17.02.05 0 .11 0 .16-.02.1-.02 9.84-2.3 9.84-10.84V3.83c0-.26-.16-.52-.4-.65zM16.67 13.8c-.65.66-1.55 1.06-2.55 1.06H9.87c-2 0-3.61-1.62-3.61-3.6 0-.99.4-1.9 1.05-2.55.66-.64 1.56-1.05 2.56-1.05h4.25c2 0 3.61 1.61 3.61 3.6 0 .99-.4 1.89-1.06 2.54z"/>
    <path d="M12.08 11.26c0 1.21-.98 2.2-2.2 2.2-1.21 0-2.2-.99-2.2-2.2 0-1.22.99-2.2 2.2-2.2 1.22 0 2.2.98 2.2 2.2z"/>
</svg>
