<svg xmlns="http://www.w3.org/2000/svg" width="24" height="24" viewBox="0 0 24 24">
    <path id="bounds" opacity="0" d="M0 0h24v24H0z"/>
    <path d="M21.6 3.139c-6.01-3.25-13.2-3.25-19.21 0-.24.13-.39.39-.39.66v8.58c0 8.59 9.73 10.88 9.83 10.9.05.02.11.02.17.02.05 0 .11 0 .16-.02.1-.02 9.84-2.31 9.84-10.9v-8.58c0-.27-.16-.53-.4-.66zm-1.1 9.24c0 6.9-7.27 9.08-8.5 9.4-1.24-.32-8.5-2.5-8.5-9.4v-8.13c5.35-2.73 11.64-2.73 17 0v8.13z"/>
    <path d="M14.12 7.639H9.87c-1 0-1.9.4-2.56 1.06-.65.66-1.05 1.56-1.05 2.56 0 1.99 1.61 3.61 3.61 3.61h4.25c1 0 1.9-.41 2.55-1.06.66-.65 1.06-1.55 1.06-2.55 0-2-1.61-3.62-3.61-3.62zm-4.24 5.82c-1.22 0-2.2-.99-2.2-2.2 0-1.22.98-2.2 2.2-2.2 1.22 0 2.2.98 2.2 2.2 0 1.21-.98 2.2-2.2 2.2z"/>
</svg>
