<svg xmlns="http://www.w3.org/2000/svg" width="24" height="24" viewBox="0 0 24 24">
    <path id="bounds" opacity="0" d="M0 0h24v24H0z"/>
    <path d="M21.53 20.47l-3.66-3.66C19.195 15.24 20 13.214 20 11c0-4.97-4.03-9-9-9s-9 4.03-9 9 4.03 9 9 9c2.215 0 4.24-.804 5.808-2.13l3.66 3.66c.147.146.34.22.53.22s.385-.073.53-.22c.295-.293.295-.767.002-1.06zM3.5 11c0-4.135 3.365-7.5 7.5-7.5s7.5 3.365 7.5 7.5-3.365 7.5-7.5 7.5-7.5-3.365-7.5-7.5z"/>
    <path d="M11 10.57c-.572 0-1.21-.064-1.62-.53-.342-.392-.453-.998-.34-1.85.162-1.193.894-1.904 1.96-1.904 1.066 0 1.8.71 1.958 1.902.115.853.003 1.46-.34 1.85-.407.468-1.046.53-1.618.53zM13.59 15H8.41c-.292 0-.552-.124-.73-.348-.186-.236-.254-.56-.18-.87.37-1.563 1.808-2.474 3.5-2.474s3.13.91 3.5 2.474c.074.31.006.634-.18.87-.18.224-.438.348-.73.348z"/>
</svg>
