<svg xmlns="http://www.w3.org/2000/svg" width="24" height="24">
    <path id="bounds" opacity="0" d="M0 0h24v24H0z"/>
    <path d="M19.5 22h-15C3.122 22 2 20.878 2 19.5V14c0-.552.448-1 1-1s1 .448 1 1v5.5c0 .271.229.5.5.5h15c.271 0 .5-.229.5-.5V14c0-.552.448-1 1-1s1 .448 1 1v5.5c0 1.378-1.122 2.5-2.5 2.5z"/>
    <path d="M17.71 8.703c-.2.2-.45.3-.71.3s-.51-.1-.71-.3L13 5.413v9.59c0 .55-.45 1-1 1s-1-.45-1-1v-9.59l-3.29 3.29c-.2.2-.45.3-.71.3s-.51-.1-.71-.3c-.39-.39-.39-1.02 0-1.41l5-5c.39-.39 1.03-.39 1.42 0l5 5c.391.39.391 1.02 0 1.41z"/>
</svg>
