<?xml version="1.0" encoding="UTF-8"?>
<svg xmlns="http://www.w3.org/2000/svg" width="24" height="24" viewBox="0 0 24 24">
    <path d="m23.276 9.737-7.358-7.358c-.573-.572-1.429-.743-2.18-.434-.75.312-1.234 1.036-1.234 1.849v2.904C4.144 8.005.245 13.202.25 23c0 .381.285.701.664.745.029.003.058.005.087.005.344 0 .648-.236.729-.578 1.344-5.713 4.962-8.429 10.773-8.056v3.09c0 .812.484 1.537 1.235 1.849.751.309 1.605.14 2.179-.434l7.358-7.358c.696-.696.696-1.829 0-2.525Zm-1.061 1.465-7.358 7.358c-.143.144-.355.188-.545.107-.188-.077-.309-.259-.309-.462v-3.781c0-.385-.292-.708-.675-.746-.634-.063-1.248-.096-1.841-.096-4.198 0-7.36 1.589-9.355 4.676C3.246 12.121 6.83 8.932 13.349 8.092c.374-.049.654-.367.654-.744V3.794c0-.203.121-.385.308-.462.188-.079.403-.036.546.107l7.358 7.358c.111.111.111.293 0 .404Z"/>
</svg>
