<svg xmlns="http://www.w3.org/2000/svg" width="24" height="24" viewBox="0 0 24 24">
    <path id="bounds" opacity="0" d="M0 0h24v24H0z"/>
    <path d="M21.027 22.213l-.778-16c-.02-.4-.35-.714-.75-.713h-3C16.5 3.015 14.482 1 12 1S7.5 3.015 7.5 5.5h-3c-.4 0-.73.313-.75.713l-.776 16c-.02.414.298.766.712.786h16.59c.415 0 .75-.338.75-.75v-.04zM12 2.5c1.657 0 3 1.343 3 3H9c0-1.657 1.343-3 3-3zm-7.49 19L5.215 7H7.5v1.25c0 .414.336.75.75.75S9 8.664 9 8.25V7h6v1.25c0 .414.336.75.75.75s.75-.336.75-.75V7h2.285l.7 14.5H4.51z"/>
</svg>
