<svg width="295" height="93" viewBox="0 0 295 93" fill="none" xmlns="http://www.w3.org/2000/svg" xmlns:xlink="http://www.w3.org/1999/xlink">
<rect x="20" y="16" width="61" height="61" rx="8" fill="#CCD6DD"/>
<path fill-rule="evenodd" clip-rule="evenodd" d="M54.4191 51.3839C54.9579 50.58 55.8739 50.0499 56.912 50.0499L56.91 50.049C58.5641 50.049 59.91 51.3949 59.91 53.049C59.91 54.703 58.5641 56.049 56.91 56.049C55.256 56.049 53.91 54.703 53.91 53.049C53.91 53.0165 53.9147 52.985 53.9193 52.953C53.9227 52.9298 53.9261 52.9066 53.9279 52.8829H50.9821C50.9833 52.9078 50.9867 52.932 50.9901 52.9559C50.9945 52.9867 50.9989 53.0172 50.9989 53.049C50.9989 54.703 49.653 56.049 47.9989 56.049C46.3451 56.049 44.9989 54.703 44.9989 53.049C44.9989 52.4921 45.162 51.976 45.4269 51.5289L43.1869 37.547H41.027C40.6129 37.547 40.277 37.2111 40.277 36.797C40.277 36.3829 40.6129 36.047 41.027 36.047H43.827C44.1949 36.047 44.5089 36.3151 44.567 36.6801L45.09 39.9381H60.2369C60.4569 39.9381 60.6639 40.035 60.807 40.201C60.9501 40.3671 61.0121 40.588 60.9769 40.8051L59.777 48.318C59.7201 48.682 59.4049 48.9501 59.037 48.9501H46.5299L46.7499 50.33C47.132 50.1549 47.5529 50.0499 47.9999 50.0499C49.038 50.0499 49.954 50.58 50.4899 51.3839H54.4191ZM59.358 41.4381H45.33V41.4401L46.2899 47.451H58.3981L59.358 41.4381ZM47.9999 54.5499C47.173 54.5499 46.4999 53.8768 46.4999 53.0499C46.4999 52.223 47.173 51.5499 47.9999 51.5499C48.8268 51.5499 49.4999 52.223 49.4999 53.0499C49.4999 53.8768 48.8268 54.5499 47.9999 54.5499ZM55.412 53.0499C55.412 53.8768 56.0851 54.5499 56.912 54.5499C57.7389 54.5499 58.412 53.8768 58.412 53.0499C58.412 52.223 57.7389 51.5499 56.912 51.5499C56.0851 51.5499 55.412 52.223 55.412 53.0499Z" fill="white"/>
<rect x="90" y="18.5" width="185" height="10" rx="1" fill="#AAB8C2"/>
<rect x="90" y="41.5" width="119" height="10" rx="1" fill="#AAB8C2"/>
<rect x="90" y="64.5" width="34" height="10" rx="1" fill="#AAB8C2"/>
<rect x="1" y="1" width="293" height="91" rx="11" stroke="#CCD6DD" fill="none" stroke-width="2"/>
</svg>
