<svg xmlns="http://www.w3.org/2000/svg" width="24" height="24" viewBox="0 0 24 24">
    <path id="bounds" opacity="0" d="M0 0h24v24H0z"/>
    <path d="M19.837 19.076C17.928 21.639 14.978 23 11.979 23c-2.009 0-4.029-.616-5.768-1.887-2.099-1.53-3.469-3.785-3.849-6.338-.39-2.553.25-5.096 1.79-7.172 1.79-2.404 4.589-3.824 7.548-3.914l-1.43-1.41c-.29-.298-.29-.765 0-1.063.29-.288.77-.288 1.06 0l2.779 2.762c.14.139.22.328.22.526 0 .199-.08.388-.22.527L11.54 7.574c-.14.149-.33.219-.53.219-.19 0-.38-.069-.53-.219-.29-.288-.29-.765 0-1.053l1.36-1.351C9.3 5.219 6.9 6.431 5.361 8.487c-1.31 1.758-1.849 3.914-1.52 6.069.33 2.155 1.48 4.063 3.259 5.354 3.659 2.682 8.828 1.907 11.527-1.719 1.869-2.503 2.139-5.781.72-8.553-.19-.368-.04-.825.33-1.003.37-.189.82-.04 1.01.328 1.679 3.279 1.349 7.153-.85 10.113z"/>
    <path d="M15.928 14.368c0 .417-.09.794-.27 1.112-.17.328-.43.576-.76.755-.33.179-.71.268-1.15.268-.57 0-1.05-.129-1.43-.397-.38-.258-.62-.626-.71-1.083l-.02-.099 1.14-.228.02.099c.05.228.16.407.33.536.18.139.41.199.69.199.32 0 .56-.089.74-.288.18-.199.27-.477.27-.834 0-.368-.09-.676-.27-.884-.17-.209-.41-.308-.74-.308-.52 0-.84.239-.99.725l-.02.08-1.06-.099.36-3.447h3.579v.973h-2.689l-.14 1.262c.1-.099.22-.189.36-.259.24-.119.53-.179.85-.179.59 0 1.06.189 1.4.566.34.377.51.894.51 1.53z"/>
    <path d="M10.469 10.474v5.91H9.31v-4.162c-.08.05-.17.099-.28.129-.2.07-.4.099-.59.099h-.38v-1.053h.28c.28 0 .53-.08.73-.219.19-.139.33-.358.41-.636l.02-.069h.969z"/>
    <path d="M14.78 7.793c-.192 0-.385-.073-.531-.219-.292-.292-.291-.763.001-1.054l2.037-2.018-2.249-2.228c-.293-.291-.294-.762-.001-1.054.292-.29.767-.292 1.061-.001l2.781 2.755c.141.14.22.33.22.528s-.079.388-.22.528L15.31 7.576c-.147.145-.338.217-.53.217z"/>
</svg>
