<svg xmlns="http://www.w3.org/2000/svg" width="24" height="24" viewBox="0 0 24 24">
    <path id="bounds" opacity="0" d="M0 0h24v24H0z"/>
    <path d="M15.936 14.368c0 .417-.09.794-.27 1.112-.17.328-.43.576-.76.755-.33.179-.71.268-1.149.268-.57 0-1.049-.129-1.429-.397-.38-.258-.62-.626-.71-1.083l-.02-.099 1.139-.228.02.099c.05.228.16.407.33.536.18.139.41.199.69.199.32 0 .56-.089.74-.288.18-.199.27-.477.27-.834 0-.368-.09-.676-.27-.884-.17-.209-.41-.308-.74-.308-.52 0-.84.239-.989.725l-.02.08-1.059-.099.36-3.447h3.578v.973h-2.688l-.15 1.262c.11-.099.23-.189.37-.259.24-.119.53-.179.849-.179.59 0 1.059.189 1.399.566.339.377.509.894.509 1.53z"/>
    <path d="M10.479 10.474v5.91h-1.16v-4.162c-.08.05-.17.099-.28.129-.2.07-.4.099-.59.099H8.07v-1.053h.28c.28 0 .53-.08.73-.219.19-.139.33-.358.41-.636l.02-.069h.969z"/>
    <path d="M9.22 7.793c-.191 0-.383-.072-.529-.217L6.122 5.03c-.141-.14-.22-.33-.22-.528s.079-.388.22-.528l2.78-2.755c.294-.291.769-.29 1.06.001.292.292.291.763-.001 1.054L7.713 4.502 9.75 6.52c.293.291.294.762.001 1.054-.146.146-.339.219-.531.219z"/>
    <path d="M21.642 14.775c-.39 2.553-1.759 4.808-3.858 6.338C16.056 22.384 14.027 23 12.018 23c-2.988 0-5.947-1.361-7.855-3.924-2.199-2.96-2.529-6.834-.85-10.112.19-.368.64-.517 1.009-.328.37.179.52.636.33 1.003-1.419 2.771-1.149 6.05.72 8.553 2.698 3.626 7.865 4.401 11.533 1.719 1.769-1.291 2.928-3.199 3.248-5.354.33-2.155-.21-4.311-1.519-6.069-1.529-2.056-3.938-3.268-6.476-3.318l1.359 1.351c.29.288.29.765 0 1.053-.15.149-.34.219-.53.219s-.38-.069-.53-.219L9.889 5.03c-.14-.139-.22-.328-.22-.527s.08-.387.22-.526l2.778-2.762c.29-.288.77-.288 1.059 0 .29.298.29.765 0 1.063l-1.429 1.41c2.958.089 5.757 1.5 7.546 3.914 1.549 2.077 2.179 4.62 1.799 7.173z"/>
</svg>
