<svg xmlns="http://www.w3.org/2000/svg" width="24" height="24" viewBox="0 0 24 24">
    <path id="bounds" opacity="0" d="M0 0h24v24H0z"/>
    <path d="M3.538 14.219l7.15 7.18c.39.39.89.63 1.47.6.55-.01 1.07-.23 1.45-.63l6.88-7.18c.56-.59.72-1.42.4-2.17s-1.03-1.21-1.84-1.21h-3.72v-6.81c0-1.1-.9-2-2-2h-2.66c-1.11 0-2 .9-2 2v6.81h-3.72c-.82 0-1.53.47-1.84 1.23-.32.76-.15 1.59.43 2.18zm.95-1.61c.04-.09.16-.3.46-.3h4.47c.41 0 .75-.34.75-.75v-7.56c0-.28.22-.5.5-.5h2.66c.28 0 .5.22.5.5v7.56c0 .41.34.75.75.75h4.47c.29 0 .42.21.46.3.04.09.1.33-.1.54l-6.88 7.18c-.1.11-.24.17-.39.17-.15 0-.29-.06-.39-.16l-7.15-7.18c-.21-.21-.15-.45-.11-.55z"/>
</svg>
