<svg xmlns="http://www.w3.org/2000/svg" width="24" height="24" viewBox="0 0 24 24">
    <path id="bounds" opacity="0" d="M0 0h24v24H0z"/>
    <path d="M12.253 22.75c-.166 0-.33-.055-.466-.162L4.74 17H2.254c-1.24 0-2.25-1.01-2.25-2.25v-5.5C.003 8.01 1.013 7 2.253 7H4.74l7.047-5.588c.225-.18.533-.215.792-.087.258.125.423.387.423.675v20c0 .288-.165.55-.424.675-.104.05-.216.075-.327.075zm-10-14.25c-.413 0-.75.337-.75.75v5.5c0 .413.337.75.75.75h2.75c.17 0 .333.058.466.162l6.033 4.786V3.552L5.47 8.338c-.134.104-.298.162-.467.162h-2.75zM16.583 16.726c-.308 0-.596-.19-.705-.495-.14-.39.06-.818.45-.96 1.373-.495 2.296-1.81 2.296-3.27s-.923-2.774-2.296-3.27c-.39-.14-.592-.57-.45-.96.14-.39.57-.59.958-.45 1.967.707 3.288 2.59 3.288 4.68s-1.32 3.972-3.286 4.68c-.084.03-.17.046-.255.046z"/>
    <path d="M17.82 20.135c-.306 0-.594-.19-.704-.495-.14-.39.06-.82.45-.96 2.802-1.014 4.684-3.698 4.684-6.68 0-2.98-1.883-5.665-4.684-6.68-.39-.14-.592-.57-.45-.96.14-.39.573-.59.96-.45C21.47 5.14 23.75 8.39 23.75 12c0 3.61-2.28 6.862-5.674 8.09-.084.03-.17.045-.255.045z"/>
</svg>
