<svg xmlns="http://www.w3.org/2000/svg" width="24" height="24" viewBox="0 0 24 24">
    <path id="bounds" opacity="0" d="M0 0h24v24H0z"/>
    <path d="M3.318 14.785c-.12-.397-.537-.622-.934-.503-.397.12-.622.537-.503.934C3.18 19.518 7.16 22.75 12 22.75c4.846 0 8.828-3.232 10.118-7.535.12-.397-.106-.815-.503-.934-.397-.11-.815.11-.934.51-1.1 3.7-4.52 6.468-8.68 6.468-4.15 0-7.57-2.767-8.68-6.464z"/>
    <path d="M15 8.25c-.414 0-.75.336-.75.75v2.5c0 .414.336.75.75.75s.75-.336.75-.75V9c0-.414-.336-.75-.75-.75z"/>
    <path d="M12 7.25c-.414 0-.75.336-.75.75v4.5c0 .414.336.75.75.75s.75-.336.75-.75V8c0-.414-.336-.75-.75-.75z"/>
    <path d="M9 8.25c-.414 0-.75.336-.75.75v2.5c0 .414.336.75.75.75s.75-.336.75-.75V9c0-.414-.336-.75-.75-.75z"/>
    <path d="M12 1.25c-3.866 0-7 3.134-7 7v4c0 3.866 3.134 7 7 7s7-3.134 7-7v-4c0-3.866-3.134-7-7-7zm5.5 11c0 3.038-2.462 5.5-5.5 5.5s-5.5-2.462-5.5-5.5v-4c0-3.038 2.462-5.5 5.5-5.5s5.5 2.462 5.5 5.5v4z"/>
</svg>
