<svg xmlns="http://www.w3.org/2000/svg" width="24" height="24" viewBox="0 0 24 24">
    <path id="bounds" opacity="0" d="M0 0h24v24H0z"/>
    <path d="M22.772 10.506l-5.618-2.192-2.16-6.5c-.102-.307-.39-.514-.712-.514s-.61.207-.712.513l-2.16 6.5-5.62 2.192c-.287.112-.477.39-.477.7s.19.585.478.698l5.62 2.192 2.16 6.5c.102.306.39.513.712.513s.61-.207.712-.513l2.16-6.5 5.62-2.192c.287-.112.477-.39.477-.7s-.19-.585-.478-.697zM7.413 4.562c0-.414-.336-.75-.75-.75h-1.88V2.05c0-.414-.337-.75-.75-.75s-.75.336-.75.75v1.762H1.5c-.414 0-.75.336-.75.75s.336.75.75.75h1.782v1.762c0 .414.336.75.75.75s.75-.336.75-.75V5.312h1.88c.415 0 .75-.336.75-.75zM9.198 19.434h-1.1v-1.016c0-.414-.335-.75-.75-.75s-.75.336-.75.75v1.016H5.57c-.414 0-.75.336-.75.75s.336.75.75.75H6.6v1.016c0 .414.335.75.75.75s.75-.336.75-.75v-1.016h1.098c.414 0 .75-.336.75-.75s-.336-.75-.75-.75z"/>
</svg>
