<svg xmlns="http://www.w3.org/2000/svg" width="24" height="24" viewBox="0 0 24 24">
    <path id="bounds" opacity="0" d="M0 0h24v24H0z"/>
    <path d="M17.253 22.75c-.166 0-.33-.055-.466-.162L9.74 17H7.254c-1.24 0-2.25-1.01-2.25-2.25v-5.5c0-1.24 1.01-2.25 2.25-2.25H9.74l7.047-5.588c.225-.18.534-.215.792-.087.258.125.423.387.423.675v20c0 .288-.165.55-.424.675-.104.05-.216.075-.327.075zm-10-14.25c-.413 0-.75.337-.75.75v5.5c0 .413.337.75.75.75h2.75c.17 0 .333.058.466.162l6.033 4.786V3.552L10.47 8.338c-.134.104-.298.162-.467.162h-2.75z"/>
</svg>
