<svg xmlns="http://www.w3.org/2000/svg" width="24" height="24" viewBox="0 0 24 24">
    <path id="bounds" opacity="0" d="M0 0h24v24H0z"/>
    <path d="M12 4.23l1.707 5c.207.606.778 1.014 1.42 1.014h4.92l-3.91 2.77c-.54.384-.766 1.08-.55 1.708l1.693 4.964-4.412-3.13c-.26-.183-.564-.275-.868-.275-.304 0-.608.093-.868.278l-4.416 3.135 1.698-4.972c.215-.628-.01-1.323-.552-1.708l-3.908-2.77h4.92c.64 0 1.21-.408 1.42-1.015L12 4.23m0-2.164c-.508 0-.956.32-1.12.8L8.874 8.742H2.945c-.513 0-.97.332-1.126.82-.158.49.02 1.02.44 1.318l4.735 3.357-2.018 5.908c-.164.484 0 1.02.415 1.324.21.155.46.233.708.233.238 0 .477-.072.682-.216L12 17.782l5.22 3.703c.206.146.446.218.686.218.25 0 .497-.08.705-.233.41-.305.577-.84.41-1.324l-2.015-5.906 4.735-3.356c.415-.3.596-.83.44-1.318-.156-.487-.61-.82-1.125-.82h-5.928l-2.007-5.88c-.164-.477-.612-.8-1.12-.8z"/>
</svg>
