<svg xmlns="http://www.w3.org/2000/svg" width="24" height="24" viewBox="0 0 24 24">
    <path id="bounds" opacity="0" d="M0 0h24v24H0z"/>
    <path d="M2.4 16.6c-.2 0-.4-.1-.5-.2-.3-.3-.3-.8 0-1.1L7 10.2c.3-.3.8-.3 1.1 0s.3.8 0 1.1l-5.2 5.2c-.2.1-.3.1-.5.1zm.3 6.5c-.2 0-.4-.1-.5-.2-.3-.3-.3-.8 0-1.1l5.4-5.4c.3-.3.8-.3 1.1 0s.3.8 0 1.1l-5.4 5.4c-.2.1-.4.2-.6.2zm6.9-.6c-.2 0-.4-.1-.5-.2-.3-.3-.3-.8 0-1.1l4.8-4.8c.3-.3.8-.3 1.1 0s.3.8 0 1.1l-4.8 4.8c-.2.1-.4.2-.6.2z"/>
    <path d="M22.384 6.56c-.118-.368-.46-.62-.848-.62h-4.464l-1.51-4.427c-.125-.358-.462-.602-.844-.602-.383 0-.72.243-.843.603l-1.51 4.426H7.9c-.387 0-.73.25-.85.617-.117.37.017.77.333.993l3.566 2.528-1.52 4.45c-.125.363 0 .767.312.996.313.23.73.233 1.047.012l3.93-2.79 3.93 2.79c.155.11.336.164.517.164.188 0 .374-.06.53-.175.31-.23.436-.633.31-.997L18.49 10.08l3.566-2.527c.31-.226.446-.625.328-.994z"/>
</svg>
