<?xml version="1.0" encoding="utf-8"?>
<svg xmlns="http://www.w3.org/2000/svg" width="24" height="24" viewBox="0 0 24 24">
  <path d="M18.75 21.7499H5.25C4.01 21.7499 3 20.74 3 19.4999V10.25C3 9.00999 4.01 8 5.25 8H18.75C19.99 8 21 9.00999 21 10.25V19.4999C21 20.74 19.99 21.7499 18.75 21.7499ZM5.25 9.5C4.837 9.5 4.5 9.837 4.5 10.25V19.4999C4.5 19.913 4.837 20.2499 5.25 20.2499H18.75C19.163 20.2499 19.5 19.913 19.5 19.4999V10.25C19.5 9.837 19.163 9.5 18.75 9.5H5.25ZM18.75 5.75C18.75 5.336 18.414 5 18 5H6C5.586 5 5.25 5.336 5.25 5.75C5.25 6.164 5.586 6.5 6 6.5H18C18.414 6.5 18.75 6.164 18.75 5.75ZM16.75 2.75C16.75 2.336 16.414 2 16 2H8C7.586 2 7.25 2.336 7.25 2.75C7.25 3.164 7.586 3.5 8 3.5H16C16.414 3.5 16.75 3.164 16.75 2.75Z"/>
</svg>

