<svg xmlns="http://www.w3.org/2000/svg" width="24" height="24" viewBox="0 0 24 24">
    <path id="bounds" opacity="0" d="M0 0h24v24H0z"/>
    <circle cx="8" cy="9" r="1.75"/>
    <circle cx="16" cy="9" r="1.75"/>
    <path d="M20.237 4.5c-2.104-2.1-4.894-3.25-7.872-3.25-2.968 0-5.757 1.15-7.862 3.25-4.338 4.33-4.338 11.374 0 15.704C6.2 21.898 8.106 22.75 10.16 22.75c.477 0 .964-.04 1.46-.14 2.233-.415 4.606-1.812 6.85-4.06 2.252-2.25 3.682-4.628 4.128-6.877.517-2.635-.297-5.112-2.36-7.173zm-.338 9.908c-.626 1.03-1.46 2.07-2.483 3.09-1.43 1.428-2.88 2.468-4.288 3.092.585-.872.952-1.982 1.07-3.26.13-1.447 1.54-2.982 3.674-3.042.943-.03 1.707-.188 2.333-.426-.09.18-.2.367-.308.546zm1.28-3.855c-.01.624-.288 1.23-.814 1.575-.625.416-1.48.644-2.53.674-2.413.07-4.428 1.575-4.984 3.636-.248.04-.506.06-.764.06-1.797 0-3.444-.903-4.417-2.41-.217-.346-.674-.445-1.02-.227-.348.23-.448.685-.23 1.03 1.252 1.933 3.366 3.092 5.67 3.092.168 0 .346-.01.515-.03-.218 1.12-.675 2-1.34 2.536-.635.505-1.44.713-2.422.614-1.16-.277-2.263-.93-3.286-1.952-4.23-4.227-3.694-11.43 1.597-14.898 1.32-.862 2.85-1.377 4.417-1.486 2.86-.208 5.68.713 7.605 2.784 1.757 1.873 2.015 3.894 2.005 5.003z"/>
</svg>
