<svg xmlns="http://www.w3.org/2000/svg" width="24" height="24">
    <path id="bounds" opacity="0" d="M0 0h24v24H0z"/>
    <path d="M22.856 15.271l-3.681 2.692 1.393 4.338c.06.14 0 .289-.119.379-.06.05-.129.07-.199.07-.08 0-.149-.02-.209-.07l-3.681-2.673-3.681 2.673c-.06.05-.129.07-.209.07-.07 0-.139-.02-.199-.07-.129-.09-.189-.239-.129-.379l1.393-4.338-3.671-2.692c-.119-.08-.169-.249-.129-.389.05-.15.179-.239.338-.239h4.546l1.403-4.338c.05-.15.189-.229.338-.229.139 0 .289.08.338.229l1.403 4.338h4.546c.149 0 .298.09.338.239.04.14 0 .309-.129.389z"/>
    <path d="M9.421 21.94H3.217c-.699 0-1.336-.303-1.748-.83-.426-.547-.571-1.262-.397-1.961.709-2.858 3.074-5.082 6.171-5.805.399-.098.812.158.908.567.095.408-.159.815-.565.91-2.541.593-4.474 2.392-5.046 4.693-.06.245-.017.486.121.662.126.162.319.248.556.248h6.204c.418 0 .756.34.756.758s-.338.758-.756.758z"/>
    <path d="M9.421 11.598c-1.378 0-2.918-.152-3.901-1.279-.827-.947-1.095-2.411-.819-4.473.385-2.878 2.15-4.596 4.72-4.596s4.334 1.717 4.721 4.596c.276 2.062.008 3.526-.819 4.473-.984 1.128-2.525 1.279-3.902 1.279zm0-8.826c-2.414 0-3.051 2.053-3.215 3.276-.212 1.579-.058 2.679.457 3.27.464.532 1.289.758 2.758.758s2.294-.227 2.758-.758c.514-.589.669-1.69.457-3.269-.165-1.224-.8-3.277-3.215-3.277z"/>
</svg>
