<?xml version="1.0" encoding="UTF-8"?>
<svg xmlns="http://www.w3.org/2000/svg" width="24" height="24" viewBox="0 0 24 24">
    <path d="M4.701 5.846c.384-2.878 2.148-4.596 4.72-4.596s4.334 1.718 4.721 4.596c.557 4.155-1.073 5.752-4.721 5.752S4.144 10 4.701 5.846Zm6.958 12.725-2.742-2.01c-.634-.427-.952-1.313-.721-2.119.246-.738.832-1.213 1.521-1.343-.072-.002-.143-.008-.215-.008-3.926 0-7.5 2.311-8.431 6.058-.353 1.436.647 2.79 2.146 2.79H10.6c.015-.057.012-.115.032-.171l1.027-3.198Zm10.988-3.928h-4.546l-1.403-4.338c-.049-.149-.199-.229-.338-.229-.149 0-.288.079-.338.229l-1.403 4.338h-4.546c-.159 0-.288.089-.338.239-.04.14.01.309.129.389l3.671 2.692-1.393 4.338c-.06.14 0 .289.129.379.06.05.129.07.199.07.08 0 .149-.02.209-.07l3.681-2.673 3.681 2.673c.06.05.129.07.209.07.07 0 .139-.02.199-.07.119-.09.179-.239.119-.379l-1.393-4.338 3.681-2.692c.129-.08.169-.249.129-.389-.04-.149-.189-.239-.338-.239Z"/>
</svg>
