<svg width="18" height="18" viewBox="0 0 18 18" fill="none" xmlns="http://www.w3.org/2000/svg">
<path d="M16.4093 7.72308C15.9518 7.08558 15.2393 6.71808 14.4593 6.71808H11.5418L11.9318 3.65808C12.0293 2.87808 11.6318 2.10558 10.9493 1.73058C10.4768 1.47558 9.92927 1.43058 9.42677 1.60308C8.93177 1.77558 8.51927 2.15058 8.30927 2.63808C7.82177 3.73308 6.85427 5.74308 5.80427 6.94308C5.53427 7.25058 5.13677 7.43058 4.70927 7.43058H4.31927C3.95927 6.93558 3.38177 6.61308 2.72177 6.61308C1.63427 6.61308 0.749268 7.50558 0.749268 8.60058V14.8856C0.749268 15.9806 1.63427 16.8731 2.72177 16.8731H11.0993C12.0818 16.8731 13.0193 16.5581 13.7843 16.0106C14.5493 15.4556 15.1418 14.6681 15.4643 13.7306L16.7393 9.92808C16.9943 9.17808 16.8743 8.36808 16.4093 7.72308ZM1.87427 14.8856V8.60058C1.87427 8.12808 2.25677 7.73808 2.72177 7.73808C3.19427 7.73808 3.57677 8.12808 3.57677 8.60058V15.7481H2.72177C2.25677 15.7481 1.87427 15.3656 1.87427 14.8856ZM15.6743 9.56808L14.3918 13.3706C13.9118 14.7956 12.5918 15.7481 11.0993 15.7481H4.70177V8.55558H4.70927C5.45927 8.55558 6.16427 8.24058 6.64427 7.68558C7.79927 6.37308 8.82677 4.24308 9.33677 3.08808C9.42677 2.88558 9.58427 2.73558 9.79427 2.66808C9.99677 2.60058 10.2218 2.61558 10.4093 2.72058C10.6943 2.87808 10.8593 3.19308 10.8143 3.52308L10.4018 6.80058C10.3643 7.06308 10.4393 7.32558 10.6118 7.52808C10.7843 7.73058 11.0318 7.84308 11.2943 7.84308H14.4593C14.8718 7.84308 15.2543 8.03808 15.5018 8.38308C15.7493 8.72808 15.8168 9.16308 15.6743 9.56808Z" fill="#536471" stroke="#536471"/>
</svg>
