<svg width="18" height="18" viewBox="0 0 18 18" fill="none" xmlns="http://www.w3.org/2000/svg">
<path d="M1.21048 10.65C1.66798 11.2875 2.38048 11.655 3.16048 11.655L6.07798 11.655L5.68798 14.715C5.59048 15.495 5.98798 16.2675 6.67048 16.6425C7.14298 16.8975 7.69048 16.9425 8.19298 16.77C8.68798 16.5975 9.10048 16.2225 9.31048 15.735C9.79798 14.64 10.7655 12.63 11.8155 11.43C12.0855 11.1225 12.483 10.9425 12.9105 10.9425L13.3005 10.9425C13.6605 11.4375 14.238 11.76 14.898 11.76C15.9855 11.76 16.8705 10.8675 16.8705 9.7725L16.8705 3.48749C16.8705 2.39249 15.9855 1.49999 14.898 1.49999L6.52048 1.49999C5.53798 1.49999 4.60049 1.81499 3.83549 2.36249C3.07049 2.91749 2.47798 3.70499 2.15548 4.64249L0.880484 8.44499C0.625484 9.19499 0.745485 10.005 1.21048 10.65ZM15.7455 3.48749L15.7455 9.7725C15.7455 10.245 15.363 10.635 14.898 10.635C14.4255 10.635 14.043 10.245 14.043 9.7725L14.043 2.62499L14.898 2.62499C15.363 2.62499 15.7455 3.00749 15.7455 3.48749ZM1.94548 8.80499L3.22798 5.00249C3.70798 3.57749 5.02798 2.62499 6.52048 2.62499L12.918 2.62499L12.918 9.8175L12.9105 9.8175C12.1605 9.8175 11.4555 10.1325 10.9755 10.6875C9.82048 12 8.79298 14.13 8.28298 15.285C8.19298 15.4875 8.03548 15.6375 7.82548 15.705C7.62298 15.7725 7.39798 15.7575 7.21048 15.6525C6.92548 15.495 6.76048 15.18 6.80548 14.85L7.21798 11.5725C7.25548 11.31 7.18048 11.0475 7.00798 10.845C6.83548 10.6425 6.58798 10.53 6.32548 10.53L3.16048 10.53C2.74798 10.53 2.36548 10.335 2.11798 9.98999C1.87048 9.64499 1.80298 9.20999 1.94548 8.80499Z" fill="#536471" stroke="#536471"/>
</svg>
