<svg width="24" height="24" viewBox="0 0 24 24" fill="none" xmlns="http://www.w3.org/2000/svg">
<path d="M21.879 10.2974C21.269 9.44744 20.319 8.95744 19.279 8.95744H15.389L15.909 4.87744C16.039 3.83744 15.509 2.80744 14.599 2.30744C13.969 1.96744 13.239 1.90744 12.569 2.13744C11.909 2.36744 11.359 2.86744 11.079 3.51744C10.429 4.97744 9.13902 7.65744 7.73902 9.25744C7.37902 9.66744 6.84902 9.90744 6.27902 9.90744H5.75902C5.27902 9.24744 4.50902 8.81744 3.62902 8.81744C2.17902 8.81744 0.999023 10.0074 0.999023 11.4674V19.8474C0.999023 21.3074 2.17902 22.4974 3.62902 22.4974H14.799C16.109 22.4974 17.359 22.0774 18.379 21.3474C19.399 20.6074 20.189 19.5574 20.619 18.3074L22.319 13.2374C22.659 12.2374 22.499 11.1574 21.879 10.2974ZM2.49902 19.8474V11.4674C2.49902 10.8374 3.00902 10.3174 3.62902 10.3174C4.25902 10.3174 4.76902 10.8374 4.76902 11.4674V20.9974H3.62902C3.00902 20.9974 2.49902 20.4874 2.49902 19.8474ZM20.899 12.7574L19.189 17.8274C18.549 19.7274 16.789 20.9974 14.799 20.9974H6.26902V11.4074H6.27902C7.27902 11.4074 8.21902 10.9874 8.85902 10.2474C10.399 8.49744 11.769 5.65744 12.449 4.11744C12.569 3.84744 12.779 3.64744 13.059 3.55744C13.329 3.46744 13.629 3.48744 13.879 3.62744C14.259 3.83744 14.479 4.25744 14.419 4.69744L13.869 9.06744C13.819 9.41744 13.919 9.76744 14.149 10.0374C14.379 10.3074 14.709 10.4574 15.059 10.4574H19.279C19.829 10.4574 20.339 10.7174 20.669 11.1774C20.999 11.6374 21.089 12.2174 20.899 12.7574Z" />
</svg>
