<svg width="24" height="24" viewBox="0 0 24 24" fill="none" xmlns="http://www.w3.org/2000/svg">
<path d="M1.61414 14.2C2.22414 15.05 3.17414 15.54 4.21414 15.54L8.10414 15.54L7.58414 19.62C7.45414 20.66 7.98414 21.69 8.89414 22.19C9.52414 22.53 10.2541 22.59 10.9241 22.36C11.5841 22.13 12.1341 21.63 12.4141 20.98C13.0641 19.52 14.3541 16.84 15.7541 15.24C16.1141 14.83 16.6441 14.59 17.2141 14.59L17.7341 14.59C18.2141 15.25 18.9841 15.68 19.8641 15.68C21.3141 15.68 22.4941 14.49 22.4941 13.03L22.4941 4.65C22.4941 3.19 21.3141 2 19.8641 2L8.69414 1.99999C7.38414 1.99999 6.13414 2.41999 5.11414 3.14999C4.09414 3.88999 3.30414 4.94 2.87414 6.19L1.17414 11.26C0.834142 12.26 0.994142 13.34 1.61414 14.2ZM20.9941 4.65L20.9941 13.03C20.9941 13.66 20.4841 14.18 19.8641 14.18C19.2341 14.18 18.7241 13.66 18.7241 13.03L18.7241 3.5L19.8641 3.5C20.4841 3.5 20.9941 4.01 20.9941 4.65ZM2.59414 11.74L4.30414 6.66999C4.94414 4.76999 6.70414 3.49999 8.69414 3.49999L17.2241 3.5L17.2241 13.09L17.2141 13.09C16.2141 13.09 15.2741 13.51 14.6341 14.25C13.0941 16 11.7241 18.84 11.0441 20.38C10.9241 20.65 10.7141 20.85 10.4341 20.94C10.1641 21.03 9.86414 21.01 9.61414 20.87C9.23414 20.66 9.01414 20.24 9.07414 19.8L9.62414 15.43C9.67414 15.08 9.57414 14.73 9.34414 14.46C9.11414 14.19 8.78414 14.04 8.43414 14.04L4.21414 14.04C3.66414 14.04 3.15414 13.78 2.82414 13.32C2.49414 12.86 2.40414 12.28 2.59414 11.74Z" />
</svg>
