<?xml version="1.0" encoding="UTF-8"?>
<svg xmlns="http://www.w3.org/2000/svg" width="24" height="24" viewBox="0 0 24 24">
    <path d="M18.744 2.01h1.11c1.458 0 2.64 1.182 2.64 2.64v9.165c0 1.036-.839 1.875-1.875 1.875s-1.875-.839-1.875-1.875V2.01Zm-2 13.202c-2.11.677-4.304 3.503-5.515 6.223-.206.461-.588.817-1.049.976-.186.064-.38.096-.577.096-.299 0-.592-.074-.848-.214-.647-.356-1.02-1.086-.927-1.818l.628-4.925H4.214c-1.041 0-1.988-.488-2.6-1.34-.621-.862-.779-1.932-.44-2.94l1.7-5.07c.415-1.239 1.199-2.285 2.24-3.04 1.037-.743 2.307-1.15 3.58-1.15h8.05v13.202Z"/>
</svg>
