<svg xmlns="http://www.w3.org/2000/svg" width="24" height="24" viewBox="0 0 24 24">
    <path id="bounds" opacity="0" d="M0 0h24v24H0z"/>
    <path d="M22.556 8.357L21.23 7.032c-.11-.1-.25-.16-.39-.16-.09 0-.192.02-.272.08-.432.31-.944.47-1.456.47-.642 0-1.295-.25-1.787-.742s-.743-1.134-.753-1.787c0-.512.16-1.024.472-1.455.15-.21.1-.492-.07-.662L15.64 1.45c-.292-.3-.683-.45-1.075-.45-.38 0-.763.15-1.054.442L1.436 13.505c-.582.592-.582 1.546.01 2.138l1.325 1.325c.11.11.25.17.402.17.09 0 .18-.03.26-.08.433-.32.945-.48 1.457-.48.65.01 1.294.25 1.786.742s.733 1.134.743 1.787c0 .512-.162 1.024-.473 1.465-.14.2-.09.482.09.662l1.315 1.315c.3.3.692.45 1.074.45.392 0 .773-.15 1.064-.442l12.066-12.064c.592-.592.592-1.545 0-2.137zM9.416 21.484l-.813-.813c.21-.5.32-1.043.32-1.585-.01-1.074-.43-2.078-1.184-2.83-.754-.753-1.758-1.174-2.852-1.184-.542 0-1.074.11-1.566.322l-.813-.823 3.673-3.664 6.906 6.905-3.674 3.674zm4.738-4.737L7.248 9.832l7.318-7.327.823.823c-.212.492-.322 1.024-.322 1.586.02 1.074.442 2.078 1.195 2.83.763.763 1.777 1.184 2.85 1.184.553 0 1.075-.11 1.567-.32l.813.822-7.34 7.317z"/>
</svg>
