<svg xmlns="http://www.w3.org/2000/svg" width="24" height="24" viewBox="0 0 24 24">
    <path id="bounds" opacity="0" d="M0 0h24v24H0z"/>
    <path d="M19.98 1.775H4.02c-1.24 0-2.25 1.01-2.25 2.25v15.95c0 1.24 1.01 2.25 2.25 2.25h15.96c1.24 0 2.25-1.01 2.25-2.25V4.025c0-1.24-1.01-2.25-2.25-2.25zm.75 18.2c0 .42-.34.75-.75.75H4.02c-.41 0-.75-.33-.75-.75v-9.48h17.46v9.48zm0-10.23H3.27v-5.72c0-.42.34-.75.75-.75h15.96c.41 0 .75.33.75.75v5.72z"/>
    <path d="M8.96 6.515v.09c0 .95-.78 1.72-1.73 1.72h-.08c-.95 0-1.73-.77-1.73-1.72v-.09c0-.95.78-1.73 1.73-1.73h.08c.95 0 1.73.78 1.73 1.73zM18.5 6.555c0 .42-.34.75-.75.75h-6.39c-.41 0-.75-.33-.75-.75 0-.41.34-.75.75-.75h6.39c.41 0 .75.34.75.75z"/>
	<path d="M8.96 13.725v.09c0 .95-.78 1.73-1.73 1.73h-.08c-.95 0-1.73-.78-1.73-1.73v-.09c0-.95.78-1.72 1.73-1.72h.08c.95 0 1.73.77 1.73 1.72zM18.5 13.775c0 .41-.34.75-.75.75h-6.39c-.41 0-.75-.34-.75-.75 0-.42.34-.75.75-.75h6.39c.41 0 .75.33.75.75zM18.5 17.375c0 .42-.34.75-.75.75h-6.39c-.41 0-.75-.33-.75-.75 0-.41.34-.75.75-.75h6.39c.41 0 .75.34.75.75z"/>
</svg>
