<svg xmlns="http://www.w3.org/2000/svg" width="24" height="24" viewBox="0 0 24 24">
    <path id="bounds" opacity="0" d="M0 0h24v24H0z"/>
    <path d="M20.954 4.678c.29.3.29.77 0 1.06-.15.15-.34.22-.53.22s-.38-.07-.53-.22l-1.32-1.32-1.33 1.32c-.15.15-.34.22-.53.22-.2 0-.39-.07-.53-.22-.3-.29-.3-.76 0-1.06l1.33-1.32-1.33-1.33c-.3-.29-.3-.77 0-1.06.29-.29.76-.29 1.06 0l1.33 1.33 1.32-1.33c.29-.29.77-.29 1.06 0 .29.29.29.77 0 1.06l-1.32 1.33 1.32 1.32z"/>
    <path d="M20.49 9.45c.04 1.97-.6 3.9-1.79 5.43-.27.36-1.12 1.4-1.12 1.4l-5.34 6.69c-.15.18-.37.28-.59.28-.08 0-.17-.01-.25-.04-.3-.11-.5-.39-.5-.71v-4.13c-2.07-.17-4-1.06-5.49-2.55-3.44-3.44-3.44-9.04 0-12.48C7.3 1.44 9.93.52 12.59.8c.41.04.71.41.66.82-.04.42-.42.72-.82.67-2.22-.23-4.39.53-5.96 2.11-2.86 2.85-2.86 7.5 0 10.36 1.38 1.38 3.22 2.14 5.18 2.14.41 0 .75.34.75.75v2.71l4.01-5.02c.01 0 .84-1.03 1.11-1.38.98-1.26 1.5-2.85 1.47-4.48 0-.42.33-.76.74-.77h.01c.41 0 .75.33.75.74z"/>
    <path d="M15.21 8.7h-7.1c-.413 0-.75-.335-.75-.75 0-.413.337-.75.75-.75h7.1c.413 0 .75.337.75.75 0 .415-.337.75-.75.75zM12.16 11.94H8.11c-.413 0-.75-.336-.75-.75s.337-.75.75-.75h4.05c.414 0 .75.336.75.75s-.336.75-.75.75z"/>
</svg>
