<svg xmlns="http://www.w3.org/2000/svg" width="24" height="24" viewBox="0 0 24 24">
    <path id="bounds" opacity="0" d="M0 0h24v24H0z"/>
    <path d="M19.6 4.392c-4.19-4.19-11.01-4.19-15.208 0-4.19 4.2-4.19 11.02 0 15.208 2.1 2.1 4.85 3.15 7.61 3.15 2.75 0 5.498-1.05 7.598-3.15 4.2-4.19 4.2-11.008 0-15.208zM12 2.752c2.37 0 4.74.9 6.54 2.7 3.43 3.43 3.6 8.91.51 12.54L6.002 4.94c1.73-1.46 3.86-2.19 6-2.19zm-6.548 15.79c-1.2-1.2-2-2.65-2.4-4.18l6.58 6.58c-1.53-.402-2.98-1.202-4.18-2.4zm6.6 2.708l-9.31-9.32c.01-.83.12-1.66.35-2.47l11.45 11.44c-.81.23-1.65.34-2.49.35zm4.01-.95L3.68 7.932c.33-.68.75-1.33 1.26-1.93l13.05 13.048c-.602.51-1.25.93-1.93 1.25z"/>
</svg>
