<svg xmlns="http://www.w3.org/2000/svg" width="24" height="24" viewBox="0 0 24 24">
    <path id="bounds" opacity="0" d="M0 0h24v24H0z"/>
    <path d="M20.746 5.236h-3.75V4.25c0-1.24-1.01-2.25-2.25-2.25h-5.5c-1.24 0-2.25 1.01-2.25 2.25v.986h-3.75c-.414 0-.75.336-.75.75s.336.75.75.75h.368l1.583 13.262c.216 1.193 1.31 2.027 2.658 2.027h8.282c1.35 0 2.442-.834 2.664-2.072l1.577-13.217h.368c.414 0 .75-.336.75-.75s-.335-.75-.75-.75zM10.75 17c0 .414-.336.75-.75.75s-.75-.336-.75-.75v-7c0-.414.336-.75.75-.75s.75.336.75.75v7zm4 0c0 .414-.336.75-.75.75s-.75-.336-.75-.75v-7c0-.414.336-.75.75-.75s.75.336.75.75v7zm.746-11.764h-7V4.25c0-.413.337-.75.75-.75h5.5c.413 0 .75.337.75.75v.986z"/>
</svg>
