<svg xmlns="http://www.w3.org/2000/svg" width="19" height="16" viewBox="0 0 19 16">
    <path id="bounds" opacity="0" d="M0 0h19v16H0z"/>
    <path d="M16.37 0l-1.546 12.996-.002-.002c-.1.55-.664.795-1.18.795H5.358c-.517 0-1.083-.247-1.175-.75L2.63 0H1.118L2.7 13.262c.217 1.193 1.31 2.027 2.66 2.027h8.28c1.35 0 2.443-.835 2.665-2.073L17.882 0H16.37z"/>
    <path d="M11.504 11.014c.414 0 .75-.336.75-.75v-7c0-.414-.336-.75-.75-.75s-.75.336-.75.75v7c0 .414.336.75.75.75zM7.504 11.014c.414 0 .75-.336.75-.75v-7c0-.414-.336-.75-.75-.75s-.75.336-.75.75v7c0 .414.336.75.75.75z"/>
</svg>
