<?xml version="1.0" encoding="utf-8"?>
<svg version="1.1" xmlns="http://www.w3.org/2000/svg" xmlns:xlink="http://www.w3.org/1999/xlink" x="0px" y="0px" width="180" height="180" viewBox="0 0 180 180" enable-background="new 0 0 180 180" xml:space="preserve">
<g id="bounds"><rect opacity="0" width="180" height="180"/></g>
<g id="icon">
<rect width="180" height="180"/>
<path fill="#FFFFFF" d="M133.337,65.053c-3.079,1.362-6.385,2.286-9.859,2.701c3.544-2.124,6.265-5.49,7.548-9.499c-3.316,1.967-6.989,3.399-10.901,4.165c-3.13-3.333-7.59-5.419-12.528-5.419c-9.479,0-17.167,7.685-17.167,17.168c0,1.345,0.155,2.65,0.443,3.909C76.6,77.359,63.955,70.528,55.486,60.14c-1.476,2.539-2.322,5.486-2.322,8.629c0,5.956,3.032,11.213,7.637,14.29c-2.814-0.09-5.461-0.862-7.776-2.148c-0.003,0.072-0.003,0.144-0.003,0.212c0,8.32,5.918,15.261,13.774,16.837c-1.444,0.391-2.958,0.599-4.523,0.599c-1.109,0-2.186-0.102-3.232-0.303c2.186,6.819,8.522,11.783,16.037,11.919c-5.877,4.605-13.282,7.351-21.321,7.351c-1.383,0-2.748-0.08-4.094-0.241C57.26,122.161,66.284,125,75.976,125c31.579,0,48.846-26.159,48.846-48.844c0-0.742-0.018-1.487-0.051-2.221C128.126,71.513,131.038,68.493,133.337,65.053z"/>
</g>
</svg>
