<svg xmlns="http://www.w3.org/2000/svg" width="76" height="24" viewBox="0 0 76 24">
    <path id="bounds" opacity="0" d="M0 0h76v24H0z"/>
    <path d="M15.543,3H2.75C2.336,3,2,3.336,2,3.75v16.5C2,20.664,2.336,21,2.75,21h12.886c1.534,0,2.854-0.225,3.917-0.72
	c1.048-0.481,1.866-1.147,2.381-2.025c0.489-0.833,0.732-1.749,0.732-2.732c0-1.25-0.356-2.336-1.128-3.184
	c-0.317-0.348-0.69-0.635-1.113-0.867c0.302-0.21,0.572-0.455,0.809-0.738c0.675-0.806,1.014-1.754,1.014-2.813
	c0-1.49-0.605-2.722-1.786-3.626C19.28,3.39,17.598,3,15.543,3z M16.086,8.718c0.498-0.059,0.972-0.189,1.414-0.381l-0.001,0.002
	c-0.329,0.485-0.747,0.911-1.228,1.254c0.005,0.104,0.007,0.209,0.007,0.313c0,3.202-2.476,6.895-7.005,6.895
	c-1.39,0-2.684-0.401-3.773-1.089c0.193,0.022,0.389,0.034,0.588,0.034c1.153,0,2.215-0.388,3.058-1.038
	c-1.078-0.019-1.987-0.72-2.3-1.682c0.15,0.028,0.305,0.043,0.463,0.043c0.224,0,0.441-0.029,0.648-0.084
	c-1.127-0.223-1.975-1.202-1.975-2.376v-0.031c0.332,0.181,0.711,0.29,1.115,0.303c-0.66-0.434-1.095-1.177-1.095-2.017
	c0-0.443,0.122-0.859,0.333-1.218c1.214,1.466,3.028,2.431,5.075,2.532c-0.041-0.178-0.064-0.362-0.064-0.551
	c0-1.339,1.102-2.424,2.462-2.424c0.708,0,1.348,0.294,1.797,0.765c0.561-0.108,1.088-0.31,1.563-0.588
	C16.985,7.943,16.595,8.419,16.086,8.718z"/>
    <path d="M30.862,21.003H25.64V2.625h5.222V21.003z M41.212,21.485c-2.163,0-3.844-0.54-5.044-1.622
	c-1.183-1.082-1.775-2.62-1.775-4.614V8.33h5.222v5.626c0,1.37,0.33,2.366,0.99,2.99c0.658,0.627,1.57,0.94,2.737,0.94
	c1.436,0,2.535-0.39,3.295-1.167c0.76-0.795,1.14-1.8,1.14-3.017V8.33H53v12.673h-5.12v-2.89c-0.56,1.1-1.43,1.936-2.612,2.51
	C44.085,21.198,42.733,21.485,41.212,21.485z M74.523,15.756H60.53c0.186,0.794,0.7,1.41,1.546,1.85
	c0.845,0.44,1.943,0.66,3.295,0.66c1,0,1.91-0.152,2.74-0.457c0.844-0.322,1.495-0.76,1.95-1.32l3.956,1.725
	c-0.896,1.065-2.096,1.876-3.6,2.433c-1.487,0.558-3.245,0.837-5.273,0.837c-1.994,0-3.71-0.262-5.146-0.786
	c-1.436-0.542-2.543-1.32-3.32-2.333c-0.76-1.03-1.14-2.248-1.14-3.65c0-1.42,0.388-2.645,1.165-3.676
	c0.777-1.03,1.876-1.816,3.295-2.356c1.437-0.558,3.11-0.837,5.02-0.837c1.994,0,3.7,0.296,5.12,0.887
	c1.437,0.575,2.527,1.403,3.27,2.485c0.744,1.08,1.116,2.373,1.116,3.877v0.66L74.523,15.756z M69.35,13.17
	c-0.032-0.76-0.455-1.377-1.266-1.85c-0.794-0.473-1.825-0.71-3.093-0.71c-1.25,0-2.272,0.228-3.066,0.684
	c-0.794,0.457-1.267,1.082-1.42,1.876h8.847H69.35z"/>
</svg>
