<svg width="16" height="16" viewBox="0 0 16 16" fill="none" xmlns="http://www.w3.org/2000/svg">
<mask id="mask0_788_288883" style="mask-type:alpha" maskUnits="userSpaceOnUse" x="0" y="0" width="16" height="16">
<rect width="16" height="16" fill="#C4C4C4"/>
</mask>
<g mask="url(#mask0_788_288883)">
</g>
<g clip-path="url(#clip0_788_288883)">
<path d="M8.00033 15.3332C12.0504 15.3332 15.3337 12.0499 15.3337 7.99984C15.3337 3.94975 12.0504 0.666504 8.00033 0.666504C3.95024 0.666504 0.666992 3.94975 0.666992 7.99984C0.666992 12.0499 3.95024 15.3332 8.00033 15.3332Z" fill="#FAE142"/>
<path d="M8 14C11.3137 14 14 11.3137 14 8C14 4.68629 11.3137 2 8 2C4.68629 2 2 4.68629 2 8C2 11.3137 4.68629 14 8 14Z" fill="#EDB900"/>
<path d="M10.2315 2.43555L2.43555 10.2315C2.73839 10.9828 3.1897 11.6652 3.76245 12.238C4.33521 12.8107 5.01763 13.262 5.76888 13.5649L13.5655 5.76488C13.262 5.01443 12.8103 4.33284 12.2375 3.76081C11.6646 3.18879 10.9824 2.73807 10.2315 2.43555V2.43555Z" fill="#F3D054"/>
<path d="M14.2117 4.12155L13.2431 5.09022C12.8232 4.33519 12.2457 3.67939 11.5499 3.16737C10.854 2.65536 10.0561 2.29913 9.2104 2.12288L10.2937 1.03955C11.9185 1.57972 13.3041 2.66964 14.2117 4.12155V4.12155ZM2.1224 9.21088L1.03906 10.2942C1.57923 11.919 2.66915 13.3046 4.12106 14.2122L5.08973 13.2436C4.3347 12.8237 3.6789 12.2462 3.16689 11.5504C2.65487 10.8545 2.29864 10.0566 2.1224 9.21088V9.21088Z" fill="#FFF270"/>
<path d="M11.7635 5.96581C11.8518 5.83529 11.9207 5.69271 11.9682 5.54248V5.04248C11.6472 5.38373 11.2895 5.68847 10.9015 5.95115C10.6706 5.7051 10.371 5.53415 10.0417 5.46048C9.71234 5.38681 9.36848 5.41383 9.0547 5.53802C8.74093 5.66221 8.47172 5.87784 8.28201 6.15693C8.09231 6.43602 7.99087 6.76569 7.99085 7.10315C7.99102 7.23214 8.00555 7.36071 8.03419 7.48648C7.36538 7.45261 6.71116 7.27854 6.11395 6.97557C5.51674 6.6726 4.98987 6.24749 4.56752 5.72781C4.41593 5.98409 4.33517 6.27606 4.33352 6.57381C4.44964 7.10043 4.70869 7.58484 5.08219 7.97381L4.68219 7.67181L4.32219 7.28515V7.78515C4.32167 8.02874 4.37418 8.26953 4.47606 8.4908C4.57795 8.71206 4.72677 8.9085 4.91219 9.06648V9.46648C5.01995 9.80051 5.2294 10.0925 5.51125 10.3017C5.7931 10.5109 6.13326 10.6268 6.48419 10.6331C6.16774 10.8787 5.81018 11.066 5.42819 11.1865L3.99219 10.8305V11.3331C4.71571 11.7967 5.5507 12.057 6.40949 12.0865C7.26828 12.1161 8.1192 11.9139 8.87289 11.5012C9.62659 11.0885 10.2553 10.4805 10.6929 9.74096C11.1306 9.00147 11.3611 8.15778 11.3602 7.29848C11.3602 7.22581 11.3602 7.15315 11.3549 7.08115C11.6839 6.84278 11.968 6.548 12.1942 6.21048V5.70915L11.7635 5.96581Z" fill="#D18800"/>
<path d="M12.1948 5.70937C11.888 5.84621 11.5624 5.9361 11.2288 5.97603C11.5806 5.76529 11.8435 5.43344 11.9681 5.0427C11.6386 5.23897 11.2778 5.3772 10.9015 5.45137C10.6708 5.20481 10.3714 5.0333 10.0421 4.95912C9.7127 4.88493 9.36864 4.91149 9.05457 5.03534C8.74051 5.1592 8.47094 5.37464 8.28088 5.65367C8.09083 5.9327 7.98906 6.26243 7.98881 6.60003C7.98897 6.72902 8.00351 6.8576 8.03214 6.98337C7.36333 6.94949 6.70911 6.77543 6.1119 6.47246C5.51469 6.16949 4.98783 5.74438 4.56547 5.2247C4.35015 5.59514 4.28414 6.03374 4.38087 6.45115C4.47761 6.86856 4.72982 7.2334 5.08614 7.47137C4.81878 7.46515 4.5568 7.39497 4.32214 7.2667V7.2887C4.32337 7.67637 4.45837 8.05173 4.70433 8.35138C4.95029 8.65103 5.29215 8.8566 5.67214 8.93337C5.52763 8.97258 5.37854 8.99231 5.22881 8.99203C5.12257 8.99217 5.01655 8.98235 4.91214 8.9627C5.01922 9.29748 5.22837 9.59036 5.51028 9.8003C5.79219 10.0102 6.13272 10.1267 6.48414 10.1334C5.88803 10.6012 5.15192 10.855 4.39414 10.854C4.26047 10.8539 4.12692 10.8462 3.99414 10.8307C4.71735 11.2936 5.55176 11.5534 6.4099 11.5828C7.26805 11.6123 8.11832 11.4104 8.87157 10.9982C9.62482 10.586 10.2533 9.97876 10.6912 9.24013C11.129 8.5015 11.3601 7.65868 11.3601 6.80003C11.3601 6.72737 11.3601 6.6547 11.3548 6.5827C11.6838 6.34433 11.968 6.04955 12.1941 5.71203L12.1948 5.70937Z" fill="white"/>
<path d="M14 8.00024C14.0027 7.14246 13.8215 6.29406 13.4686 5.51225C13.1157 4.73044 12.5992 4.03339 11.954 3.46811C11.3088 2.90283 10.55 2.48246 9.72854 2.23534C8.90712 1.98822 8.04227 1.9201 7.19229 2.03557C6.34232 2.15104 5.52698 2.44742 4.80127 2.90473C4.07555 3.36203 3.45632 3.96963 2.98534 4.68654C2.51436 5.40346 2.20257 6.21303 2.071 7.06066C1.93943 7.90829 1.99114 8.77428 2.22264 9.60024C2.11765 8.80909 2.1762 8.00481 2.39466 7.23721C2.61312 6.46961 2.98684 5.75503 3.49267 5.13772C3.99851 4.52041 4.62568 4.01352 5.33536 3.64843C6.04504 3.28334 6.82212 3.06783 7.61847 3.01525C8.41482 2.96266 9.21348 3.07413 9.965 3.34273C10.7165 3.61133 11.4049 4.03136 11.9875 4.57679C12.5701 5.12223 13.0346 5.78147 13.3521 6.51368C13.6696 7.24589 13.8333 8.03549 13.8333 8.83357C13.8316 9.08942 13.8129 9.34487 13.7773 9.59824C13.9235 9.0781 13.9984 8.54053 14 8.00024Z" fill="#D18800"/>
</g>
<defs>
<clipPath id="clip0_788_288883">
<rect width="16" height="16" fill="white"/>
</clipPath>
</defs>
</svg>
