<svg xmlns="http://www.w3.org/2000/svg" width="24" height="24" viewBox="0 0 24 24">
    <path id="bounds" opacity="0" d="M0 0h24v24H0z"/>
    <path d="M15.249,21H3.438C2.645,21,2,20.355,2,19.562V4.438C2,3.645,2.645,3,3.438,3h11.728c2.162,0,3.786,0.439,4.965,1.341
	c1.264,0.968,1.932,2.323,1.932,3.919c0,1.156-0.372,2.186-1.106,3.061c-0.035,0.042-0.071,0.084-0.108,0.125
	c0.13,0.113,0.253,0.233,0.368,0.359c0.815,0.897,1.229,2.048,1.229,3.424c0,1.038-0.261,2.009-0.774,2.884
	c-0.535,0.911-1.382,1.637-2.516,2.158C18.102,20.761,16.823,21,15.249,21z M3.5,4.5v15.062L15.249,19.5
	c1.332,0,2.434-0.198,3.274-0.59c0.854-0.393,1.476-0.916,1.853-1.557c0.376-0.642,0.567-1.356,0.567-2.124
	c0-0.99-0.282-1.803-0.838-2.414c-0.229-0.251-0.507-0.467-0.826-0.642c-0.228-0.125-0.375-0.358-0.389-0.617
	s0.107-0.507,0.319-0.656c0.226-0.157,0.426-0.339,0.596-0.542c0.502-0.599,0.756-1.304,0.756-2.098
	c0-1.127-0.452-2.045-1.344-2.728C18.323,4.847,16.96,4.5,15.165,4.5H3.5z"/>
    <path d="M17.5,8.337c-0.441,0.192-0.915,0.323-1.414,0.381c0.508-0.3,0.898-0.775,1.082-1.341
	c-0.476,0.278-1.003,0.48-1.563,0.588C15.156,7.495,14.517,7.2,13.809,7.2c-1.359,0-2.462,1.085-2.462,2.424
	c0,0.189,0.022,0.374,0.064,0.551c-2.047-0.101-3.86-1.066-5.075-2.532C6.124,8.002,6.003,8.419,6.003,8.862
	c0,0.841,0.435,1.583,1.095,2.017c-0.404-0.013-0.783-0.122-1.115-0.303v0.031c0,1.174,0.848,2.154,1.975,2.376
	c-0.207,0.055-0.424,0.084-0.648,0.084c-0.159,0-0.313-0.015-0.463-0.043c0.313,0.962,1.222,1.664,2.3,1.682
	c-0.843,0.65-1.905,1.038-3.058,1.038c-0.199,0-0.395-0.011-0.588-0.034C6.59,16.4,7.884,16.8,9.273,16.8
	c4.529,0,7.005-3.692,7.005-6.895c0-0.104-0.003-0.209-0.007-0.313c0.481-0.342,0.899-0.768,1.228-1.254L17.5,8.337z"/>
</svg>
