<svg xmlns="http://www.w3.org/2000/svg" width="24" height="24" viewBox="0 0 24 24">
    <path id="bounds" opacity="0" d="M0 0h24v24H0z"/>
    <path d="M2.74994 3H15.5431C17.5978 3 19.2802 3.38951 20.4624 4.29469C21.6432 5.19868 22.2484 6.43008 22.2484 7.92048C22.2484 8.97911 21.9086 9.92782 21.234 10.7336C20.9975 11.016 20.7268 11.2612 20.4252 11.4714C20.848 11.7033 21.2213 11.9906 21.5378 12.3387C22.3092 13.1873 22.6656 14.2735 22.6656 15.5232C22.6656 16.5059 22.4226 17.4218 21.9336 18.2548C21.4183 19.1328 20.6005 19.7982 19.5527 20.2796C18.4893 20.7753 17.1701 21 15.6358 21H2.74994C2.33573 21 1.99994 20.6642 1.99994 20.25V3.75C1.99994 3.33579 2.33573 3 2.74994 3Z"/>
    <path fill="#FFFFFF" d="M17.5 8.33686C17.0587 8.52934 16.5846 8.65939 16.0863 8.71818C16.5947 8.41853 16.9847 7.94306 17.1686 7.37707C16.693 7.65486 16.1661 7.8567 15.6053 7.96491C15.1561 7.49464 14.5166 7.2002 13.8085 7.2002C12.4492 7.2002 11.3467 8.28536 11.3467 9.62438C11.3467 9.81374 11.3689 9.9979 11.4102 10.1758C9.3633 10.0744 7.55003 9.10937 6.33555 7.64342C6.12415 8.00236 6.0026 8.41853 6.0026 8.86175C6.0026 9.70242 6.43755 10.4448 7.09764 10.8791C6.69387 10.8661 6.31441 10.7574 5.98252 10.5759V10.6071C5.98252 11.7812 6.83075 12.7607 7.9575 12.9834C7.75033 13.0385 7.53312 13.0677 7.30904 13.0677C7.15049 13.0677 6.99564 13.0531 6.84555 13.025C7.15894 13.9874 8.06796 14.6887 9.14556 14.7074C8.30261 15.3576 7.24086 15.7452 6.08769 15.7452C5.88897 15.7452 5.6929 15.7338 5.5 15.7114C6.58976 16.3996 7.88351 16.8002 9.27345 16.8002C13.8027 16.8002 16.2786 13.1077 16.2786 9.9053C16.2786 9.80126 16.276 9.69617 16.2712 9.59213C16.7522 9.24983 17.1697 8.82378 17.4989 8.33842L17.5 8.33686Z"/>
</svg>
