<svg width="16" height="16" viewBox="0 0 16 16" xmlns="http://www.w3.org/2000/svg">
<path fill-rule="evenodd" clip-rule="evenodd" d="M8.00349 14.1017C11.3714 14.1017 14.1017 11.3714 14.1017 8.00349C14.1017 4.63556 11.3714 1.90531 8.00349 1.90531C4.63556 1.90531 1.90531 4.63556 1.90531 8.00349C1.90531 11.3714 4.63556 14.1017 8.00349 14.1017ZM8.00349 15.338C12.0542 15.338 15.338 12.0542 15.338 8.00349C15.338 3.95273 12.0542 0.668945 8.00349 0.668945C3.95273 0.668945 0.668945 3.95273 0.668945 8.00349C0.668945 12.0542 3.95273 15.338 8.00349 15.338Z"/>
<path d="M12.2036 5.57968C11.902 5.70678 11.5779 5.79265 11.2372 5.83147C11.5847 5.63361 11.8514 5.31964 11.9771 4.9459C11.6519 5.12933 11.2917 5.26261 10.9084 5.33406C10.6013 5.02353 10.1641 4.8291 9.67997 4.8291C8.75071 4.8291 7.99704 5.54567 7.99704 6.42987C7.99704 6.55491 8.01222 6.67651 8.0404 6.79399C6.64109 6.72701 5.40148 6.08979 4.57121 5.12177C4.42669 5.3588 4.34359 5.63361 4.34359 5.92628C4.34359 6.4814 4.64094 6.97159 5.0922 7.25842C4.81617 7.24983 4.55676 7.17804 4.32987 7.05815V7.07876C4.32987 7.85407 4.90975 8.5009 5.68004 8.64793C5.53841 8.68434 5.38991 8.70358 5.23672 8.70358C5.12833 8.70358 5.02247 8.69396 4.91987 8.67541C5.13411 9.3109 5.75555 9.77396 6.49223 9.78633C5.91596 10.2157 5.19012 10.4716 4.40176 10.4716C4.26592 10.4716 4.13187 10.4641 4 10.4493C4.745 10.9038 5.62945 11.1683 6.57967 11.1683C9.67599 11.1683 11.3687 8.73003 11.3687 6.61536C11.3687 6.54666 11.3669 6.47727 11.3636 6.40857C11.6924 6.18254 11.9778 5.9012 12.2029 5.58071L12.2036 5.57968Z"/>
</svg>
