<svg xmlns="http://www.w3.org/2000/svg" width="24" height="24" viewBox="0 0 24 24">
    <path id="bounds" opacity="0" d="M0 0h24v24H0z"/>
    <path d="M13.967 5.852H4.602l2.97-2.97c.293-.293.293-.768 0-1.06s-.768-.294-1.06 0L2.26 6.07c-.294.292-.294.767 0 1.06l4.25 4.25c.145.146.337.22.53.22s.383-.073.53-.22c.292-.293.292-.768 0-1.06L4.6 7.35h9.364c3.625 0 6.574 2.948 6.574 6.573S17.592 20.5 13.967 20.5H7.79c-.415 0-.75.336-.75.75s.335.75.75.75h6.178c4.452 0 8.074-3.622 8.074-8.074s-3.623-8.074-8.075-8.074z"/>
</svg>
