<svg xmlns="http://www.w3.org/2000/svg" width="24" height="24" viewBox="0 0 24 24">
    <path id="bounds" opacity="0" d="M0 0h24v24H0z"/>
    <path d="M12 22.75c-1.484 0-2.827-.753-3.636-2-.295.062-.6.095-.91.095-2.417 0-4.385-2.045-4.385-4.56v-.11c-1.133-.852-1.82-2.228-1.82-3.697 0-1.538.723-2.935 1.92-3.776-.067-.323-.102-.653-.102-.987 0-2.514 1.968-4.56 4.386-4.56.312 0 .616.033.91.097.81-1.25 2.152-2.002 3.636-2.002 1.46 0 2.826.77 3.634 2.002.294-.063.6-.096.912-.096 2.418 0 4.386 2.045 4.386 4.56 0 .333-.034.663-.102.985 1.198.843 1.92 2.24 1.92 3.777 0 1.468-.687 2.844-1.82 3.696v.112c0 2.514-1.967 4.56-4.385 4.56-.31 0-.616-.033-.91-.098-.81 1.234-2.175 2.003-3.635 2.003zm-3.273-3.642c.284 0 .553.162.68.434.49 1.054 1.484 1.708 2.593 1.708 1.11 0 2.104-.654 2.593-1.707.167-.36.583-.528.954-.383.312.122.648.185 1 .185 1.59 0 2.885-1.372 2.885-3.06 0-.136-.01-.268-.027-.4-.036-.294.106-.582.362-.733.915-.543 1.483-1.567 1.483-2.674 0-1.17-.642-2.255-1.636-2.762-.335-.17-.492-.563-.366-.918.122-.345.184-.71.184-1.083 0-1.687-1.295-3.06-2.886-3.06-.353 0-.688.063-.996.186-.368.148-.79-.02-.957-.38-.49-1.055-1.483-1.71-2.593-1.71-1.11 0-2.103.655-2.593 1.71-.168.36-.587.53-.958.38-.308-.122-.642-.184-.995-.184-1.59 0-2.886 1.372-2.886 3.06 0 .372.06.737.183 1.082.125.354-.03.747-.366.918-.994.508-1.636 1.592-1.636 2.762 0 1.107.57 2.132 1.482 2.673.255.152.397.44.362.734-.016.133-.025.266-.025.402 0 1.687 1.294 3.06 2.885 3.06.35 0 .687-.063.998-.186.09-.035.182-.052.274-.052z"/>
    <path d="M15.416 8.376c-.345-.23-.81-.137-1.04.208l-3.493 5.24L9.3 12.24c-.292-.293-.767-.293-1.06 0s-.293.768 0 1.06l2.23 2.23.113.094c.128.085.272.126.416.126.24 0 .48-.117.624-.334l4-6c.23-.345.137-.81-.208-1.04z"/>
</svg>
