<svg xmlns="http://www.w3.org/2000/svg" width="24" height="24" viewBox="0 0 24 24">
    <path id="bounds" opacity="0" d="M0 0h24v24H0z"/>
    <path d="M15.5432 3H2.75C2.33579 3 2 3.33579 2 3.75V20.25C2 20.6642 2.33579 21 2.75 21H15.6359C17.1702 21 18.4894 20.7753 19.5528 20.2796C20.6006 19.7982 21.4183 19.1328 21.9337 18.2548C22.4226 17.4218 22.6656 16.5059 22.6656 15.5232C22.6656 14.2735 22.3093 13.1873 21.5379 12.3387C21.2214 11.9906 20.8481 11.7033 20.4252 11.4714C20.7269 11.2612 20.9976 11.016 21.234 10.7336C21.9086 9.92782 22.2484 8.97911 22.2484 7.92048C22.2484 6.43008 21.6432 5.19868 20.4625 4.29469C19.2802 3.38951 17.5978 3 15.5432 3ZM16.0863 8.71817C16.5846 8.65939 17.0587 8.52934 17.5 8.33686L17.4989 8.33842C17.1697 8.82378 16.7522 9.24983 16.2712 9.59213C16.276 9.69617 16.2786 9.80126 16.2786 9.9053C16.2786 13.1077 13.8027 16.8002 9.27345 16.8002C7.88351 16.8002 6.58976 16.3996 5.5 15.7114C5.6929 15.7338 5.88897 15.7452 6.08769 15.7452C7.24086 15.7452 8.30261 15.3576 9.14556 14.7074C8.06796 14.6887 7.15894 13.9874 6.84555 13.025C6.99564 13.0531 7.15049 13.0677 7.30904 13.0677C7.53312 13.0677 7.75033 13.0385 7.9575 12.9834C6.83075 12.7607 5.98252 11.7812 5.98252 10.6071V10.5759C6.31441 10.7574 6.69387 10.8661 7.09764 10.8791C6.43755 10.4448 6.0026 9.70242 6.0026 8.86175C6.0026 8.41853 6.12415 8.00236 6.33555 7.64342C7.55003 9.10938 9.3633 10.0744 11.4102 10.1758C11.3689 9.9979 11.3467 9.81374 11.3467 9.62438C11.3467 8.28536 12.4492 7.2002 13.8085 7.2002C14.5166 7.2002 15.1561 7.49464 15.6053 7.96491C16.1661 7.8567 16.693 7.65486 17.1686 7.37707C16.9847 7.94306 16.5947 8.41853 16.0863 8.71817Z"/>
</svg>
