<svg xmlns="http://www.w3.org/2000/svg" width="24" height="24" viewBox="0 0 24 24">
    <path id="bounds" opacity="0" d="M0 0h24v24H0z"/>
    <path d="M21.25 10.18c-.414 0-.75-.335-.75-.75V4.293c0-.437-.355-.792-.792-.792h-5.14c-.413 0-.75-.336-.75-.75s.337-.75.75-.75h5.14C20.972 2 22 3.028 22 4.292v5.14c0 .413-.336.75-.75.75zM2.75 10.18c-.414 0-.75-.335-.75-.75V4.293C2 3.028 3.028 2 4.292 2h5.14c.413 0 .75.336.75.75s-.337.75-.75.75H4.29c-.437 0-.792.355-.792.792v5.14c0 .413-.336.75-.75.75zM9.43 22H4.293C3.028 22 2 20.972 2 19.708v-5.14c0-.413.336-.75.75-.75s.75.337.75.75v5.14c0 .437.355.792.792.792h5.14c.413 0 .75.336.75.75s-.337.75-.75.75zM19.708 22h-5.14c-.413 0-.75-.336-.75-.75s.337-.75.75-.75h5.14c.437 0 .792-.355.792-.792v-5.14c0-.413.336-.75.75-.75s.75.337.75.75v5.14C22 20.972 20.972 22 19.708 22z"/>
</svg>
