<svg xmlns="http://www.w3.org/2000/svg" width="24" height="24" viewBox="0 0 24 24">
    <path id="bounds" opacity="0" d="M0 0h24v24H0z"/>
    <path d="M21.25 10.694h-5.694c-1.24 0-2.25-1.01-2.25-2.25V2.75c0-.414.336-.75.75-.75s.75.336.75.75v5.694c0 .413.336.75.75.75h5.694c.414 0 .75.336.75.75s-.336.75-.75.75zM8.444 10.694H2.75c-.414 0-.75-.336-.75-.75s.336-.75.75-.75h5.694c.414 0 .75-.337.75-.75V2.75c0-.414.336-.75.75-.75s.75.336.75.75v5.694c0 1.24-1.01 2.25-2.25 2.25zM14.056 22c-.414 0-.75-.336-.75-.75v-5.694c0-1.24 1.01-2.25 2.25-2.25h5.694c.414 0 .75.336.75.75s-.336.75-.75.75h-5.694c-.414 0-.75.337-.75.75v5.694c0 .414-.336.75-.75.75zM9.944 22c-.414 0-.75-.336-.75-.75v-5.694c0-.413-.336-.75-.75-.75H2.75c-.414 0-.75-.336-.75-.75s.336-.75.75-.75h5.694c1.24 0 2.25 1.01 2.25 2.25v5.694c0 .414-.336.75-.75.75z"/>
</svg>
