<svg xmlns="http://www.w3.org/2000/svg" width="24" height="24" viewBox="0 0 24 24">
    <path id="bounds" opacity="0" d="M0 0h24v24H0z"/>
    <path d="M4.278 15.433c-.553 0-1-.447-1-1V9.567c0-.553.447-1 1-1s1 .447 1 1v4.866c0 .553-.447 1-1 1zM8.14 17.6c-.554 0-1-.448-1-1V7.4c0-.552.446-1 1-1s1 .448 1 1v9.2c0 .552-.448 1-1 1zM12 21.15c-.553 0-1-.448-1-1V3.85c0-.552.447-1 1-1s1 .448 1 1v16.3c0 .552-.447 1-1 1zM15.86 19.41c-.553 0-1-.446-1-1V5.59c0-.554.447-1 1-1s1 .446 1 1v12.82c0 .553-.447 1-1 1zM19.722 14.758c-.553 0-1-.447-1-1V10.24c0-.552.447-1 1-1s1 .448 1 1v3.518c0 .553-.447 1-1 1z"/>
</svg>
