<svg xmlns="http://www.w3.org/2000/svg" width="24" height="24" viewBox="0 0 24 24">
    <path id="bounds" opacity="0" d="M0 0h24v24H0z"/>
    <path d="M13.09 19.75L10.84 22H23v-2.25h-9.91zm9.042-12.097c.002-.597-.236-1.17-.66-1.59l-3.535-3.536c-.89-.852-2.292-.852-3.182 0L3.417 13.865c-.336.34-.557.777-.63 1.25l-.534 5.816c-.04.41.26.776.672.816L3 21.75h.068l5.884-.545c.45-.08.862-.298 1.184-.62l11.336-11.34c.424-.422.66-.994.66-1.59zM18.2 9.333L14.67 5.8l1.676-1.682 3.534 3.536-1.68 1.68z"/>
</svg>
