<svg xmlns="http://www.w3.org/2000/svg" width="24" height="24" viewBox="0 0 24 24">
    <path id="bounds" opacity="0" d="M0 0h24v24H0z"/>
    <path d="M12.34 20.5l-.41.412L10.842 22H23v-1.5H12.34zm9.133-11.258c.878-.878.877-2.3 0-3.18l-3.536-3.535c-.906-.81-2.276-.81-3.182 0L3.6 13.687c-.453.45-.736 1.04-.8 1.676l-.543 5.562c-.002.024-.004.048-.004.073 0 .414.335.75.75.75h.073l5.562-.55c.633-.062 1.225-.342 1.675-.79L21.473 9.24zm-11.665 9.55l-.555.554c-.205.204-.474.332-.762.36l-4.65.46.457-4.657c.028-.29.156-.56.36-.763l8.946-8.957 4.6 4.6-8.394 8.4zm10.61-10.607l-1.15 1.15-4.6-4.6 1.147-1.148c.304-.264.757-.264 1.06 0l3.543 3.538.004.004c.29.29.29.763-.004 1.054z"/>
</svg>
